<?xml version="1.0" standalone="no"?><!DOCTYPE svg PUBLIC "-//W3C//DTD SVG 1.1//EN" "http://www.w3.org/Graphics/SVG/1.1/DTD/svg11.dtd"><svg t="1730915682012" class="icon" viewBox="0 0 1024 1024" version="1.1" xmlns="http://www.w3.org/2000/svg" p-id="7063" width="256" height="256" data-spm-anchor-id="a313x.search_index.0.i5.56ed3a81n9nQWU" xmlns:xlink="http://www.w3.org/1999/xlink"><path d="M485.632 51.797333a42.666667 42.666667 0 0 1 52.736 0l5.418667 4.394667 7.765333 6.528 12.970667 11.306667 17.408 15.914666c5.973333 5.632 12.202667 11.605333 18.602666 17.877334l12.8 12.8C756.352 266.154667 853.333333 435.754667 853.333333 618.666667c0 199.68-152.149333 362.666667-341.333333 362.666666s-341.333333-162.986667-341.333333-362.666666c0-141.653333 59.690667-278.058667 158.293333-404.864a1075.882667 1075.882667 0 0 1 114.133333-124.8l19.2-17.536 15.445334-13.269334zM512 141.525333l-17.194667 16.042667a991.274667 991.274667 0 0 0-98.432 108.629333C308.309333 379.392 256 498.944 256 618.666667l0.042667 5.461333c61.354667-41.258667 164.266667-77.141333 298.496-2.645333 103.338667 57.386667 170.24 48.725333 212.394666 22.528 0.725333-8.362667 1.066667-16.810667 1.066667-25.344 0-155.52-86.656-307.114667-215.296-437.973334l-12.288-12.288a992.426667 992.426667 0 0 0-7.125333-6.954666l-13.738667-12.970667L512 141.525333z" fill="#c8d3f5" p-id="7064"></path></svg>