<?xml version="1.0" standalone="no"?><!DOCTYPE svg PUBLIC "-//W3C//DTD SVG 1.1//EN" "http://www.w3.org/Graphics/SVG/1.1/DTD/svg11.dtd"><svg t="1730915948987" class="icon" viewBox="0 0 1024 1024" version="1.1" xmlns="http://www.w3.org/2000/svg" p-id="12114" width="256" height="256" xmlns:xlink="http://www.w3.org/1999/xlink"><path d="M509.6 814.9c-50.3 0-91.2-40.9-91.2-91.2 0-50.3 40.9-91.2 91.2-91.2 50.3 0 91.2 40.9 91.2 91.2 0 50.2-40.9 91.2-91.2 91.2z m0-92.7v2.9l1.4-1.4c0-0.9-0.6-1.5-1.4-1.5z" fill="#c8d3f5" p-id="12115"></path><path d="M508 958.1c-8.1 0-16.3-0.4-24.5-1.3-106.4-11-194.1-95.8-208.5-201.7-8.6-63.6 8.6-127.4 47.4-177.1V256.1c0-51.9 21.5-102.7 59.1-139.3 36.2-35.2 82.7-53.7 132.1-52.6 47.8 1.3 92.8 20.6 126.5 54.4 35.1 35.1 54.4 81.8 54.4 131.6V578c32.1 41.2 49.6 92 49.6 144.5 0 66.6-28.4 130.4-77.9 175.1-43.3 39.1-99.9 60.5-158.2 60.5z m0.8-804.1c-23.7 0-46.6 9.6-64.7 27.2-20.3 19.8-31.9 47.1-31.9 74.9V590c0 13.6-4.9 26.7-13.9 37-27.9 32-40.1 73.2-34.3 116 8.9 65.3 63 117.7 128.7 124.5 42.1 4.4 82.4-8.7 113.4-36.7 30.7-27.6 48.2-67.2 48.2-108.4 0-35.2-12.7-69.1-35.7-95.5-9-10.2-13.9-23.4-13.9-37V250.3c0-25.8-10-50-28.1-68.1-17.5-17.5-40.7-27.5-65.5-28.1-0.7-0.1-1.5-0.1-2.3-0.1z m177.4 413.9l0.1 0.1s0-0.1-0.1-0.1z" fill="#c8d3f5" p-id="12116"></path><path d="M464.7 433.2h89.8v313h-89.8z" fill="#c8d3f5" p-id="12117"></path></svg>