<?xml version="1.0" encoding="UTF-8" standalone="no"?>
<svg
   t="1730916155223"
   class="icon"
   viewBox="0 0 1035 1024"
   version="1.1"
   p-id="15294"
   width="258.75"
   height="256"
   id="svg2"
   sodipodi:docname="weather.svg"
   inkscape:version="1.4 (e7c3feb, 2024-10-09)"
   xmlns:inkscape="http://www.inkscape.org/namespaces/inkscape"
   xmlns:sodipodi="http://sodipodi.sourceforge.net/DTD/sodipodi-0.dtd"
   xmlns="http://www.w3.org/2000/svg"
   xmlns:svg="http://www.w3.org/2000/svg">
  <defs
     id="defs2" />
  <sodipodi:namedview
     id="namedview2"
     pagecolor="#ffffff"
     bordercolor="#000000"
     borderopacity="0.25"
     inkscape:showpageshadow="2"
     inkscape:pageopacity="0.0"
     inkscape:pagecheckerboard="0"
     inkscape:deskcolor="#d1d1d1"
     showgrid="false"
     inkscape:zoom="3.6523438"
     inkscape:cx="129.36898"
     inkscape:cy="128"
     inkscape:window-width="1916"
     inkscape:window-height="1163"
     inkscape:window-x="0"
     inkscape:window-y="33"
     inkscape:window-maximized="1"
     inkscape:current-layer="svg2" />
  <path
     d="M921.348011 358.302004h102.372002v102.372002h-102.372002zM563.046007 0h102.372001v102.372001h-102.372001zM795.328078 156.168488l72.377005-72.377005 72.377005 72.377005-72.377005 72.377005zM288.586672 156.219674l72.377004-72.428191 72.377005 72.428191-72.377005 72.377005z"
     fill="#c8d3f5"
     p-id="15295"
     id="path1"
     style="fill:#e0def4;fill-opacity:1" />
  <path
     d="M815.90485 563.046007A251.835123 251.835123 0 0 0 870.162011 409.488005a255.930003 255.930003 0 0 0-255.930003-255.930003 255.930003 255.930003 0 0 0-232.896303 153.558002H358.302004a358.302004 358.302004 0 0 0 0 716.604009h435.081006a229.825143 229.825143 0 0 0 22.52184-460.674006z m-22.52184 358.302004H358.302004a255.930003 255.930003 0 1 1 251.835123-298.414383l7.166041 42.48438h176.079842a127.965002 127.965002 0 0 1 0 255.930003z"
     fill="#c8d3f5"
     p-id="15296"
     id="path2"
     style="fill:#e0def4;fill-opacity:1" />
</svg>
