<?xml version="1.0" encoding="UTF-8" standalone="no"?>
<svg
   t="1679048025202"
   class="icon"
   viewBox="0 0 1023.8906 736.42664"
   version="1.1"
   p-id="19089"
   width="127.98633"
   height="92.053329"
   id="svg1142"
   sodipodi:docname="docker.svg"
   inkscape:version="1.2.2 (b0a8486, 2022-12-01)"
   xmlns:inkscape="http://www.inkscape.org/namespaces/inkscape"
   xmlns:sodipodi="http://sodipodi.sourceforge.net/DTD/sodipodi-0.dtd"
   xmlns="http://www.w3.org/2000/svg"
   xmlns:svg="http://www.w3.org/2000/svg">
  <defs
     id="defs1146" />
  <sodipodi:namedview
     id="namedview1144"
     pagecolor="#ffffff"
     bordercolor="#000000"
     borderopacity="0.25"
     inkscape:showpageshadow="2"
     inkscape:pageopacity="0.0"
     inkscape:pagecheckerboard="0"
     inkscape:deskcolor="#d1d1d1"
     showgrid="false"
     inkscape:zoom="6.390625"
     inkscape:cx="63.92176"
     inkscape:cy="46.00489"
     inkscape:window-width="1912"
     inkscape:window-height="1012"
     inkscape:window-x="0"
     inkscape:window-y="30"
     inkscape:window-maximized="1"
     inkscape:current-layer="svg1142" />
  <path
     d="m 205.6293,593.152 c -29.184,0 -55.63733,-23.89334 -55.63733,-52.90667 0,-29.01333 23.89333,-53.03467 55.68,-53.03467 31.91467,0 55.89333,23.89334 55.89333,52.992 0,29.09867 -26.53866,52.90667 -55.68,52.90667 z M 888.80797,304.59733 c -5.76,-42.32533 -32,-76.8 -66.56,-103.25333 l -13.44,-10.66667 -10.83733,13.22667 c -21.07734,23.89333 -29.44,66.26133 -26.88,97.92 2.56,23.97866 10.24,47.78666 23.63733,66.304 -10.83733,5.54666 -24.23467,10.66666 -34.56,16.08533 a 225.70667,225.70667 0 0 1 -71.68,10.66667 H 4.1146368 l -2.56,15.78666 a 297.81333,297.81333 0 0 0 23.9786662,151.04 l 10.410667,18.56 v 2.56 c 64,105.94134 177.92,153.6 301.99467,153.6 238.67733,0 434.432,-103.25333 527.232,-325.67466 60.8,2.64533 122.19733,-13.22667 151.04006,-71.50934 l 7.68,-13.22666 -12.8,-7.97867 C 976.53064,296.96 929.17064,294.144 889.49064,304.81066 l -0.768,0.0853 z M 547.1333,262.272 H 443.53864 v 103.25333 h 103.68 V 262.18666 l -0.0853,0.128 z m 0,-129.83467 H 443.53864 v 103.25333 h 103.68 V 132.56533 Z m 0,-132.4373270000001 H 443.53864 V 103.25333 h 103.68 V 2.9999999e-6 Z M 673.8533,262.272 H 570.85597 V 365.52533 H 674.1093 V 262.18666 l -0.29866,0.128 z m -383.91466,0 H 186.98397 V 365.52533 H 290.32264 V 262.18666 l -0.42667,0.128 z m 129.28,0 h -102.4 V 365.52533 H 419.81597 V 262.18666 l -0.64,0.128 z m -257.28,0 H 59.709303 V 365.52533 H 163.30397 V 262.18666 l -1.28,0.128 z m 257.28,-129.83467 h -102.4 V 235.69066 H 419.81597 V 132.56533 l -0.64,-0.128 z m -129.92,0 h -102.144 V 235.69066 H 290.1093 V 132.56533 l -0.68266,-0.128 z"
     p-id="19090"
     fill="#eceff4"
     id="path1140" />
</svg>
