<?xml version="1.0" encoding="UTF-8" standalone="no"?>
<!-- Uploaded to: SVG Repo, www.svgrepo.com, Generator: SVG Repo Mixer Tools -->

<svg
   fill="#000000"
   width="800px"
   height="800px"
   viewBox="0 0 20 20"
   version="1.1"
   id="svg2201"
   sodipodi:docname="brightness-2.svg"
   inkscape:version="1.2.2 (b0a8486, 2022-12-01)"
   xmlns:inkscape="http://www.inkscape.org/namespaces/inkscape"
   xmlns:sodipodi="http://sodipodi.sourceforge.net/DTD/sodipodi-0.dtd"
   xmlns="http://www.w3.org/2000/svg"
   xmlns:svg="http://www.w3.org/2000/svg">
  <defs
     id="defs2205" />
  <sodipodi:namedview
     id="namedview2203"
     pagecolor="#ffffff"
     bordercolor="#000000"
     borderopacity="0.25"
     inkscape:showpageshadow="2"
     inkscape:pageopacity="0.0"
     inkscape:pagecheckerboard="0"
     inkscape:deskcolor="#d1d1d1"
     showgrid="false"
     inkscape:zoom="1.0225"
     inkscape:cx="399.511"
     inkscape:cy="400"
     inkscape:window-width="1912"
     inkscape:window-height="1012"
     inkscape:window-x="0"
     inkscape:window-y="30"
     inkscape:window-maximized="1"
     inkscape:current-layer="svg2201" />
  <path
     d="M10 14a4 4 0 1 1 0-8 4 4 0 0 1 0 8zM9 1a1 1 0 1 1 2 0v2a1 1 0 1 1-2 0V1zm6.65 1.94a1 1 0 1 1 1.41 1.41l-1.4 1.4a1 1 0 1 1-1.41-1.41l1.4-1.4zM18.99 9a1 1 0 1 1 0 2h-1.98a1 1 0 1 1 0-2h1.98zm-1.93 6.65a1 1 0 1 1-1.41 1.41l-1.4-1.4a1 1 0 1 1 1.41-1.41l1.4 1.4zM11 18.99a1 1 0 1 1-2 0v-1.98a1 1 0 1 1 2 0v1.98zm-6.65-1.93a1 1 0 1 1-1.41-1.41l1.4-1.4a1 1 0 1 1 1.41 1.41l-1.4 1.4zM1.01 11a1 1 0 1 1 0-2h1.98a1 1 0 1 1 0 2H1.01zm1.93-6.65a1 1 0 1 1 1.41-1.41l1.4 1.4a1 1 0 1 1-1.41 1.41l-1.4-1.4z"
     id="path2199"
     style="fill:#4c566a;fill-opacity:1" />
</svg>
