<?xml version="1.0" encoding="UTF-8" standalone="no"?>
<!-- Uploaded to: SVG Repo, www.svgrepo.com, Generator: SVG Repo Mixer Tools -->

<svg
   fill="#000000"
   width="800px"
   height="800px"
   viewBox="0 0 20 20"
   version="1.1"
   id="svg2201"
   sodipodi:docname="brightness-3.svg"
   inkscape:version="1.2.2 (b0a8486, 2022-12-01)"
   xmlns:inkscape="http://www.inkscape.org/namespaces/inkscape"
   xmlns:sodipodi="http://sodipodi.sourceforge.net/DTD/sodipodi-0.dtd"
   xmlns="http://www.w3.org/2000/svg"
   xmlns:svg="http://www.w3.org/2000/svg">
  <defs
     id="defs2205">
    <clipPath
       clipPathUnits="userSpaceOnUse"
       id="clipPath2284">
      <path
         id="path2286"
         style="fill:#ff0000;fill-opacity:1;fill-rule:nonzero;stroke:none;stroke-width:0.025"
         d="M 0.01000977,0 V 19.98999 H 19.98999 V 0 Z M 10.245752,5.0052245 c 0.01713,-5e-5 0.03428,5e-5 0.05142,3.425e-4 0.376673,0.00632 0.753699,0.059481 1.111719,0.1788572 0.191763,0.070619 0.241749,0.083911 0.429736,0.1749513 0.289652,0.1402753 0.558928,0.3211725 0.80415,0.529004 0.06372,0.060556 0.130235,0.118326 0.191163,0.1816895 0.242316,0.252006 0.427972,0.549972 0.608789,0.847119 0.09906,0.1699225 0.157744,0.2662308 0.250048,0.4439453 0.03888,0.074856 0.07614,0.1504687 0.111963,0.226709 0.02687,0.042887 0.0531,0.08616 0.07866,0.1298827 0.144038,0.2731833 0.177107,0.3192513 0.293213,0.6062013 0.04575,0.1130672 0.08743,0.2276214 0.125684,0.3433104 0.02018,0.040135 0.03975,0.080632 0.05859,0.1215333 0.04022,0.088807 0.08253,0.1767295 0.120654,0.266455 0.227682,0.5358113 0.388434,1.10039 0.437353,1.681983 0.0059,0.383289 0.0268,0.514242 -0.04668,0.899365 -0.09249,0.484763 -0.293882,0.943322 -0.578565,1.345801 -0.09884,0.139735 -0.216276,0.265329 -0.324414,0.397998 -0.296225,0.279944 -0.369489,0.36997 -0.671631,0.579981 l -5e-5,5e-5 c -0.190106,0.180658 -0.398447,0.342656 -0.628174,0.485498 -0.154398,0.096 -0.321744,0.169402 -0.482617,0.254102 -0.175525,0.0648 -0.347363,0.140735 -0.526612,0.194385 -0.27613,0.08264 -0.571669,0.123865 -0.858154,0.150195 -0.234215,0.02148 -0.529483,0.03206 -0.763965,0.02676 -0.1335135,-0.003 -0.2667385,-0.01414 -0.4000975,-0.02124 -0.357409,-0.04475 -0.453229,-0.04621 -0.8043457,-0.132618 C 8.2884495,14.783335 7.7670852,14.563123 7.2995097,14.251468 6.9942617,14.013186 6.9119595,13.971691 6.6558575,13.683157 6.3299912,13.316029 6.09657,12.882163 5.9234842,12.425345 5.8905517,12.325402 5.854673,12.226363 5.824705,12.125491 5.7075752,11.731237 5.640041,11.322346 5.629832,10.911282 5.5471465,10.638888 5.4797582,10.362422 5.4434062,10.079446 5.3978522,9.750098 5.3564035,9.417577 5.392869,9.0848658 5.411855,8.9226965 5.4153015,8.8637108 5.449119,8.7007838 5.5110377,8.402471 5.6123805,8.1135253 5.7483377,7.8409205 5.7747977,7.794091 5.799914,7.746438 5.8259745,7.6993678 5.855841,7.562018 5.9009465,7.4266315 5.9838847,7.274319 6.082763,7.092733 6.1973845,6.9146243 6.3454082,6.7702663 6.6307155,6.4920228 6.940678,6.3655028 7.3212382,6.299026 7.348593,6.2942475 7.3760932,6.290908 7.403709,6.288479 7.4339377,6.252838 7.4678847,6.2141925 7.507078,6.170901 7.8382842,5.8050628 8.238626,5.5169593 8.692869,5.3239283 8.769882,5.2956563 8.846305,5.2656748 8.9239237,5.2391138 9.3008515,5.11013 9.6919175,5.0181475 10.091551,5.0070825 c 0.0514,-3.825e-4 0.102798,-0.00171 0.154199,-0.00185 z" />
    </clipPath>
    <clipPath
       clipPathUnits="userSpaceOnUse"
       id="clipPath2512">
      <path
         id="path2514"
         style="fill:#ff0000;fill-opacity:1;fill-rule:nonzero;stroke:none;stroke-width:0.025"
         d="m 13.179553,5.5779197 c -0.160778,0.0041 -0.321546,0.00838 -0.48231,0.012613 -0.186028,0.00736 -0.372097,0.015683 -0.557834,0.028468 -0.146205,0.011987 -0.292394,0.024086 -0.438417,0.038113 -0.123921,0.013335 -0.247883,0.026301 -0.37172,0.040378 -0.203438,0.025506 -0.406804,0.051789 -0.610903,0.071618 -0.231399,0.023076 -0.463184,0.040367 -0.695056,0.057951 C 9.7010176,5.8534186 9.3795491,5.88901 9.058068,5.9237102 8.3274405,6.0057159 7.5964107,6.0841454 6.8652382,6.1611357 6.8229812,6.1658159 6.780735,6.1706062 6.738481,6.1753111 6.727766,6.1884952 6.716939,6.2016257 6.705913,6.2146348 6.5143123,6.4406893 6.3602293,6.5674891 6.1920111,6.6670323 6.1522196,6.7088143 6.1114121,6.7521203 6.0697447,6.797968 5.8635386,6.9575359 5.6465359,7.1059455 5.4151057,7.2266229 c -3.719e-4,0.2875467 0.00541,0.5751076 0.013277,0.8626601 0.010845,0.5429574 0.017113,1.0861345 -0.00656,1.6289046 -0.013625,0.3648104 -0.035571,0.7295194 -0.036395,1.0946574 0.0025,0.487685 0.031446,0.974288 0.059474,1.461067 0.023275,0.416896 0.049638,0.833607 0.078296,1.250156 0.1255073,0.105718 0.2415736,0.227639 0.370314,0.327788 0.048949,0.0996 0.1054006,0.196133 0.1573336,0.294517 0.021781,0.02327 0.043269,0.04733 0.064433,0.07224 0.050247,0.05913 0.1019775,0.120316 0.1488988,0.184474 0.010569,0.0057 0.021068,0.01146 0.031514,0.01742 0.1029048,0.05872 0.2109382,0.136713 0.3163075,0.227468 0.7611533,0.007 1.5223581,0.0091 2.2835827,0.0048 0.6909099,-0.0012 1.3818317,-0.0027 2.0727497,-0.0041 0.03359,-0.05761 0.07285,-0.119558 0.118283,-0.186231 0.03874,-0.05683 0.07451,-0.115807 0.116214,-0.170493 0.112302,-0.147264 0.257931,-0.266078 0.413621,-0.36434 0.112436,-0.06567 0.227323,-0.12724 0.347586,-0.1776 0.105644,-0.0452 0.209875,-0.09354 0.314121,-0.14187 0.206317,-0.09312 0.415991,-0.178422 0.627889,-0.258044 0.193321,-0.07217 0.386962,-0.143516 0.582006,-0.210911 0.03742,-0.01371 0.0742,-0.02717 0.107544,-0.0501 0.04645,-0.03068 0.08562,-0.07065 0.124102,-0.110591 0.05173,-0.05842 0.101496,-0.118395 0.150305,-0.17928 0.04156,-0.0612 0.08141,-0.124337 0.112933,-0.191268 0.035,-0.08167 0.06415,-0.165619 0.0936,-0.249414 0.02481,-0.07948 0.0515,-0.158602 0.06822,-0.240316 0.02684,-0.128374 0.04592,-0.258297 0.0692,-0.38734 0.01567,-0.09827 0.02818,-0.197163 0.03546,-0.29643 0.0058,-0.120534 0.0049,-0.2412 0.0046,-0.36184 -8e-5,-0.129338 -1.6e-4,-0.258667 -6.64e-4,-0.388004 -5.6e-4,-0.109566 -0.0012,-0.219139 -0.0035,-0.328686 -0.002,-0.08812 -0.0033,-0.176395 -0.01086,-0.264254 -0.01055,-0.1159612 -0.01963,-0.2320181 -0.03108,-0.3478984 -0.01201,-0.1404041 -0.02403,-0.2808548 -0.03331,-0.4214698 -0.0091,-0.1403401 -0.01588,-0.2807918 -0.02316,-0.4212355 -0.0069,-0.1331352 -0.01308,-0.2663045 -0.0198,-0.3994455 -0.0055,-0.1118288 -0.01093,-0.2236836 -0.01773,-0.3354419 -0.0085,-0.1211953 -0.01501,-0.2425259 -0.0262,-0.3635191 -0.01141,-0.1277071 -0.02249,-0.2554409 -0.03421,-0.3831224 -0.01236,-0.1399212 -0.02467,-0.2798639 -0.03651,-0.4198297 -0.0084,-0.1065097 -0.01998,-0.2127201 -0.02878,-0.319197 -0.0014,-0.014526 -0.0029,-0.029061 -0.0045,-0.04358 C 13.927501,6.5931757 13.879897,6.5410017 13.844848,6.4774814 13.705467,6.2248606 13.634879,5.9315969 13.61781,5.634581 13.5601,5.626681 13.502369,5.618859 13.444622,5.61119 13.356232,5.600323 13.267878,5.589216 13.179549,5.577919 Z" />
    </clipPath>
  </defs>
  <sodipodi:namedview
     id="namedview2203"
     pagecolor="#ffffff"
     bordercolor="#000000"
     borderopacity="0.25"
     inkscape:showpageshadow="2"
     inkscape:pageopacity="0.0"
     inkscape:pagecheckerboard="0"
     inkscape:deskcolor="#d1d1d1"
     showgrid="false"
     inkscape:zoom="0.72301668"
     inkscape:cx="369.97763"
     inkscape:cy="460.57028"
     inkscape:window-width="1912"
     inkscape:window-height="1012"
     inkscape:window-x="0"
     inkscape:window-y="30"
     inkscape:window-maximized="1"
     inkscape:current-layer="svg2201" />
  <path
     d="m 10,14 a 4,4 0 1 1 0,-8 4,4 0 0 1 0,8 z M 9,1 a 1,1 0 1 1 2,0 V 3 A 1,1 0 1 1 9,3 Z m 6.65,1.94 a 1,1 0 1 1 1.41,1.41 l -1.4,1.4 A 1,1 0 1 1 14.25,4.34 Z M 18.99,9 a 1,1 0 1 1 0,2 h -1.98 a 1,1 0 1 1 0,-2 z m -1.93,6.65 a 1,1 0 1 1 -1.41,1.41 l -1.4,-1.4 a 1,1 0 1 1 1.41,-1.41 z M 11,18.99 a 1,1 0 1 1 -2,0 v -1.98 a 1,1 0 1 1 2,0 z M 4.35,17.06 A 1,1 0 1 1 2.94,15.65 l 1.4,-1.4 a 1,1 0 1 1 1.41,1.41 z M 1.01,11 a 1,1 0 1 1 0,-2 h 1.98 a 1,1 0 1 1 0,2 z M 2.94,4.35 A 1,1 0 1 1 4.35,2.94 l 1.4,1.4 A 1,1 0 1 1 4.34,5.75 Z"
     id="path2199"
     style="fill:#4c566a;fill-opacity:1"
     clip-path="url(#clipPath2512)"
     transform="matrix(1.2503909,0,0,1.2503909,-2.5039091,-2.5026563)" />
  <path
     d="M10 14a4 4 0 1 1 0-8 4 4 0 0 1 0 8zM9 1a1 1 0 1 1 2 0v2a1 1 0 1 1-2 0V1zm6.65 1.94a1 1 0 1 1 1.41 1.41l-1.4 1.4a1 1 0 1 1-1.41-1.41l1.4-1.4zM18.99 9a1 1 0 1 1 0 2h-1.98a1 1 0 1 1 0-2h1.98zm-1.93 6.65a1 1 0 1 1-1.41 1.41l-1.4-1.4a1 1 0 1 1 1.41-1.41l1.4 1.4zM11 18.99a1 1 0 1 1-2 0v-1.98a1 1 0 1 1 2 0v1.98zm-6.65-1.93a1 1 0 1 1-1.41-1.41l1.4-1.4a1 1 0 1 1 1.41 1.41l-1.4 1.4zM1.01 11a1 1 0 1 1 0-2h1.98a1 1 0 1 1 0 2H1.01zm1.93-6.65a1 1 0 1 1 1.41-1.41l1.4 1.4a1 1 0 1 1-1.41 1.41l-1.4-1.4z"
     id="path2250"
     style="fill:#4c566a;fill-opacity:1"
     clip-path="url(#clipPath2284)" />
</svg>
