<!DOCTYPE svg PUBLIC "-//W3C//DTD SVG 1.1//EN" "http://www.w3.org/Graphics/SVG/1.1/DTD/svg11.dtd">
<!-- Uploaded to: SVG Repo, www.svgrepo.com, Transformed by: SVG Repo Mixer Tools -->
<svg fill="#c8d3f5" height="800px" width="800px" version="1.1" id="Layer_1" xmlns="http://www.w3.org/2000/svg" xmlns:xlink="http://www.w3.org/1999/xlink" viewBox="0 0 512 512" xml:space="preserve" stroke="#c8d3f5">
<g id="SVGRepo_bgCarrier" stroke-width="0"/>
<g id="SVGRepo_tracerCarrier" stroke-linecap="round" stroke-linejoin="round"/>
<g id="SVGRepo_iconCarrier"> <g> <g> <path d="M256.001,297.083c-16.181,0-29.345,13.164-29.345,29.345s13.164,29.345,29.345,29.345s29.345-13.164,29.345-29.345 S272.181,297.083,256.001,297.083z"/> </g> </g> <g> <g> <path d="M256.001,156.228c-9.708,0-17.607,7.898-17.607,17.607s7.897,17.607,17.607,17.607c9.708,0,17.607-7.898,17.607-17.607 S265.709,156.228,256.001,156.228z"/> </g> </g> <g> <g> <path d="M396.855,50.587H115.146c-9.722,0-17.607,7.883-17.607,17.607v375.612c0,9.724,7.884,17.607,17.607,17.607h281.709 c9.725,0,17.607-7.883,17.607-17.607V68.194C414.462,58.47,406.58,50.587,396.855,50.587z M256.001,121.014 c29.126,0,52.82,23.696,52.82,52.82s-23.693,52.82-52.82,52.82c-29.125,0-52.82-23.696-52.82-52.82 C203.18,144.71,226.877,121.014,256.001,121.014z M256.001,390.986c-35.596,0-64.558-28.961-64.558-64.558 c0-35.597,28.961-64.558,64.558-64.558c35.599,0,64.558,28.961,64.558,64.558C320.559,362.025,291.599,390.986,256.001,390.986z"/> </g> </g> <g> <g> <path d="M53.535,358.138c-11.3-6.539-18.322-18.69-18.322-31.711c0-13.02,7.022-25.172,18.324-31.713 c8.416-4.869,11.291-15.641,6.419-24.058c-4.869-8.416-15.642-11.289-24.056-6.419C13.758,277.051,0,300.881,0,326.427 c0,25.549,13.758,49.378,35.901,62.191c2.776,1.606,5.809,2.37,8.801,2.37c6.08,0,11.993-3.152,15.257-8.793 C64.828,373.779,61.954,363.008,53.535,358.138z"/> </g> </g> <g> <g> <path d="M476.101,264.236c-8.414-4.869-19.187-1.998-24.058,6.419c-4.869,8.416-1.997,19.188,6.419,24.058 c11.302,6.54,18.324,18.694,18.324,31.713c0,13.022-7.023,25.172-18.322,31.712c-8.416,4.87-11.291,15.641-6.422,24.058 c3.264,5.641,9.177,8.79,15.255,8.79c2.994,0,6.027-0.763,8.803-2.37C498.244,375.805,512,351.975,512,326.427 C512,300.881,498.246,277.052,476.101,264.236z"/> </g> </g> </g>
</svg>