<?xml version="1.0" encoding="UTF-8" standalone="no"?>
<svg
   t="1678008421800"
   class="icon"
   viewBox="0 0 853.33336 512"
   version="1.1"
   p-id="3446"
   width="166.66667"
   height="100"
   id="svg2256"
   sodipodi:docname="disk.svg"
   inkscape:version="1.3 (0e150ed, 2023-07-21)"
   xmlns:inkscape="http://www.inkscape.org/namespaces/inkscape"
   xmlns:sodipodi="http://sodipodi.sourceforge.net/DTD/sodipodi-0.dtd"
   xmlns="http://www.w3.org/2000/svg"
   xmlns:svg="http://www.w3.org/2000/svg">
  <defs
     id="defs2260" />
  <sodipodi:namedview
     id="namedview2258"
     pagecolor="#ffffff"
     bordercolor="#000000"
     borderopacity="0.25"
     inkscape:showpageshadow="2"
     inkscape:pageopacity="0.0"
     inkscape:pagecheckerboard="0"
     inkscape:deskcolor="#d1d1d1"
     showgrid="false"
     inkscape:zoom="4.2"
     inkscape:cx="80.952381"
     inkscape:cy="50"
     inkscape:window-width="1912"
     inkscape:window-height="1009"
     inkscape:window-x="0"
     inkscape:window-y="33"
     inkscape:window-maximized="1"
     inkscape:current-layer="svg2256" />
  <path
     d="M 0,213.33334 H 853.33334 V 426.66667 A 85.333333,85.333333 0 0 1 768,512 H 85.333337 A 85.333333,85.333333 0 0 1 0,426.66667 Z m 704,213.33333 a 64,64 0 1 0 0,-128 64,64 0 0 0 0,128 z m -213.33333,0 a 64,64 0 1 0 0,-128 64,64 0 0 0 0,128 z"
     fill="#ffffff"
     p-id="3447"
     data-spm-anchor-id="a313x.7781069.0.i3"
     class="selected"
     id="path2252"
     style="fill:#eceff4;fill-opacity:1" />
  <path
     d="m 161.83467,3.7819678e-6 h 529.664 A 42.666667,42.666667 0 0 1 727.296,19.413344 L 853.33334,213.33334 H 0 L 126.03734,19.413344 A 42.666667,42.666667 0 0 1 161.83467,3.7819678e-6 Z"
     fill="#000000"
     opacity="0.3"
     p-id="3448"
     id="path2254"
     style="fill:#4c566a;fill-opacity:1;opacity:1" />
</svg>
