<?xml version="1.0" encoding="UTF-8" standalone="no"?>
<svg
   t="1701350322767"
   class="icon"
   viewBox="0 0 896 717.44"
   version="1.1"
   p-id="6837"
   width="175"
   height="140.125"
   id="svg1"
   sodipodi:docname="folder.svg"
   inkscape:version="1.4 (e7c3feb, 2024-10-09)"
   xmlns:inkscape="http://www.inkscape.org/namespaces/inkscape"
   xmlns:sodipodi="http://sodipodi.sourceforge.net/DTD/sodipodi-0.dtd"
   xmlns="http://www.w3.org/2000/svg"
   xmlns:svg="http://www.w3.org/2000/svg">
  <defs
     id="defs1" />
  <sodipodi:namedview
     id="namedview1"
     pagecolor="#ffffff"
     bordercolor="#999999"
     borderopacity="1"
     inkscape:showpageshadow="2"
     inkscape:pageopacity="0"
     inkscape:pagecheckerboard="0"
     inkscape:deskcolor="#d1d1d1"
     showgrid="false"
     inkscape:zoom="4.04"
     inkscape:cx="87.376238"
     inkscape:cy="64.232673"
     inkscape:window-width="1916"
     inkscape:window-height="1163"
     inkscape:window-x="0"
     inkscape:window-y="33"
     inkscape:window-maximized="1"
     inkscape:current-layer="svg1" />
  <path
     d="M 864,319.776 H 756 v -113.6 c 0,-17.7 -14.3,-32 -32,-32 H 409 L 291.7,61.976 c -1.5,-1.4 -3.5,-2.2 -5.5,-2.2 H 32 c -17.7,0 -32,14.3 -32,32 v 592 c 0,17.7 14.3,32 32,32 h 698 c 13,0 24.8,-7.9 29.7,-20 l 134,-332 c 1.5,-3.8 2.3,-7.9 2.3,-12 0,-17.7 -14.3,-32 -32,-32 z m -180,0 H 174 c -13,0 -24.8,7.9 -29.7,20 L 72,518.976 v -387.2 h 188.5 l 119.6,114.4 H 684 Z"
     p-id="6838"
     fill="#eceff4"
     id="path1"
     style="fill:#e0def4;fill-opacity:1" />
</svg>
