<?xml version="1.0" encoding="UTF-8" standalone="no"?>
<svg
   t="1679046339901"
   class="icon"
   viewBox="0 0 682.66669 853.33331"
   version="1.1"
   p-id="11704"
   width="85.333336"
   height="106.66666"
   id="svg973"
   sodipodi:docname="hhd.svg"
   inkscape:version="1.4 (e7c3feb, 2024-10-09)"
   xmlns:inkscape="http://www.inkscape.org/namespaces/inkscape"
   xmlns:sodipodi="http://sodipodi.sourceforge.net/DTD/sodipodi-0.dtd"
   xmlns="http://www.w3.org/2000/svg"
   xmlns:svg="http://www.w3.org/2000/svg">
  <defs
     id="defs977" />
  <sodipodi:namedview
     id="namedview975"
     pagecolor="#ffffff"
     bordercolor="#000000"
     borderopacity="0.25"
     inkscape:showpageshadow="2"
     inkscape:pageopacity="0.0"
     inkscape:pagecheckerboard="0"
     inkscape:deskcolor="#d1d1d1"
     showgrid="false"
     inkscape:zoom="4.5188543"
     inkscape:cx="47.578432"
     inkscape:cy="65.171386"
     inkscape:window-width="1916"
     inkscape:window-height="1163"
     inkscape:window-x="0"
     inkscape:window-y="33"
     inkscape:window-maximized="1"
     inkscape:current-layer="svg973" />
  <path
     d="M 85.333333,0 H 597.33333 c 46.93333,0 85.33333,38.399997 85.33333,85.333337 V 768 c 0,46.93334 -38.4,85.33334 -85.33333,85.33334 H 85.333333 C 38.400003,853.33334 3e-6,814.93334 3e-6,768 V 85.333337 C 3e-6,38.399997 38.400003,0 85.333333,0 M 341.33333,85.333337 c -141.22667,0 -255.999997,114.773333 -255.999997,256.000003 0,141.22666 114.773327,256 260.266667,256 L 308.05333,502.18667 C 296.53333,481.70667 303.36,455.68 323.84,443.73334 L 360.53333,422.4 c 20.48,-11.52 46.50667,-4.69333 58.45333,15.78667 l 81.92,103.25333 c 58.88,-46.93333 96.42667,-119.04 96.42667,-200.10666 0,-141.22667 -114.77333,-256.000003 -256,-256.000003 m 0,213.333333 C 364.8,298.66667 384,317.86667 384,341.33334 384,364.8 364.8,384 341.33333,384 c -23.46667,0 -42.66667,-19.2 -42.66667,-42.66666 0,-23.46667 19.2,-42.66667 42.66667,-42.66667 M 128,682.66667 c -23.46667,0 -42.666667,19.2 -42.666667,42.66667 C 85.333333,748.8 104.53333,768 128,768 c 23.46666,0 42.66666,-19.2 42.66666,-42.66666 0,-23.46667 -19.2,-42.66667 -42.66666,-42.66667 M 345.17333,480.85334 451.41333,750.08 561.92,686.08 381.86666,459.52 Z"
     p-id="11705"
     fill="#eceff4"
     id="path971"
     style="fill:#e0def4;fill-opacity:1" />
</svg>
