<?xml version="1.0" encoding="UTF-8" standalone="no"?>
<!-- Uploaded to: SVG Repo, www.svgrepo.com, Generator: SVG Repo Mixer Tools -->

<svg
   width="800"
   height="586.30139"
   viewBox="-3.9 0 29.2 21.400001"
   id="Layer_1"
   version="1.1"
   xml:space="preserve"
   sodipodi:docname="ssd.svg"
   inkscape:version="1.3 (0e150ed, 2023-07-21)"
   xmlns:inkscape="http://www.inkscape.org/namespaces/inkscape"
   xmlns:sodipodi="http://sodipodi.sourceforge.net/DTD/sodipodi-0.dtd"
   xmlns="http://www.w3.org/2000/svg"
   xmlns:svg="http://www.w3.org/2000/svg"><defs
   id="defs59" /><sodipodi:namedview
   id="namedview59"
   pagecolor="#ffffff"
   bordercolor="#999999"
   borderopacity="1"
   inkscape:showpageshadow="2"
   inkscape:pageopacity="0"
   inkscape:pagecheckerboard="0"
   inkscape:deskcolor="#d1d1d1"
   showgrid="false"
   inkscape:zoom="1.01"
   inkscape:cx="400"
   inkscape:cy="293.06931"
   inkscape:window-width="1912"
   inkscape:window-height="1009"
   inkscape:window-x="0"
   inkscape:window-y="33"
   inkscape:window-maximized="1"
   inkscape:current-layer="Layer_1" />&#10;&#10;<style
   type="text/css"
   id="style1">&#10;	.st0{fill:#656766;}&#10;	.st1{fill:#FFFFFF;}&#10;	.st2{fill:#53B2E4;}&#10;	.st3{fill:#E8E4E7;}&#10;	.st4{fill:#4D4C4D;}&#10;	.st5{fill:#ED6F62;}&#10;	.st6{fill:#FFCA65;}&#10;	.st7{fill:#BABABA;}&#10;	.st8{fill:#D3D3D3;}&#10;</style>&#10;&#10;<g
   id="g59"
   transform="rotate(90,12.65,12.65)">&#10;&#10;<g
   id="g20">&#10;&#10;<path
   class="st0"
   d="M 19.3,29.2 H 2.1 C 0.9,29.2 0,28.3 0,27.1 V 2.1 C 0,0.9 0.9,0 2.1,0 h 17.2 c 1.2,0 2.1,0.9 2.1,2.1 V 27 c 0,1.2 -0.9,2.2 -2.1,2.2 z"
   id="path1" />&#10;&#10;<path
   class="st1"
   d="M 3.6,21.4 V 5.8 c 0,-1 0.8,-1.7 1.7,-1.7 h 10.6 c 1,0 1.7,0.8 1.7,1.7 v 15.6 c 0,1 -0.8,1.7 -1.7,1.7 H 5.3 c -0.9,0 -1.7,-0.8 -1.7,-1.7 z"
   id="path2" />&#10;&#10;<path
   class="st2"
   d="m 3.6,13.4 v 8 c 0,1 0.8,1.7 1.7,1.7 h 10.6 c 1,0 1.7,-0.8 1.7,-1.7 V 17.2 H 13.4 C 9.8,17.3 6.3,15.8 3.6,13.4 Z"
   id="path3" />&#10;&#10;<g
   id="g4">&#10;&#10;<circle
   class="st3"
   cx="19.799999"
   cy="1.8"
   r="0.5"
   id="circle3" />&#10;&#10;<circle
   class="st3"
   cx="19.799999"
   cy="27.4"
   r="0.5"
   id="circle4" />&#10;&#10;</g>&#10;&#10;<g
   id="g6">&#10;&#10;<circle
   class="st3"
   cx="1.7"
   cy="1.8"
   r="0.5"
   id="circle5" />&#10;&#10;<circle
   class="st3"
   cx="1.7"
   cy="27.4"
   r="0.5"
   id="circle6" />&#10;&#10;</g>&#10;&#10;<path
   class="st4"
   d="M 17,29.2 H 4.4 v -0.7 c 0,-0.3 0.3,-0.6 0.6,-0.6 h 11.4 c 0.3,0 0.6,0.3 0.6,0.6 z"
   id="path6" />&#10;&#10;<g
   id="g9">&#10;&#10;<path
   class="st5"
   d="M 5.5,9.4 5.9,8.8 C 6.2,9.1 6.6,9.3 7.1,9.3 7.5,9.3 7.8,9.1 7.8,8.9 7.8,8.2 5.6,8.7 5.6,7.3 5.6,6.7 6.1,6.2 7,6.2 7.6,6.2 8.1,6.4 8.5,6.7 L 8,7.3 C 7.7,7 7.3,6.9 6.9,6.9 6.6,6.9 6.4,7 6.4,7.3 6.4,7.9 8.6,7.5 8.6,8.9 8.6,9.6 8.1,10.1 7.1,10.1 6.4,10 5.8,9.8 5.5,9.4 Z"
   id="path7" />&#10;&#10;<path
   class="st5"
   d="M 8.9,9.4 9.3,8.8 c 0.3,0.3 0.7,0.5 1.2,0.5 0.4,0 0.7,-0.2 0.7,-0.4 C 11.2,8.2 9,8.7 9,7.3 9,6.7 9.5,6.2 10.4,6.2 c 0.6,0 1.1,0.2 1.5,0.5 L 11.5,7.3 C 11.2,7 10.8,6.9 10.4,6.9 10.1,6.9 9.9,7 9.9,7.3 c 0,0.6 2.2,0.2 2.2,1.6 0,0.7 -0.5,1.2 -1.5,1.2 C 9.7,10 9.2,9.8 8.9,9.4 Z"
   id="path8" />&#10;&#10;<path
   class="st5"
   d="M 12.5,10 V 6.3 H 14 c 1.2,0 2,0.7 2,1.9 0,1.1 -0.8,1.9 -2,1.9 z M 15.1,8.1 C 15.1,7.4 14.7,6.9 13.9,6.9 H 13.2 V 9.2 H 14 c 0.7,0.1 1.1,-0.5 1.1,-1.1 z"
   id="path9" />&#10;&#10;</g>&#10;&#10;<g
   id="g19">&#10;&#10;<rect
   class="st6"
   height="0.69999999"
   width="0.40000001"
   x="5.6999998"
   y="27.799999"
   id="rect9" />&#10;&#10;<rect
   class="st6"
   height="0.69999999"
   width="0.40000001"
   x="6.6999998"
   y="27.799999"
   id="rect10" />&#10;&#10;<rect
   class="st6"
   height="0.69999999"
   width="0.40000001"
   x="7.5999999"
   y="27.799999"
   id="rect11" />&#10;&#10;<rect
   class="st6"
   height="0.69999999"
   width="0.40000001"
   x="8.6000004"
   y="27.799999"
   id="rect12" />&#10;&#10;<rect
   class="st6"
   height="0.69999999"
   width="0.40000001"
   x="9.5"
   y="27.799999"
   id="rect13" />&#10;&#10;<rect
   class="st6"
   height="0.69999999"
   width="0.40000001"
   x="10.5"
   y="27.799999"
   id="rect14" />&#10;&#10;<rect
   class="st6"
   height="0.69999999"
   width="0.40000001"
   x="11.4"
   y="27.799999"
   id="rect15" />&#10;&#10;<rect
   class="st6"
   height="0.69999999"
   width="0.40000001"
   x="12.4"
   y="27.799999"
   id="rect16" />&#10;&#10;<rect
   class="st6"
   height="0.69999999"
   width="0.40000001"
   x="13.4"
   y="27.799999"
   id="rect17" />&#10;&#10;<rect
   class="st6"
   height="0.69999999"
   width="0.40000001"
   x="14.3"
   y="27.799999"
   id="rect18" />&#10;&#10;<rect
   class="st6"
   height="0.69999999"
   width="0.40000001"
   x="15.3"
   y="27.799999"
   id="rect19" />&#10;&#10;</g>&#10;&#10;</g>&#10;&#10;<g
   id="g58">&#10;&#10;<path
   class="st7"
   d="M 19.3,29.2 H 2.1 C 0.9,29.2 0,28.3 0,27.1 V 4.2 C 0,3 0.9,2.1 2.1,2.1 h 17.2 c 1.2,0 2.1,0.9 2.1,2.1 v 22.9 c 0,1.1 -0.9,2.1 -2.1,2.1 z"
   id="path20" />&#10;&#10;<path
   class="st8"
   d="M 19.3,27.2 H 2.1 C 0.9,27.2 0,26.3 0,25.1 V 2.1 C 0,0.9 0.9,0 2.1,0 h 17.2 c 1.2,0 2.1,0.9 2.1,2.1 V 25 c 0,1.2 -0.9,2.2 -2.1,2.2 z"
   id="path21" />&#10;&#10;<path
   class="st3"
   d="M 3,22.7 V 4.5 C 3,3.7 3.7,3 4.5,3 h 12.4 c 0.8,0 1.5,0.7 1.5,1.5 v 18.2 c 0,0.8 -0.7,1.5 -1.5,1.5 H 4.5 C 3.7,24.1 3,23.5 3,22.7 Z"
   id="path22" />&#10;&#10;<path
   class="st5"
   d="m 18.4,10.5 v -6 C 18.4,3.7 17.7,3 16.9,3 H 4.5 C 3.7,3 3,3.7 3,4.5 v 6 z"
   id="path23" />&#10;&#10;<g
   id="g24">&#10;&#10;<circle
   class="st0"
   cx="19.700001"
   cy="1.8"
   r="0.5"
   id="circle23" />&#10;&#10;<circle
   class="st0"
   cx="19.700001"
   cy="25.299999"
   r="0.5"
   id="circle24" />&#10;&#10;</g>&#10;&#10;<g
   id="g26">&#10;&#10;<circle
   class="st0"
   cx="1.6"
   cy="1.8"
   r="0.5"
   id="circle25" />&#10;&#10;<circle
   class="st0"
   cx="1.6"
   cy="25.299999"
   r="0.5"
   id="circle26" />&#10;&#10;</g>&#10;&#10;<rect
   class="st0"
   height="1.1"
   width="11.4"
   x="5"
   y="28.1"
   id="rect26" />&#10;&#10;<g
   id="g28">&#10;&#10;<path
   class="st1"
   d="M 5.5,8.1 5.9,7.5 C 6.2,7.8 6.6,8 7.1,8 7.5,8 7.8,7.8 7.8,7.6 7.8,6.9 5.6,7.4 5.6,6 5.6,5.4 6.1,4.9 7,4.9 7.6,4.9 8.1,5.1 8.5,5.4 L 8.1,6 C 7.8,5.7 7.4,5.6 7,5.6 6.7,5.6 6.5,5.7 6.5,6 6.5,6.6 8.7,6.2 8.7,7.6 8.7,8.3 8.2,8.8 7.2,8.8 6.3,8.7 5.8,8.5 5.5,8.1 Z"
   id="path26" />&#10;&#10;<path
   class="st1"
   d="M 8.8,8.1 9.2,7.5 C 9.5,7.8 9.9,8 10.4,8 10.8,8 11.1,7.8 11.1,7.6 11.1,6.9 8.9,7.4 8.9,6 c 0,-0.6 0.5,-1.1 1.4,-1.1 0.6,0 1.1,0.2 1.5,0.5 L 11.4,6 C 11.1,5.7 10.7,5.6 10.3,5.6 10,5.6 9.8,5.7 9.8,6 9.8,6.6 12,6.2 12,7.6 12,8.3 11.5,8.8 10.5,8.8 9.7,8.7 9.2,8.5 8.8,8.1 Z"
   id="path27" />&#10;&#10;<path
   class="st1"
   d="M 12.4,8.6 V 4.9 h 1.5 c 1.2,0 2,0.7 2,1.9 0,1.1 -0.8,1.9 -2,1.9 h -1.5 z m 2.7,-1.8 c 0,-0.7 -0.4,-1.2 -1.2,-1.2 h -0.7 v 2.3 h 0.7 c 0.8,0 1.2,-0.5 1.2,-1.1 z"
   id="path28" />&#10;&#10;</g>&#10;&#10;<g
   id="g47">&#10;&#10;<g
   id="g29">&#10;&#10;<rect
   class="st6"
   height="0.69999999"
   width="0.40000001"
   x="5.1999998"
   y="28.1"
   id="rect28" />&#10;&#10;<rect
   class="st6"
   height="0.69999999"
   width="0.40000001"
   x="5.8000002"
   y="28.1"
   id="rect29" />&#10;&#10;</g>&#10;&#10;<g
   id="g30">&#10;&#10;<rect
   class="st6"
   height="0.69999999"
   width="0.40000001"
   x="6.3000002"
   y="28.1"
   id="rect30" />&#10;&#10;</g>&#10;&#10;<g
   id="g31">&#10;&#10;<rect
   class="st6"
   height="0.69999999"
   width="0.40000001"
   x="6.9000001"
   y="28.1"
   id="rect31" />&#10;&#10;</g>&#10;&#10;<g
   id="g32">&#10;&#10;<rect
   class="st6"
   height="0.69999999"
   width="0.40000001"
   x="7.5"
   y="28.1"
   id="rect32" />&#10;&#10;</g>&#10;&#10;<g
   id="g33">&#10;&#10;<rect
   class="st6"
   height="0.69999999"
   width="0.40000001"
   x="8"
   y="28.1"
   id="rect33" />&#10;&#10;</g>&#10;&#10;<g
   id="g34">&#10;&#10;<rect
   class="st6"
   height="0.69999999"
   width="0.40000001"
   x="8.6000004"
   y="28.1"
   id="rect34" />&#10;&#10;</g>&#10;&#10;<g
   id="g35">&#10;&#10;<rect
   class="st6"
   height="0.69999999"
   width="0.40000001"
   x="9.1000004"
   y="28.1"
   id="rect35" />&#10;&#10;</g>&#10;&#10;<g
   id="g36">&#10;&#10;<rect
   class="st6"
   height="0.69999999"
   width="0.40000001"
   x="9.6999998"
   y="28.1"
   id="rect36" />&#10;&#10;</g>&#10;&#10;<g
   id="g37">&#10;&#10;<rect
   class="st6"
   height="0.69999999"
   width="0.40000001"
   x="10.2"
   y="28.1"
   id="rect37" />&#10;&#10;</g>&#10;&#10;<g
   id="g38">&#10;&#10;<rect
   class="st6"
   height="0.69999999"
   width="0.40000001"
   x="10.8"
   y="28.1"
   id="rect38" />&#10;&#10;</g>&#10;&#10;<g
   id="g39">&#10;&#10;<rect
   class="st6"
   height="0.69999999"
   width="0.40000001"
   x="11.3"
   y="28.1"
   id="rect39" />&#10;&#10;</g>&#10;&#10;<g
   id="g40">&#10;&#10;<rect
   class="st6"
   height="0.69999999"
   width="0.40000001"
   x="11.9"
   y="28.1"
   id="rect40" />&#10;&#10;</g>&#10;&#10;<g
   id="g41">&#10;&#10;<rect
   class="st6"
   height="0.69999999"
   width="0.40000001"
   x="12.4"
   y="28.1"
   id="rect41" />&#10;&#10;</g>&#10;&#10;<g
   id="g42">&#10;&#10;<rect
   class="st6"
   height="0.69999999"
   width="0.40000001"
   x="13.5"
   y="28.1"
   id="rect42" />&#10;&#10;</g>&#10;&#10;<g
   id="g43">&#10;&#10;<rect
   class="st6"
   height="0.69999999"
   width="0.40000001"
   x="14.1"
   y="28.1"
   id="rect43" />&#10;&#10;</g>&#10;&#10;<g
   id="g44">&#10;&#10;<rect
   class="st6"
   height="0.69999999"
   width="0.40000001"
   x="14.6"
   y="28.1"
   id="rect44" />&#10;&#10;</g>&#10;&#10;<g
   id="g45">&#10;&#10;<rect
   class="st6"
   height="0.69999999"
   width="0.40000001"
   x="15.2"
   y="28.1"
   id="rect45" />&#10;&#10;</g>&#10;&#10;<g
   id="g46">&#10;&#10;<rect
   class="st6"
   height="0.69999999"
   width="0.40000001"
   x="15.8"
   y="28.1"
   id="rect46" />&#10;&#10;</g>&#10;&#10;</g>&#10;&#10;<g
   id="g57">&#10;&#10;<rect
   class="st0"
   height="2.2"
   width="0.2"
   x="7"
   y="15.6"
   id="rect47" />&#10;&#10;<rect
   class="st0"
   height="2.2"
   width="0.80000001"
   x="7.5"
   y="15.6"
   id="rect48" />&#10;&#10;<rect
   class="st0"
   height="2.2"
   width="0.60000002"
   x="8.5"
   y="15.6"
   id="rect49" />&#10;&#10;<rect
   class="st0"
   height="2.2"
   width="0.30000001"
   x="9.3000002"
   y="15.6"
   id="rect50" />&#10;&#10;<rect
   class="st0"
   height="2.2"
   width="1"
   x="9.8999996"
   y="15.6"
   id="rect51" />&#10;&#10;<rect
   class="st0"
   height="2.2"
   width="0.40000001"
   x="11.1"
   y="15.6"
   id="rect52" />&#10;&#10;<rect
   class="st0"
   height="2.2"
   width="0.2"
   x="11.7"
   y="15.6"
   id="rect53" />&#10;&#10;<rect
   class="st0"
   height="2.2"
   width="0.69999999"
   x="12.1"
   y="15.6"
   id="rect54" />&#10;&#10;<rect
   class="st0"
   height="2.2"
   width="0.30000001"
   x="12.9"
   y="15.6"
   id="rect55" />&#10;&#10;<rect
   class="st0"
   height="2.2"
   width="0.2"
   x="13.4"
   y="15.6"
   id="rect56" />&#10;&#10;<rect
   class="st0"
   height="2.2"
   width="0.60000002"
   x="13.8"
   y="15.6"
   id="rect57" />&#10;&#10;</g>&#10;&#10;</g>&#10;&#10;</g>&#10;&#10;</svg>
