<?xml version="1.0" encoding="UTF-8" standalone="no"?>
<svg
   t="1731596390171"
   class="icon"
   viewBox="0 0 824.6322 954.49469"
   version="1.1"
   p-id="126447"
   width="103.07903"
   height="119.31184"
   id="svg3"
   sodipodi:docname="usb.svg"
   inkscape:version="1.4 (e7c3feb, 2024-10-09)"
   xmlns:inkscape="http://www.inkscape.org/namespaces/inkscape"
   xmlns:sodipodi="http://sodipodi.sourceforge.net/DTD/sodipodi-0.dtd"
   xmlns="http://www.w3.org/2000/svg"
   xmlns:svg="http://www.w3.org/2000/svg">
  <defs
     id="defs3" />
  <sodipodi:namedview
     id="namedview3"
     pagecolor="#ffffff"
     bordercolor="#000000"
     borderopacity="0.25"
     inkscape:showpageshadow="2"
     inkscape:pageopacity="0.0"
     inkscape:pagecheckerboard="0"
     inkscape:deskcolor="#d1d1d1"
     showgrid="false"
     inkscape:zoom="7.15625"
     inkscape:cx="47.091703"
     inkscape:cy="58.270742"
     inkscape:window-width="1916"
     inkscape:window-height="1163"
     inkscape:window-x="0"
     inkscape:window-y="33"
     inkscape:window-maximized="1"
     inkscape:current-layer="svg3" />
  <path
     d="m 743.03803,954.41119 c -19.82054,-1.29434 -35.05766,-17.21959 -34.01318,-35.7458 a 15801.836,15801.836 0 0 1 39.88684,-178.82316 c 1.97428,-30.87565 -5.8286,-55.296 -23.47008,-72.44186 -30.01958,-29.06522 -36.92953,-15.90067 -37.38009,-15.91706 a 34.951168,34.951168 0 0 1 -0.9257,-0.0369 c -46.2807,-2.31834 -78.83981,11.6695 -98.97574,42.00448 -15.61805,23.51514 -18.37056,48.75878 -18.68595,51.97824 -4.73908,128.27443 -110.1865,161.62816 -165.40058,163.17235 l -0.59392,0.004 c -120.32,1.06905 -158.93299,-81.73568 -162.6153,-127.12346 a 52.752384,52.752384 0 0 1 -0.0655,-1.16736 l -1.536,-40.52582 c -0.72909,-18.53031 15.62214,-34.21799 36.51993,-34.85287 20.90189,-0.63488 38.16653,14.0288 38.56794,32.5673 l 0.90931,39.72301 c 1.08135,11.59987 10.3465,64.64717 87.40864,64.2048 15.23303,-0.78234 90.37415,-7.54893 91.82413,-98.33677 0.004,-0.3113 0.008,-0.63078 0.0205,-0.94618 2.17907,-56.18892 46.05133,-164.54451 195.67002,-157.81068 9.14636,0.39321 40.93952,-10.63732 91.2384,37.9863 32.48947,31.5351 46.50598,73.02349 42.56153,122.85542 A 15829.086,15829.086 0 0 0 781.4135,923.38794 c -1.36396,18.50573 -18.55078,32.31331 -38.37542,31.02311 z"
     fill="#8f8595"
     p-id="126448"
     id="path1" />
  <path
     d="M 446.99144,0.02679707 C 320.86331,-0.35822693 194.72289,3.4059971 68.774989,11.307181 c -16.25293,1.019904 -28.62694,13.545472 -27.63981,27.87328 l 18.71463,275.611649 c 0.98713,14.33191 14.18854,25.0962 29.4912,24.14183 A 5430.4072,5430.4072 0 0 1 445.99201,328.29253 c 15.32724,0.0451 27.84871,-11.48928 27.98388,-25.85395 l 2.2528,-276.234247 C 476.35976,11.835565 463.27304,0.07185307 446.99144,0.02679707 Z"
     fill="#dad6dc"
     p-id="126449"
     id="path2" />
  <path
     d="m 532.83541,285.90712 c 0.28262,-14.35648 -12.0832,-26.25126 -27.63162,-26.46425 -159.78086,-2.19956 -319.63546,2.56409 -479.100931,14.29504 -15.51974,1.13868 -27.1646704,13.75027 -26.02598044,28.06988 L 25.762889,628.20165 a 25.92768,25.92768 0 0 0 10.0434,18.50163 C 56.728649,683.81714 114.642,734.89426 279.49371,729.25407 516.72993,724.41259 526.44565,626.3052 526.65864,613.25944 Z M 192.32264,185.02674 c -23.83872,1.01581 -47.67744,2.18317 -71.50797,3.50208 l -4.14515,-74.7561 c 24.15001,-1.33939 48.30822,-2.52313 72.47053,-3.55123 1.06086,24.93645 2.12582,49.8688 3.18259,74.80525 z m 199.34003,-9.89594 c -25.44026,0.17203 -50.87642,0.5161 -76.31667,1.03629 l -1.51143,-73.97376 c 25.77204,-0.52838 51.54816,-0.87654 77.32839,-1.05267 z"
     fill="#8f8595"
     p-id="126450"
     id="path3" />
</svg>
