<?xml version="1.0" encoding="UTF-8" standalone="no"?>
<svg
   t="1677855087862"
   class="icon"
   viewBox="0 0 948.52953 685.27539"
   version="1.1"
   p-id="2944"
   width="185.25967"
   height="133.84285"
   id="svg16936"
   sodipodi:docname="wifi-2.svg"
   inkscape:version="1.3.2 (091e20e, 2023-11-25)"
   xmlns:inkscape="http://www.inkscape.org/namespaces/inkscape"
   xmlns:sodipodi="http://sodipodi.sourceforge.net/DTD/sodipodi-0.dtd"
   xmlns="http://www.w3.org/2000/svg"
   xmlns:svg="http://www.w3.org/2000/svg">
  <defs
     id="defs16940">
    <clipPath
       clipPathUnits="userSpaceOnUse"
       id="clipPath17324">
      <path
         id="path17326"
         style="fill:#ff0000;fill-opacity:1;fill-rule:nonzero;stroke:none;stroke-width:5.12"
         d="m 453,193.54 c -39.55456,-0.63039 -79.10577,-0.0742 -118.65,0.99 -24.91186,0.80155 -49.76938,2.68072 -74.6,4.83 -0.28406,0.0935 -0.39045,0.10445 -0.68,0.19999 -27.85519,9.19189 -54.89835,20.54558 -82.42,30.65 -2.81829,2.88171 -5.44932,5.94325 -8.31,8.77999 -20.02538,19.50848 -40.08374,38.98633 -61.43,57.07001 -15.43307,13.07426 -26.840885,22.42942 -44.240002,32.64 -5.168701,3.03324 -10.808668,5.19353 -16.209998,7.78999 -5.263639,1.88604 -10.434408,4.04361 -15.79,5.65002 -8.921618,2.67604 -21.1541503,4.89535 -30.67,5.1 V 685.28 H 948.53002 V 373.99 c -0.192,0.0596 -0.24576,0.0793 -0.43981,0.13998 -6.66107,0.0686 -13.33473,0.67311 -19.98003,0.21002 -4.56837,-0.31836 -9.05001,-1.45873 -13.49995,-2.53999 -11.52733,-2.80088 -22.2953,-7.99789 -33.12,-12.69 -15.65819,-6.97132 -31.48667,-13.64745 -46.54004,-21.88001 -3.07737,-1.8039 -6.21204,-3.52414 -9.24001,-5.40999 -12.22687,-7.6153 -23.37177,-16.76008 -34.25997,-26.15 C 776.23782,292.6959 761.26182,279.44263 746.8202,265.61 c -11.33363,-10.82846 -22.37973,-22.07778 -35.14,-31.26 -8.43315,-5.87372 -16.9218,-11.74359 -25.89998,-16.75999 -6.07513,-2.67579 -12.23741,-5.22082 -18.71001,-6.78001 -10.90007,-2.71791 -21.8323,-5.42227 -33.04003,-6.54 -23.14849,-2.36398 -46.39903,-3.51397 -69.60998,-5.08999 -37.11022,-2.40973 -74.24191,-4.60652 -111.41999,-5.64001 z M 41,276.98 c -0.07156,0.17597 -0.199752,0.31257 -0.269998,0.48998 -0.187904,0.72526 -0.57643,1.421 -0.56,2.17001 0.007,0.31805 0.481592,-0.44089 0.59,-0.74001 0.21484,-0.59278 0.07427,-1.29017 0.24,-1.92 z" />
    </clipPath>
    <clipPath
       clipPathUnits="userSpaceOnUse"
       id="clipPath17348">
      <path
         id="path17350"
         style="fill:#ff0000;fill-opacity:1;fill-rule:nonzero;stroke:none;stroke-width:5.12"
         d="m 0,0 v 685.28 h 187.67 c -0.0516,-0.0307 -0.10839,-0.0568 -0.16,-0.0901 -13.54766,-8.67492 -34.74158,-23.71625 -46.32,-35.49998 -7.04513,-7.1701 -12.85095,-15.46271 -19.28,-23.19002 -4.50013,-9.05139 -10.41015,-17.52545 -13.5,-27.14998 -3.2886,-10.24368 -5.64602,-21.06357 -5.43,-31.82003 0.40822,-20.32548 6.5496,-39.04502 18.67,-54.76997 -9.83228,-11.28154 -17.4983,-22.51503 -23.499999,-36.91001 -3.121905,-7.48782 -4.826814,-15.48465 -7.240003,-23.23 -2.53825,-18.87459 -4.896988,-27.24936 -2.48,-46.47 1.101906,-8.7627 2.978145,-17.46583 5.630003,-25.89 5.585326,-17.74296 16.440199,-33.11658 27.929999,-47.42 3.27671,-3.71707 6.47253,-7.50572 9.83,-11.15 19.091,-20.72185 40.41472,-39.4551 64.12,-54.74 5.69968,-3.35417 11.28919,-6.90227 17.1,-10.06 33.52179,-18.2165 70.09181,-30.23731 107.26,-38.37 8.22405,-1.58154 16.43193,-3.28895 24.68,-4.74 16.34146,-2.87487 32.77266,-5.18056 49.24,-7.17 0.0107,-0.005 0.0189,-0.0149 0.0302,-0.02 11.9496,-5.40128 24.00862,-10.55585 36.1,-15.63 14.15042,-6.02208 28.6113,-11.20199 43.33,-15.63999 12.72918,-3.86582 25.95662,-6.16635 39.30001,-5.28 3.03755,0.20178 6.05415,0.66548 9.07997,0.99999 12.73062,1.91697 24.76103,6.57411 35.67001,13.39 3.72521,2.32752 6.19382,4.46422 8.83999,6.54 10.28818,-3.0135 20.84009,-4.85274 31.66003,-4.59999 6.76741,0.1581 11.20261,0.7996 17.80997,1.55999 13.31871,1.77891 26.59794,4.22518 39.47003,8.14 2.90545,0.88366 5.77372,1.88542 8.65997,2.83 17.79568,6.20896 34.27231,15.40761 50.23001,25.31001 14.98619,9.37882 28.67139,20.57036 41.92999,32.20999 12.6209,11.2262 24.62576,23.10588 36.43003,35.18 12.26199,12.44115 23.13134,26.25868 31.77999,41.46 1.95011,3.42759 3.67155,6.98127 5.50999,10.47 8.15012,17.91965 14.85404,37.17704 14.27,57.21 -0.59187,20.30226 -3.45891,27.27867 -8.64,43.99 0.6336,3.19698 1.73241,6.31631 1.88002,9.56 0.42393,9.32059 -1.2862,18.61202 -1.93004,27.92 -4.59986,9.78474 -7.1488,20.83581 -13.79999,29.36 -10.82849,13.87785 -25.19905,22.71006 -40.94996,27.33004 -1.08298,1.3911 -1.95492,2.93965 -3.05004,4.32 -4.65105,5.8625 -9.5596,11.5224 -14.33999,17.28 -5.06163,5.83562 -10.83725,10.9995 -16.04997,16.7 0.61384,4.36235 1.28819,8.75915 1.78995,12.96999 0.98453,8.26148 -1.45167,16.62797 -3.29999,24.73999 -1.40467,6.16504 -3.93744,12.03041 -6.40999,17.85001 -5.27365,12.41247 -10.81164,20.77092 -17.72001,32.35999 -4.09825,6.03335 -7.95694,12.23301 -12.29,18.10002 -0.52869,0.71582 -1.19562,1.3461 -1.72999,2.05998 H 948.53023 V 0 Z m 637.79,682.72 c -0.29337,0.26982 -0.59663,0.52982 -0.89001,0.8 -0.10445,0.56724 -0.35328,1.17826 -0.54,1.76 h 1.18999 c 0.0722,-0.84787 0.14592,-1.70363 0.24012,-2.56 z" />
    </clipPath>
  </defs>
  <sodipodi:namedview
     id="namedview16938"
     pagecolor="#ffffff"
     bordercolor="#000000"
     borderopacity="0.25"
     inkscape:showpageshadow="2"
     inkscape:pageopacity="0.0"
     inkscape:pagecheckerboard="0"
     inkscape:deskcolor="#d1d1d1"
     showgrid="false"
     inkscape:zoom="4.09"
     inkscape:cx="92.665037"
     inkscape:cy="66.992665"
     inkscape:window-width="1918"
     inkscape:window-height="1166"
     inkscape:window-x="0"
     inkscape:window-y="32"
     inkscape:window-maximized="1"
     inkscape:current-layer="svg16936" />
  <path
     d="M 62.075949,288.42057 C 70.21309,296.55771 82.20852,296.13714 89.92509,288 191.08166,180.42514 324.78681,123.84914 474.36395,123.84914 c 150.41828,0 284.56228,56.99657 385.28,164.57143 7.27771,7.296 18.87086,7.296 26.56914,-0.85943 l 57.01486,-56.99657 c 6.83886,-7.27772 6.83886,-16.71315 1.28,-23.57029 C 847.64852,87.844574 665.50452,-5.9999999e-6 474.36395,4.0000001e-6 283.22338,4.0000001e-6 101.07938,87.844574 4.2016629,206.99428 c -5.997714,6.85714 -5.577143,16.27429 1.28,23.58857 z M 233.50452,460.288 c 8.576,8.99657 19.712,8.13714 27.84914,-1.28 49.71886,-55.296 130.28572,-95.15886 213.01029,-94.29943 83.56571,-0.85943 163.712,40.28343 213.85143,95.57943 8.13714,8.55771 18.85257,8.55771 27.008,-0.43886 l 63.85371,-62.99429 c 6.85714,-6.85714 7.71657,-15.85371 1.28,-23.14971 C 718.22223,296.99657 602.9308,240.42057 474.36395,240.42057 c -128.58514,0 -243.85829,56.99657 -306.01143,133.30285 -6.41829,7.27772 -5.55886,15.83543 1.28,23.13143 z m 240.85943,224.98742 c 8.99657,0 17.13371,-4.71771 32.98743,-20.13257 L 607.64852,568.704 c 6.41829,-5.99772 7.71657,-15.41486 2.13943,-22.71086 -27.008,-34.70629 -77.568,-64.71314 -135.424,-64.71314 -59.15429,0 -110.57372,31.28685 -137.14286,67.29142 -3.85829,5.99772 -2.56,14.13486 3.84,20.13258 l 100.29714,96.43885 c 15.85372,15.41486 24.00915,20.13257 33.00572,20.13257 z"
     p-id="2945"
     fill="#eceff4"
     id="path16934"
     style="fill:#404666;fill-opacity:1"
     clip-path="url(#clipPath17348)" />
  <path
     d="M 62.075949,288.42057 C 70.21309,296.55771 82.20852,296.13714 89.92509,288 191.08166,180.42514 324.78681,123.84914 474.36395,123.84914 c 150.41828,0 284.56228,56.99657 385.28,164.57143 7.27771,7.296 18.87086,7.296 26.56914,-0.85943 l 57.01486,-56.99657 c 6.83886,-7.27772 6.83886,-16.71315 1.28,-23.57029 C 847.64852,87.844574 665.50452,-5.9999999e-6 474.36395,4.0000001e-6 283.22338,4.0000001e-6 101.07938,87.844574 4.2016629,206.99428 c -5.997714,6.85714 -5.577143,16.27429 1.28,23.58857 z M 233.50452,460.288 c 8.576,8.99657 19.712,8.13714 27.84914,-1.28 49.71886,-55.296 130.28572,-95.15886 213.01029,-94.29943 83.56571,-0.85943 163.712,40.28343 213.85143,95.57943 8.13714,8.55771 18.85257,8.55771 27.008,-0.43886 l 63.85371,-62.99429 c 6.85714,-6.85714 7.71657,-15.85371 1.28,-23.14971 C 718.22223,296.99657 602.9308,240.42057 474.36395,240.42057 c -128.58514,0 -243.85829,56.99657 -306.01143,133.30285 -6.41829,7.27772 -5.55886,15.83543 1.28,23.13143 z m 240.85943,224.98742 c 8.99657,0 17.13371,-4.71771 32.98743,-20.13257 L 607.64852,568.704 c 6.41829,-5.99772 7.71657,-15.41486 2.13943,-22.71086 -27.008,-34.70629 -77.568,-64.71314 -135.424,-64.71314 -59.15429,0 -110.57372,31.28685 -137.14286,67.29142 -3.85829,5.99772 -2.56,14.13486 3.84,20.13258 l 100.29714,96.43885 c 15.85372,15.41486 24.00915,20.13257 33.00572,20.13257 z"
     p-id="2945"
     fill="#eceff4"
     id="path17016"
     clip-path="url(#clipPath17324)"
     style="fill:#c8d3f5;fill-opacity:1" />
</svg>
