<?xml version="1.0" encoding="UTF-8" standalone="no"?>
<svg
   t="1677855087862"
   class="icon"
   viewBox="0 0 948.52953 685.27539"
   version="1.1"
   p-id="2944"
   width="185.25967"
   height="133.84285"
   id="svg16936"
   sodipodi:docname="wifi-1.svg"
   inkscape:version="1.3.2 (091e20e, 2023-11-25)"
   xmlns:inkscape="http://www.inkscape.org/namespaces/inkscape"
   xmlns:sodipodi="http://sodipodi.sourceforge.net/DTD/sodipodi-0.dtd"
   xmlns="http://www.w3.org/2000/svg"
   xmlns:svg="http://www.w3.org/2000/svg">
  <defs
     id="defs16940">
    <clipPath
       clipPathUnits="userSpaceOnUse"
       id="clipPath17182">
      <path
         id="path17184"
         style="fill:#ff0000;fill-opacity:1;fill-rule:nonzero;stroke:none;stroke-width:5.12"
         d="m 0,0 v 685.28 h 346.14 c -6.13266,-3.57903 -12.10555,-7.4538 -17.65,-12.06999 -5.44935,-4.53704 -10.70643,-9.42433 -15.1,-14.99003 -8.38612,-10.62339 -11.69614,-17.0946 -14.45,-24.22999 -5.13206,-3.58154 -10.05351,-7.47848 -13.9,-12.33997 -6.74968,-8.53084 -10.48816,-19.05817 -15.73,-28.59003 -1.09804,-9.1203 -3.51283,-18.17656 -3.29,-27.36 0.38415,-15.83124 6.39459,-31.78291 14.81,-44.96998 1.09468,-1.71535 2.65938,-3.16851 3.89,-4.82002 0.99043,-2.33492 1.91257,-4.70254 3.12,-6.92999 5.74561,-10.59946 14.06722,-20.1904 23.56,-27.6 8.70157,-6.79203 11.40778,-7.76346 20.59,-12.61 17.1564,-8.03371 34.87121,-10.71337 53.31,-7.45 3.91745,-2.43773 7.83619,-4.87381 11.9,-7.09 10.48175,-5.71619 16.11941,-7.92765 26.82,-12.62 4.14898,-1.5507 8.21622,-3.31643 12.44,-4.65 12.26662,-3.87294 24.41408,-6.18066 36.5,-6.15 10.29895,0.0261 20.55171,2.20131 30.81,6.1 4.58261,-0.88628 9.25569,-1.4582 14.01002,-1.52 16.94029,-0.22021 26.8184,3.9478 41.86998,8.74 4.66124,1.79057 9.34789,3.51525 13.98,5.38 16.17946,6.51339 34.25326,14.26878 48.76002,23.96 4.39214,2.93421 8.49259,6.27985 12.73999,9.42 4.09851,4.05347 8.60897,7.73227 12.29998,12.16 10.2423,12.28656 16.9751,26.22319 20.32,41.55001 19.55272,17.22849 29.94027,35.25796 28.57001,64.89001 -0.24986,5.40298 -1.68474,10.65083 -3.54002,15.79996 -0.0947,5.38276 0.70441,10.223 -0.28006,16.33004 -1.74649,10.83453 -6.92685,20.82626 -10.39002,31.23999 -4.57702,6.765 -8.82821,13.77367 -13.56001,20.41999 H 948.52992 V 0 Z" />
    </clipPath>
    <clipPath
       clipPathUnits="userSpaceOnUse"
       id="clipPath17194">
      <path
         id="path17196"
         style="fill:#ff0000;fill-opacity:1;fill-rule:nonzero;stroke:none;stroke-width:5.12"
         d="m 790.97001,0 c 16.32476,4.5584026 35.04543,11.137131 50.05998,20.56 2.64274,-6.948329 4.71096,-14.1805158 8.21002,-20.56 z m 144.90998,76.099999 c 0.52362,0.303206 0.92344,0.861583 1.39002,1.250002 -0.10188,-0.230708 -0.27545,-0.806226 -0.3799,-1.030001 -0.0102,0 -0.0102,5.1e-5 -0.0205,0 -0.26522,-0.0014 -0.70738,-0.199885 -0.99,-0.220006 z M 0,98.589998 V 104.37 C 2.031805,102.72276 3.7454705,100.75792 5.84,99.170002 3.7238572,99.166356 1.864134,98.877553 0,98.589998 Z M 59.619999,319.4 c -3.13213,1.45946 -5.968497,3.37054 -10.099999,4.55 -13.357897,3.8134 -26.916204,3.6786 -40.0999998,0.77 C 6.2662267,325.7671 3.2730499,327.39556 0,327.87 V 685.28 H 948.53002 V 410.16 c -4.90132,0.83674 -9.4677,1.60178 -14.89003,2.68 -9.41087,-0.81932 -18.88323,-1.09102 -28.22999,-2.46 -14.19029,-2.0784 -32.95703,-7.41469 -47.01,-11.73 -0.84664,1.52804 -2.31204,3.20656 -4.19,4.51 2.27266,6.54561 4.15503,13.24637 6.23001,19.87 -0.85908,9.03497 -0.0712,18.3879 -2.58002,27.11 -5.32526,18.51412 -19.21269,34.01857 -35.91997,42.96 -9.95451,5.32743 -13.83317,5.88505 -23.75004,8.55 -14.69015,3.39609 -29.75335,3.37973 -44.70999,2.53 -12.27198,-0.86683 -24.49178,-2.93707 -36.10998,-7.08 -2.62375,-0.93558 -5.17878,-2.03797 -7.77001,-3.06 -13.07433,-5.75379 -24.8339,-14.19337 -34.21,-25.01 -5.98067,-6.89956 -7.2663,-9.4201 -11.90999,-16.69 -1.03101,-1.61534 -1.84617,-3.3536 -2.77002,-5.03 -6.54863,-2.54491 -13.07392,-5.16645 -19.61001,-7.75 -0.80404,-1.00629 -1.84776,-1.88515 -2.70996,-2.86 -1.26997,-0.28022 -2.39913,-0.81071 -3.61001,-1.19 -0.74322,-0.12979 -0.95079,-0.22892 -1.73999,-0.35999 -6.47521,-1.07551 -13.02384,-1.54657 -19.53003,-2.38999 -0.81295,-0.0555 -1.62509,-0.12288 -2.43999,-0.16999 -12.40816,-0.71768 -24.83108,-1.13652 -37.24999,-1.61 -18.61279,-0.58721 -37.24375,-1.27602 -55.87001,-1.09999 -5.30048,0.0502 -10.60334,0.22277 -15.9,0.42998 -3.64839,0.14269 -7.28892,0.59279 -10.94,0.62 -0.23956,0.002 -0.31872,-0.35282 -0.48,-0.53001 0.55592,-0.4971 1.40375,-0.8527 2,-1.33 -6.02978,0.2813 -12.05549,0.58991 -18.08,0.98001 -0.14346,1.93291 -0.26189,3.86855 -0.51,5.78999 -0.12094,0.93643 -1.63438,0.13338 -2.82001,-0.23997 -54.95584,43.80156 -76.3008,43.6904 -79.3,24.74 -4.66044,3.46152 -7.35256,5.52513 -23.5,17.28 -24.26985,17.74235 -49.52714,34.05562 -74.26,51.12999 -12.70552,8.77133 -20.18418,14.10652 -32.69,22.94 -20.23218,13.76149 -39.67586,28.79427 -60.62999,41.48004 -3.7112,2.24676 -7.51084,4.33439 -11.27,6.5 -14.61632,8.13419 -30.25096,14.12224 -45.79001,20.19998 -115.41117,45.14043 -161.001442,-71.44028 -45.589997,-116.58001 9.927877,-3.883 19.973577,-7.55191 29.470007,-12.43 1.65615,-0.92087 3.07806,-2.2106 4.71,-3.17 -5.42074,-4.23 -10.78189,-8.56566 -16.39,-12.47 1.71459,-17.04458 1.54298,-34.39345 5.14999,-51.14 0.88017,-4.08647 4.36986,-7.04534 7.16001,-10.29 -14.53813,-6.92566 -29.892872,-14.35667 -35.300007,-28.62 -10.328376,-27.24492 -9.010217,-45.44699 -1.159998,-61.09 -10.777907,-1.36081 -21.657108,-2.22996 -32.210001,-4.68 z M 391.92,460.34 c 2.63859,-1.95979 4.44663,-3.20967 13.3,-9.79 6.15727,-4.57645 12.52387,-8.89568 18.71,-13.46 -6.79379,0.42286 -10.40082,-0.12134 -14.82,-0.41999 -2.38844,0.34503 -4.80505,0.47124 -7.19,0.84 -2.37305,0.44027 -4.74315,0.89737 -7.12,1.32 -1.94503,8.12447 -3.74683,16.03295 -2.88,21.51 z m 32.01,-23.25 c 0.79766,-0.0497 0.91691,0.1045 1.74,0.0502 3.37628,-0.36537 8.01215,-1.10845 12.71,-1.66 -3.14682,0.0821 -6.29526,0.004 -9.44,0.13 -1.07009,0.0607 -2.14032,0.11013 -3.21,0.18002 -0.59706,0.43817 -1.20407,0.8603 -1.8,1.3 z m 14.45,-1.61 c 7.8404,-0.20459 15.6787,-0.45066 23.52,-0.32998 2.28343,0.0353 4.56852,0.11817 6.85,0.22 -2.72154,-0.34488 -5.5001,-0.51511 -8.13,-1.28999 -0.76874,-0.22651 -1.25701,-0.5603 -2.01,-0.79001 -2.29871,0.0516 -4.74565,-0.008 -6.62,0.41001 -3.48471,0.77608 -8.57938,1.18939 -13.61,1.78001 z m 30.37,-0.10998 c 0.0772,0.01 0.15293,0.0297 0.22999,0.0399 0.74367,0.0971 1.29825,-0.1066 2.24,0.19 0.0108,-0.009 0.0189,-0.0113 0.0302,-0.02 0.31728,0.0154 1.27614,0.081 0.96,0.0502 -0.98082,-0.096 -1.96557,-0.1944 -2.95,-0.23997 -0.16989,-0.008 -0.34013,-0.0123 -0.51001,-0.02 z M 901.84002,377.76 c 0.0809,0.18396 0.19047,0.37617 0.26983,0.56 0.83297,1.92745 6.65636,4.86859 5.44998,3.15 -0.77046,-1.0976 -3.50203,-2.17241 -5.71996,-3.71 z" />
    </clipPath>
  </defs>
  <sodipodi:namedview
     id="namedview16938"
     pagecolor="#ffffff"
     bordercolor="#000000"
     borderopacity="0.25"
     inkscape:showpageshadow="2"
     inkscape:pageopacity="0.0"
     inkscape:pagecheckerboard="0"
     inkscape:deskcolor="#d1d1d1"
     showgrid="false"
     inkscape:zoom="4.09"
     inkscape:cx="92.665037"
     inkscape:cy="66.992665"
     inkscape:window-width="1918"
     inkscape:window-height="1166"
     inkscape:window-x="0"
     inkscape:window-y="32"
     inkscape:window-maximized="1"
     inkscape:current-layer="svg16936" />
  <path
     d="M 62.075949,288.42057 C 70.21309,296.55771 82.20852,296.13714 89.92509,288 191.08166,180.42514 324.78681,123.84914 474.36395,123.84914 c 150.41828,0 284.56228,56.99657 385.28,164.57143 7.27771,7.296 18.87086,7.296 26.56914,-0.85943 l 57.01486,-56.99657 c 6.83886,-7.27772 6.83886,-16.71315 1.28,-23.57029 C 847.64852,87.844574 665.50452,-5.9999999e-6 474.36395,4.0000001e-6 283.22338,4.0000001e-6 101.07938,87.844574 4.2016629,206.99428 c -5.997714,6.85714 -5.577143,16.27429 1.28,23.58857 z M 233.50452,460.288 c 8.576,8.99657 19.712,8.13714 27.84914,-1.28 49.71886,-55.296 130.28572,-95.15886 213.01029,-94.29943 83.56571,-0.85943 163.712,40.28343 213.85143,95.57943 8.13714,8.55771 18.85257,8.55771 27.008,-0.43886 l 63.85371,-62.99429 c 6.85714,-6.85714 7.71657,-15.85371 1.28,-23.14971 C 718.22223,296.99657 602.9308,240.42057 474.36395,240.42057 c -128.58514,0 -243.85829,56.99657 -306.01143,133.30285 -6.41829,7.27772 -5.55886,15.83543 1.28,23.13143 z m 240.85943,224.98742 c 8.99657,0 17.13371,-4.71771 32.98743,-20.13257 L 607.64852,568.704 c 6.41829,-5.99772 7.71657,-15.41486 2.13943,-22.71086 -27.008,-34.70629 -77.568,-64.71314 -135.424,-64.71314 -59.15429,0 -110.57372,31.28685 -137.14286,67.29142 -3.85829,5.99772 -2.56,14.13486 3.84,20.13258 l 100.29714,96.43885 c 15.85372,15.41486 24.00915,20.13257 33.00572,20.13257 z"
     p-id="2945"
     fill="#eceff4"
     id="path16934"
     style="fill:#404666;fill-opacity:1"
     clip-path="url(#clipPath17182)" />
  <path
     d="M 62.075949,288.42057 C 70.21309,296.55771 82.20852,296.13714 89.92509,288 191.08166,180.42514 324.78681,123.84914 474.36395,123.84914 c 150.41828,0 284.56228,56.99657 385.28,164.57143 7.27771,7.296 18.87086,7.296 26.56914,-0.85943 l 57.01486,-56.99657 c 6.83886,-7.27772 6.83886,-16.71315 1.28,-23.57029 C 847.64852,87.844574 665.50452,-5.9999999e-6 474.36395,4.0000001e-6 283.22338,4.0000001e-6 101.07938,87.844574 4.2016629,206.99428 c -5.997714,6.85714 -5.577143,16.27429 1.28,23.58857 z M 233.50452,460.288 c 8.576,8.99657 19.712,8.13714 27.84914,-1.28 49.71886,-55.296 130.28572,-95.15886 213.01029,-94.29943 83.56571,-0.85943 163.712,40.28343 213.85143,95.57943 8.13714,8.55771 18.85257,8.55771 27.008,-0.43886 l 63.85371,-62.99429 c 6.85714,-6.85714 7.71657,-15.85371 1.28,-23.14971 C 718.22223,296.99657 602.9308,240.42057 474.36395,240.42057 c -128.58514,0 -243.85829,56.99657 -306.01143,133.30285 -6.41829,7.27772 -5.55886,15.83543 1.28,23.13143 z m 240.85943,224.98742 c 8.99657,0 17.13371,-4.71771 32.98743,-20.13257 L 607.64852,568.704 c 6.41829,-5.99772 7.71657,-15.41486 2.13943,-22.71086 -27.008,-34.70629 -77.568,-64.71314 -135.424,-64.71314 -59.15429,0 -110.57372,31.28685 -137.14286,67.29142 -3.85829,5.99772 -2.56,14.13486 3.84,20.13258 l 100.29714,96.43885 c 15.85372,15.41486 24.00915,20.13257 33.00572,20.13257 z"
     p-id="2945"
     fill="#eceff4"
     id="path17016"
     clip-path="url(#clipPath17194)"
     style="fill:#c8d3f5;fill-opacity:1" />
</svg>
