<?xml version="1.0" encoding="UTF-8" standalone="no"?>
<svg
   t="1675531262522"
   class="icon"
   viewBox="0 0 626.44 522.06453"
   version="1.1"
   p-id="2340"
   width="122.35156"
   height="101.96573"
   id="svg3569"
   sodipodi:docname="vol-70.svg"
   inkscape:version="1.2.2 (b0a8486, 2022-12-01)"
   xmlns:inkscape="http://www.inkscape.org/namespaces/inkscape"
   xmlns:sodipodi="http://sodipodi.sourceforge.net/DTD/sodipodi-0.dtd"
   xmlns="http://www.w3.org/2000/svg"
   xmlns:svg="http://www.w3.org/2000/svg">
  <defs
     id="defs3573" />
  <sodipodi:namedview
     id="namedview3571"
     pagecolor="#ffffff"
     bordercolor="#000000"
     borderopacity="0.25"
     inkscape:showpageshadow="2"
     inkscape:pageopacity="0.0"
     inkscape:pagecheckerboard="0"
     inkscape:deskcolor="#d1d1d1"
     showgrid="false"
     inkscape:zoom="4.425"
     inkscape:cx="11.073446"
     inkscape:cy="66.214689"
     inkscape:window-width="1912"
     inkscape:window-height="1012"
     inkscape:window-x="0"
     inkscape:window-y="30"
     inkscape:window-maximized="1"
     inkscape:current-layer="svg3569" />
  <path
     id="path3567"
     style="display:inline;fill:#eceff4;fill-opacity:0.2;stroke-width:0.543784"
     d="M 477.91,0.42867875 C 467.82009,-1.4188312 457.1489,2.7612588 451.17,11.888679 c -7.98274,12.14813 -4.58814,28.46813 7.56,36.44 72.07311,47.29831 115.08,126.813911 115.08,212.710001 0,85.89609 -43.00689,165.40168 -115.08,212.7 -12.14814,7.96099 -15.54274,24.30275 -7.56,36.44 7.65648,11.64786 23.84597,15.83639 36.44,7.56 86.91841,-57.0538 138.83,-153.03217 138.83,-256.71 0,-103.67783 -51.91159,-199.646211 -138.83,-256.7000012 -3.03703,-1.99297 -6.3367,-3.28416 -9.7,-3.90000005 z"
     sodipodi:insensitive="true" />
  <path
     id="path3655"
     style="display:inline;fill:#eceff4;fill-opacity:0.9880898;stroke-width:0.543784"
     d="m 255.13,52.388679 c -7.35414,-0.85066 -15.14837,1.36836 -21.27,7.49 L 137.1,156.61868 h -111 c -14.42114,0 -26.1,11.67886 -26.1,26.1 v 156.61 c 0,14.41026 11.67886,26.1 26.1,26.1 h 111 l 96.76,96.74 c 16.34612,16.34612 44.56,4.86743 44.56,-18.45 V 78.338679 c 0,-14.58699 -11.0331,-24.53223 -23.29,-25.95 z m 156.4,34.83 c -7.46384,0.93936 -14.46264,5.09939 -18.8,12 -7.71084,12.267761 -4.10988,28.503901 8.06,36.280001 43.23078,27.61331 69.04,74.534 69.04,125.53 0,50.996 -25.80922,97.90669 -69.04,125.52 -12.16988,7.76522 -15.77084,24.00136 -8.06,36.28 7.08006,11.26719 22.9692,16.47251 36.02,8.12 58.4132,-37.30353 93.28,-100.81602 93.28,-169.92 0,-69.0931 -34.8668,-132.62647 -93.28,-169.930001 -3.04247,-1.94131 -6.33505,-3.1682 -9.68,-3.73 -2.50871,-0.42135 -5.05205,-0.46312 -7.54,-0.15 z m -53.55,87.130001 c -10.10927,-1.03693 -20.36337,3.88001 -25.6,13.35 -6.94954,12.62665 -2.34666,28.49871 10.28,35.47 14.04049,7.71085 22.76,22.23168 22.76,37.86 0,15.6392 -8.72038,30.13916 -22.75,37.85 -12.62665,6.9713 -17.22955,22.84335 -10.28,35.47 6.99304,12.68103 22.89772,17.18604 35.47,10.28 30.702,-16.91166 49.78,-48.93837 49.78,-83.61 0,-34.67163 -19.07712,-66.69922 -49.79,-83.6 -3.14851,-1.72108 -6.50024,-2.72436 -9.87,-3.07 z" />
</svg>
