<?xml version="1.0" encoding="UTF-8" standalone="no"?>
<!-- Uploaded to: SVG Repo, www.svgrepo.com, Transformed by: SVG Repo Mixer Tools -->

<svg
   width="666.66699"
   height="600.00031"
   viewBox="0 0 20.00001 18.000009"
   fill="none"
   version="1.1"
   id="svg359"
   sodipodi:docname="terminal.svg"
   inkscape:version="1.3 (0e150ed, 2023-07-21)"
   xmlns:inkscape="http://www.inkscape.org/namespaces/inkscape"
   xmlns:sodipodi="http://sodipodi.sourceforge.net/DTD/sodipodi-0.dtd"
   xmlns="http://www.w3.org/2000/svg"
   xmlns:svg="http://www.w3.org/2000/svg">
  <defs
     id="defs363" />
  <sodipodi:namedview
     id="namedview361"
     pagecolor="#ffffff"
     bordercolor="#000000"
     borderopacity="0.25"
     inkscape:showpageshadow="2"
     inkscape:pageopacity="0.0"
     inkscape:pagecheckerboard="0"
     inkscape:deskcolor="#d1d1d1"
     showgrid="false"
     inkscape:zoom="1.0225"
     inkscape:cx="221.02689"
     inkscape:cy="300.7335"
     inkscape:window-width="1918"
     inkscape:window-height="1017"
     inkscape:window-x="0"
     inkscape:window-y="31"
     inkscape:window-maximized="1"
     inkscape:current-layer="SVGRepo_iconCarrier" />
  <g
     id="SVGRepo_bgCarrier"
     stroke-width="0"
     transform="translate(-1.9999976,-2.9999976)" />
  <g
     id="SVGRepo_tracerCarrier"
     stroke-linecap="round"
     stroke-linejoin="round"
     transform="translate(-1.9999976,-2.9999976)" />
  <g
     id="SVGRepo_iconCarrier"
     transform="translate(-1.9999976,-2.9999976)"
     style="stroke-width:0.99994961;stroke-dasharray:none">
    <path
       fill-rule="evenodd"
       clip-rule="evenodd"
       d="m 7.29291,14.2929 c -0.39053,0.3905 -0.39053,1.0237 0,1.4142 0.39052,0.3905 1.02368,0.3905 1.41421,0 l 2.49998,-2.5 c 0.6667,-0.6667 0.6667,-1.7475 0,-2.4142 L 8.70712,8.29289 c -0.39052,-0.39052 -1.02369,-0.39052 -1.41421,0 -0.39053,0.39053 -0.39053,1.02369 0,1.41422 L 9.5858,12 Z M 13,14 c -0.5523,0 -1,0.4477 -1,1 0,0.5523 0.4477,1 1,1 h 3 c 0.5523,0 1,-0.4477 1,-1 0,-0.5523 -0.4477,-1 -1,-1 z m 9,-6.06582 c 0,0.02186 0,0.04381 0,0.06583 v 8.06579 c 10e-5,0.8865 10e-5,1.6503 -0.0821,2.262 -0.0882,0.6555 -0.2869,1.2839 -0.7966,1.7935 -0.5096,0.5097 -1.138,0.7084 -1.7935,0.7966 -0.6117,0.0822 -1.3755,0.0822 -2.262,0.0821 H 6.9342 C 6.0477,21.0001 5.28388,21.0001 4.67222,20.9179 4.0167,20.8297 3.38835,20.631 2.87869,20.1213 2.36902,19.6117 2.17028,18.9833 2.08215,18.3278 1.99991,17.7161 1.99995,16.9523 2,16.0658 V 7.9342 C 1.99995,7.0477 1.99991,6.28388 2.08215,5.67221 2.17028,5.0167 2.36902,4.38835 2.87869,3.87868 3.38835,3.36902 4.0167,3.17028 4.67222,3.08215 5.28388,2.99991 6.04769,2.99995 6.93418,3 L 17,3.00001 c 0.022,0 0.044,-1e-5 0.0658,-1e-5 0.8865,-5e-5 1.6503,-9e-5 2.262,0.08215 0.6555,0.08813 1.2839,0.28687 1.7935,0.79654 0.5097,0.50966 0.7084,1.13801 0.7966,1.79352 0.0822,0.61166 0.0822,1.37548 0.0821,2.26197 z"
       fill="#eceff4"
       id="path356"
       style="stroke-width:0.99994961;stroke-dasharray:none;fill:#222f3e;fill-opacity:1" />
  </g>
</svg>
