<?xml version="1.0" encoding="UTF-8" standalone="no"?>
<svg
   width="83.999397"
   height="83.999397"
   version="1.1"
   id="svg1087"
   sodipodi:docname="titlebutton-close-hover.svg"
   viewBox="0 0 13.9999 13.9999"
   inkscape:version="1.2.2 (b0a8486, 2022-12-01)"
   xmlns:inkscape="http://www.inkscape.org/namespaces/inkscape"
   xmlns:sodipodi="http://sodipodi.sourceforge.net/DTD/sodipodi-0.dtd"
   xmlns="http://www.w3.org/2000/svg"
   xmlns:svg="http://www.w3.org/2000/svg">
  <defs
     id="defs1091" />
  <sodipodi:namedview
     id="namedview1089"
     pagecolor="#ffffff"
     bordercolor="#000000"
     borderopacity="0.25"
     inkscape:showpageshadow="2"
     inkscape:pageopacity="0.0"
     inkscape:pagecheckerboard="0"
     inkscape:deskcolor="#d1d1d1"
     showgrid="false"
     inkscape:zoom="6.875"
     inkscape:cx="84.8"
     inkscape:cy="30.836364"
     inkscape:window-width="1912"
     inkscape:window-height="1012"
     inkscape:window-x="0"
     inkscape:window-y="30"
     inkscape:window-maximized="1"
     inkscape:current-layer="svg1087" />
  <path
     d="m 7,13.9999 c 3.8659,0 6.9999,-3.134 6.9999,-7 C 13.9999,3.1339 10.8659,0 7,0 3.134,0 0,3.1339 0,6.9999 c 0,3.866 3.134,7 7,7"
     fill="#e9524a"
     fill-rule="evenodd"
     id="path1083"
     style="fill:#bf616a;fill-opacity:1" />
  <path
     d="m 4.1681,4.0892 c -0.39175,0.39171 -0.39175,1.0224 0,1.4142 L 5.5823,6.9176 4.1681,8.3318 c -0.39175,0.39178 -0.39175,1.0225 0,1.4142 0.39171,0.39182 1.0225,0.39182 1.4142,0 L 6.9965,8.3318 8.4107,9.746 c 0.39171,0.39182 1.0225,0.39182 1.4142,0 0.39174,-0.39167 0.39174,-1.0224 0,-1.4142 L 8.4107,6.9176 9.8249,5.5034 c 0.39174,-0.39178 0.39174,-1.0225 0,-1.4142 -0.39171,-0.39182 -1.0225,-0.39182 -1.4142,0 L 6.9965,5.5034 5.5823,4.0892 c -0.39171,-0.39182 -1.0225,-0.39182 -1.4142,0 z"
     enable-background="new"
     opacity="0.5"
     stroke-width="3.7795"
     id="path1085" />
</svg>
