<?xml version="1.0" encoding="UTF-8" standalone="no"?>
<!-- Uploaded to: SVG Repo, www.svgrepo.com, Generator: SVG Repo Mixer Tools -->

<svg
   fill="#000000"
   width="800px"
   height="800px"
   viewBox="0 0 24 24"
   version="1.1"
   id="svg1085"
   sodipodi:docname="temp.svg"
   inkscape:version="1.2.2 (b0a8486, 2022-12-01)"
   xmlns:inkscape="http://www.inkscape.org/namespaces/inkscape"
   xmlns:sodipodi="http://sodipodi.sourceforge.net/DTD/sodipodi-0.dtd"
   xmlns="http://www.w3.org/2000/svg"
   xmlns:svg="http://www.w3.org/2000/svg">
  <defs
     id="defs1089" />
  <sodipodi:namedview
     id="namedview1087"
     pagecolor="#ffffff"
     bordercolor="#000000"
     borderopacity="0.25"
     inkscape:showpageshadow="2"
     inkscape:pageopacity="0.0"
     inkscape:pagecheckerboard="0"
     inkscape:deskcolor="#d1d1d1"
     showgrid="false"
     inkscape:zoom="1.0225"
     inkscape:cx="399.511"
     inkscape:cy="400"
     inkscape:window-width="1912"
     inkscape:window-height="1012"
     inkscape:window-x="0"
     inkscape:window-y="30"
     inkscape:window-maximized="1"
     inkscape:current-layer="svg1085" />
  <path
     d="M17,16a3,3,0,1,1-3-3A3,3,0,0,1,17,16Zm4,0a7,7,0,0,1-7.016,7,7.194,7.194,0,0,1-.827-.049,7.067,7.067,0,0,1-6.07-5.835A6.986,6.986,0,0,1,10,10.261V5a4,4,0,0,1,8,0v5.262A7.021,7.021,0,0,1,21,16Zm-2,0a5.016,5.016,0,0,0-2.5-4.325,1,1,0,0,1-.5-.865V5a2,2,0,0,0-4,0v5.81a1,1,0,0,1-.5.865A5,5,0,1,0,19,16ZM8,3H4A1,1,0,0,0,4,5H8A1,1,0,0,0,8,3ZM9,8A1,1,0,0,0,8,7H6A1,1,0,0,0,6,9H8A1,1,0,0,0,9,8Z"
     id="path1083"
     style="fill:#eceff4;fill-opacity:1" />
</svg>
