<?xml version="1.0" encoding="UTF-8" standalone="no"?>
<svg
   t="1731585819035"
   class="icon"
   viewBox="0 0 1024 1024"
   version="1.1"
   p-id="80746"
   width="128"
   height="128"
   id="svg3"
   sodipodi:docname="cover.svg"
   inkscape:version="1.4 (e7c3feb, 2024-10-09)"
   xmlns:inkscape="http://www.inkscape.org/namespaces/inkscape"
   xmlns:sodipodi="http://sodipodi.sourceforge.net/DTD/sodipodi-0.dtd"
   xmlns="http://www.w3.org/2000/svg"
   xmlns:svg="http://www.w3.org/2000/svg">
  <defs
     id="defs3" />
  <sodipodi:namedview
     id="namedview3"
     pagecolor="#ffffff"
     bordercolor="#000000"
     borderopacity="0.25"
     inkscape:showpageshadow="2"
     inkscape:pageopacity="0.0"
     inkscape:pagecheckerboard="0"
     inkscape:deskcolor="#d1d1d1"
     showgrid="false"
     inkscape:zoom="5.0602329"
     inkscape:cx="74.107261"
     inkscape:cy="69.562016"
     inkscape:window-width="1916"
     inkscape:window-height="1163"
     inkscape:window-x="0"
     inkscape:window-y="33"
     inkscape:window-maximized="1"
     inkscape:current-layer="svg3" />
  <path
     d="M788.14 928.23h-550c-77.32 0-140-62.68-140-140v-550c0-77.32 62.68-140 140-140h550c77.32 0 140 62.68 140 140v550c0 77.32-62.68 140-140 140z"
     fill="#FF7878"
     p-id="80747"
     id="path1"
     style="fill:#6e6a86;fill-opacity:1" />
  <path
     d="M682.2 314.8a27.8 27.8 0 0 0-10.04-21.39 27.807 27.807 0 0 0-22.87-5.93l-261.58 49.04c-13.15 2.46-22.67 13.94-22.67 27.32l0.18 250.12a64.668 64.668 0 0 0-22.39-3.98c-35.76 0-64.74 28.99-64.74 64.74 0 35.76 28.99 64.74 64.74 64.74s64.74-28.99 64.74-64.74V438.77l232.29-43.55v169.7a64.668 64.668 0 0 0-22.39-3.98c-35.76 0-64.74 28.99-64.74 64.74s28.99 64.74 64.74 64.74 64.74-28.99 64.74-64.74c-0.01-1.19-0.01-310.88-0.01-310.88z"
     fill="#FFFFFF"
     p-id="80749"
     id="path3"
     style="fill:#e0def4;fill-opacity:1" />
</svg>
