<?xml version="1.0" standalone="no"?><!DOCTYPE svg PUBLIC "-//W3C//DTD SVG 1.1//EN" "http://www.w3.org/Graphics/SVG/1.1/DTD/svg11.dtd"><svg t="1729408973613" class="icon" viewBox="0 0 1099 1024" version="1.1" xmlns="http://www.w3.org/2000/svg" p-id="10691" xmlns:xlink="http://www.w3.org/1999/xlink" width="214.6484375" height="200"><path d="M400.384 462.848c0 25.6 20.992 46.592 46.592 46.592s46.592-20.992 46.592-46.592-20.992-46.592-46.592-46.592-46.592 20.992-46.592 46.592zM606.208 462.848c0 25.6 20.992 46.592 46.592 46.592s46.592-20.992 46.592-46.592-20.992-46.592-46.592-46.592-46.592 20.992-46.592 46.592z" p-id="10692" fill="#ffffff"></path><path d="M549.888 864.768c-9.216 0-18.944-4.608-28.16-13.824l-93.696-102.912h-158.72c-60.928 0-112.128-51.2-112.128-112.128V271.36c0-60.928 51.2-112.128 112.128-112.128h561.152c60.928 0 112.128 51.2 112.128 112.128v364.544c0 60.928-51.2 112.128-112.128 112.128h-163.84s-88.064 97.792-93.696 102.912c-5.12 5.12-13.824 13.824-23.04 13.824zM227.328 271.36v364.544c0 23.04 18.944 41.984 41.984 41.984h182.272c9.216 0 18.944 4.608 28.16 13.824l70.144 83.968 74.752-83.968c4.608-9.216 13.824-13.824 28.16-13.824h177.664c23.04 0 41.984-18.944 41.984-41.984V271.36c0-23.04-18.944-41.984-41.984-41.984H269.312c-23.04-0.512-41.984 18.432-41.984 41.984z" p-id="10693" fill="#ffffff"></path></svg>