<?xml version="1.0" standalone="no"?><!DOCTYPE svg PUBLIC "-//W3C//DTD SVG 1.1//EN" "http://www.w3.org/Graphics/SVG/1.1/DTD/svg11.dtd"><svg t="1730362934665" class="icon" viewBox="0 0 1024 1024" version="1.1" xmlns="http://www.w3.org/2000/svg" p-id="40403" xmlns:xlink="http://www.w3.org/1999/xlink" width="256" height="256"><path d="M1023.96976 511.94624A511.77776 511.77776 0 1 1 626.119947 12.873474a503.767764 503.767764 0 0 1 82.855961 26.375988 512.32976 512.32976 0 0 1 314.992852 472.696778z" fill="#EA5D5B" p-id="40404"></path><path d="M708.975908 39.250462v472.695778H626.119947V12.873474a503.767764 503.767764 0 0 1 82.855961 26.375988z" fill="#F5B4B5" p-id="40405"></path><path d="M511.916 709.007148a197.059908 197.059908 0 1 1 197.059908-197.059908 197.198908 197.198908 0 0 1-197.059908 197.059908z m0-311.264854A114.203946 114.203946 0 1 0 626.119947 511.94624a114.341946 114.341946 0 0 0-114.203947-114.203946z" fill="#FAD8D7" p-id="40406"></path></svg>