<?xml version="1.0" encoding="UTF-8" standalone="no"?>
<!-- Uploaded to: SVG Repo, www.svgrepo.com, Generator: SVG Repo Mixer Tools -->

<svg
   aria-label="Apple Music"
   role="img"
   viewBox="0 0 512 512"
   version="1.1"
   id="svg2"
   sodipodi:docname="music-off.svg"
   inkscape:version="1.4 (e7c3feb, 2024-10-09)"
   xmlns:inkscape="http://www.inkscape.org/namespaces/inkscape"
   xmlns:sodipodi="http://sodipodi.sourceforge.net/DTD/sodipodi-0.dtd"
   xmlns="http://www.w3.org/2000/svg"
   xmlns:svg="http://www.w3.org/2000/svg">
  <defs
     id="defs2" />
  <sodipodi:namedview
     id="namedview2"
     pagecolor="#ffffff"
     bordercolor="#000000"
     borderopacity="0.25"
     inkscape:showpageshadow="2"
     inkscape:pageopacity="0.0"
     inkscape:pagecheckerboard="0"
     inkscape:deskcolor="#d1d1d1"
     showgrid="false"
     inkscape:zoom="1.2912985"
     inkscape:cx="278.40193"
     inkscape:cy="296.21346"
     inkscape:window-width="1916"
     inkscape:window-height="1163"
     inkscape:window-x="0"
     inkscape:window-y="33"
     inkscape:window-maximized="1"
     inkscape:current-layer="svg2" />
  <rect
     width="512"
     height="512"
     rx="15%"
     fill="url(#g)"
     id="rect1"
     style="fill:#4d4d4d" />
  <linearGradient
     id="g"
     x1=".5"
     y1=".99"
     x2=".5"
     y2=".02">
    <stop
       offset="0"
       stop-color="#FA233B"
       id="stop1" />
    <stop
       offset="1"
       stop-color="#FB5C74"
       id="stop2" />
  </linearGradient>
  <path
     fill="#ffffff"
     d="M199 359V199q0-9 10-11l138-28q11-2 12 10v122q0 15-45 20c-57 9-48 105 30 79 30-11 35-40 35-69V88s0-20-17-15l-170 35s-13 2-13 18v203q0 15-45 20c-57 9-48 105 30 79 30-11 35-40 35-69"
     id="path2" />
</svg>
