<?xml version="1.0" encoding="UTF-8" standalone="no"?>
<svg
   t="1729410032855"
   class="icon"
   viewBox="0 0 1024 1024"
   version="1.1"
   p-id="13758"
   width="200"
   height="200"
   id="svg1"
   sodipodi:docname="pause.svg"
   inkscape:version="1.4 (e7c3feb, 2024-10-09)"
   xmlns:inkscape="http://www.inkscape.org/namespaces/inkscape"
   xmlns:sodipodi="http://sodipodi.sourceforge.net/DTD/sodipodi-0.dtd"
   xmlns="http://www.w3.org/2000/svg"
   xmlns:svg="http://www.w3.org/2000/svg">
  <defs
     id="defs1" />
  <sodipodi:namedview
     id="namedview1"
     pagecolor="#ffffff"
     bordercolor="#000000"
     borderopacity="0.25"
     inkscape:showpageshadow="2"
     inkscape:pageopacity="0.0"
     inkscape:pagecheckerboard="0"
     inkscape:deskcolor="#d1d1d1"
     inkscape:zoom="1.8667619"
     inkscape:cx="100.4413"
     inkscape:cy="79.817356"
     inkscape:window-width="1769"
     inkscape:window-height="1001"
     inkscape:window-x="121"
     inkscape:window-y="126"
     inkscape:window-maximized="0"
     inkscape:current-layer="svg1" />
  <path
     d="M 864,914.29132 H 672 c -17.6,0 -32,-11.31446 -32,-25.14321 V 134.85189 c 0,-13.82875 14.4,-25.14321 32,-25.14321 h 192 c 17.6,0 32,11.31446 32,25.14321 v 754.29622 c 0,13.82875 -14.4,25.14321 -32,25.14321 z m -512,0 H 160 c -17.6,0 -32,-11.31446 -32,-25.14321 V 134.85189 c 0,-13.82875 14.4,-25.14321 32,-25.14321 h 192 c 17.6,0 32,11.31446 32,25.14321 v 754.29622 c 0,13.82875 -14.4,25.14321 -32,25.14321 z"
     p-id="13759"
     fill="#ffffff"
     id="path1"
     style="fill:#ffffff;stroke-width:0.886411" />
</svg>
