<?xml version="1.0" standalone="no"?><!DOCTYPE svg PUBLIC "-//W3C//DTD SVG 1.1//EN" "http://www.w3.org/Graphics/SVG/1.1/DTD/svg11.dtd"><svg t="1729411577738" class="icon" viewBox="0 0 1331 1024" version="1.1" xmlns="http://www.w3.org/2000/svg" p-id="25244" xmlns:xlink="http://www.w3.org/1999/xlink" width="259.9609375" height="200"><path d="M295.818809 73.161142C295.818809 32.715164 328.482776 0 368.621569 0h889.709114C1298.520674 0 1331.133443 32.459177 1331.133443 73.161142c0 40.39478-32.715164 73.109945-72.80276 73.109944H368.621569A72.80276 72.80276 0 0 1 295.818809 73.212339z m0 438.813259c0-40.39478 32.663967-73.161142 72.80276-73.161142h889.709114C1298.520674 438.813259 1331.133443 471.323634 1331.133443 511.974401c0 40.39478-32.715164 73.161142-72.80276 73.161142H368.621569A72.80276 72.80276 0 0 1 295.818809 511.974401z m0 438.81326c0-40.39478 32.663967-73.109945 72.80276-73.109945h889.709114c40.189991 0 72.80276 32.459177 72.80276 73.109945 0 40.445978-32.715164 73.161142-72.80276 73.161142H368.621569a72.80276 72.80276 0 0 1-72.80276-73.161142zM73.929104 146.271086C33.124744 146.271086 0 113.504725 0 73.212339 0 32.715164 33.124744 0 73.929104 0 114.784661 0 147.960602 32.766362 147.960602 73.161142s-33.124744 73.109945-73.980301 73.109944z m0 438.864457C33.124744 585.135543 0 552.369182 0 511.974401s33.124744-73.161142 73.929104-73.161142c40.855557 0 73.980301 32.766362 73.980301 73.161142s-33.124744 73.161142-73.980301 73.161142z m0 438.81326C33.124744 1023.948803 0 991.182441 0 950.787661s33.124744-73.109945 73.929104-73.109945c40.855557 0 73.980301 32.766362 73.980301 73.109945 0 40.445978-33.124744 73.161142-73.980301 73.161142z" fill="#ffffff" p-id="25245"></path></svg>