<?xml version="1.0" standalone="no"?><!DOCTYPE svg PUBLIC "-//W3C//DTD SVG 1.1//EN" "http://www.w3.org/Graphics/SVG/1.1/DTD/svg11.dtd"><svg t="1729356490662" class="icon" viewBox="0 0 1024 1024" version="1.1" xmlns="http://www.w3.org/2000/svg" p-id="16170" xmlns:xlink="http://www.w3.org/1999/xlink" width="200" height="200"><path d="M78.25850100000002 537.0955610000001c-8.733253-5.631253999999996-14.484469000000008-15.447829999999994-14.484469000000008-26.620286999999998 0.029676999999995957-11.141758 5.842293999999998-20.958334 14.605223999999989-26.559912000000004L501.24921600000005 213.677591c9.396383-5.991458000000003 21.713401000000005-6.835685000000006 32.192485-1.084705000000012 10.480108 5.752003999999998 16.412457000000007 16.563233999999994 16.412457000000007 27.73569099999999L549.854159 401.162636 913.7598229999999 207.3535579999998c9.455736999999996-5.028527000000001 21.261080999999997-5.1196010000000065 31.138437 0.8135279999999909 9.847679000000001 5.902429999999997 15.328732000000004 16.351409999999998 15.328732000000006 27.071564999999993L960.226991 788.7531609999997c2.6645352591003757e-15 10.750854999999998-5.510729999999993 21.230534000000002-15.38910899999999 27.13194100000001-9.908056999999996 5.9024300000000025-21.743077999999997 5.781680000000006-31.198813999999995 0.6927780000000094l-363.78490900000014-195.7369859999999L549.854159 783.603885c2.6645352591003757e-15 11.202133-5.96304999999999 22.043039-16.47283499999999 27.764344000000005-10.510808999999997 5.7213050000000045-22.857504 4.878101000000012-32.252863-1.2044309999999872L78.25850100000002 537.0955610000001z" p-id="16171" fill="#ffffff"></path></svg>