<?xml version="1.0" standalone="no"?><!DOCTYPE svg PUBLIC "-//W3C//DTD SVG 1.1//EN" "http://www.w3.org/Graphics/SVG/1.1/DTD/svg11.dtd"><svg t="1731579831944" class="icon" viewBox="0 0 1024 1024" version="1.1" xmlns="http://www.w3.org/2000/svg" p-id="4260" data-darkreader-inline-fill="" xmlns:xlink="http://www.w3.org/1999/xlink" width="128" height="128"><path d="M371.2 426.666667a42.666667 42.666667 0 0 0 60.16 0 42.666667 42.666667 0 0 0 0-60.16l-267.52-268.8a42.666667 42.666667 0 0 0-60.586667 60.586666zM896 597.333333a42.666667 42.666667 0 0 0-42.666667 42.666667v153.173333L658.773333 597.333333A42.666667 42.666667 0 0 0 597.333333 658.773333L793.173333 853.333333H640a42.666667 42.666667 0 0 0 0 85.333334h256a42.666667 42.666667 0 0 0 16.213333-3.413334 42.666667 42.666667 0 0 0 23.04-23.04A42.666667 42.666667 0 0 0 938.666667 896v-256a42.666667 42.666667 0 0 0-42.666667-42.666667z m39.253333-485.546666a42.666667 42.666667 0 0 0-23.04-23.04A42.666667 42.666667 0 0 0 896 85.333333h-256a42.666667 42.666667 0 0 0 0 85.333334h153.173333L97.706667 865.706667a42.666667 42.666667 0 0 0 0 60.586666 42.666667 42.666667 0 0 0 60.586666 0L853.333333 230.826667V384a42.666667 42.666667 0 0 0 85.333334 0V128a42.666667 42.666667 0 0 0-3.413334-16.213333z" p-id="4261" fill="#ffffff" style="--darkreader-inline-fill: #181a1b;" data-darkreader-inline-fill=""></path></svg>