<?xml version="1.0" encoding="UTF-8" standalone="no"?>
<!-- Uploaded to: SVG Repo, www.svgrepo.com, Generator: SVG Repo Mixer Tools -->

<svg
   fill="#000000"
   width="800px"
   height="800px"
   viewBox="0 0 56 56"
   version="1.1"
   id="svg1266"
   sodipodi:docname="bat-25.svg"
   inkscape:version="1.2.2 (b0a8486, 2022-12-01)"
   xmlns:inkscape="http://www.inkscape.org/namespaces/inkscape"
   xmlns:sodipodi="http://sodipodi.sourceforge.net/DTD/sodipodi-0.dtd"
   xmlns="http://www.w3.org/2000/svg"
   xmlns:svg="http://www.w3.org/2000/svg">
  <defs
     id="defs1270" />
  <sodipodi:namedview
     id="namedview1268"
     pagecolor="#ffffff"
     bordercolor="#000000"
     borderopacity="0.25"
     inkscape:showpageshadow="2"
     inkscape:pageopacity="0.0"
     inkscape:pagecheckerboard="0"
     inkscape:deskcolor="#d1d1d1"
     showgrid="false"
     inkscape:zoom="1.28375"
     inkscape:cx="397.6631"
     inkscape:cy="400.38948"
     inkscape:window-width="3836"
     inkscape:window-height="2066"
     inkscape:window-x="0"
     inkscape:window-y="52"
     inkscape:window-maximized="1"
     inkscape:current-layer="svg1266" />
  <path
     id="path1264"
     style="display:inline;fill:#ffffff;fill-opacity:0.5"
     d="M 9.4100781,14 C 6.4329051,14 3.8809236,14.301305 2.0733398,16.108887 0.26575645,17.916369 0,20.432905 0,23.410078 v 9.144434 c 0,3.030273 0.26575645,5.564493 2.0733398,7.354375 C 3.8809236,41.716469 6.4328887,42 9.4632617,42 H 40.848145 c 3.030473,0 5.582294,-0.283531 7.389785,-2.091113 1.807782,-1.807582 2.055566,-4.324102 2.055566,-7.354375 v -9.09125 c 0,-3.030373 -0.247784,-5.564593 -2.055566,-7.354375 C 46.412748,14.301305 43.878618,14 40.848145,14 Z M 9.020293,16.853184 H 41.34416 c 1.807782,0 3.739402,0.265888 4.802793,1.329179 1.080791,1.080991 1.293496,2.959464 1.293496,4.784746 v 10.083555 c 0,1.825282 -0.230505,3.703792 -1.293496,4.784883 -1.063391,1.080991 -2.995011,1.311269 -4.802793,1.311269 H 8.9671094 c -1.8252838,0 -3.7392286,-0.248078 -4.8025196,-1.311269 C 3.0834997,36.754456 2.8531836,34.875946 2.8531836,33.050664 V 23.020156 c 0,-1.860682 0.2303427,-3.774502 1.2936328,-4.837793 1.0810901,-1.080991 3.0126928,-1.329179 4.8734766,-1.329179 z m 43.701328,6.4683 v 9.162071 C 54.121412,32.394955 56,30.605006 56,27.893633 56,25.19996 54.121412,23.410084 52.721621,23.321484 Z" />
  <path
     id="path1856"
     d="m 8.6125977,19.281035 c -1.3112909,0 -2.0379433,0.159424 -2.6050391,0.726524 -0.5670958,0.567093 -0.7265234,1.293789 -0.7265234,2.605175 v 10.792305 c 0,1.293693 0.1594276,2.037946 0.7265234,2.605039 0.5670958,0.5494 1.2937482,0.72666 2.6050391,0.72666 H 13.27334 c 1.311393,0 2.038076,-0.17726 2.605176,-0.72666 0.567093,-0.567093 0.726523,-1.311346 0.726523,-2.605039 V 22.612734 c 0,-1.311386 -0.15943,-2.038082 -0.726523,-2.605175 -0.5671,-0.5671 -1.293783,-0.726524 -2.605176,-0.726524 z"
     style="display:inline;fill:#ff5555;fill-opacity:1" />
</svg>
