<?xml version="1.0" encoding="UTF-8" standalone="no"?>
<!-- Uploaded to: SVG Repo, www.svgrepo.com, Generator: SVG Repo Mixer Tools -->

<svg
   fill="#000000"
   width="800px"
   height="800px"
   viewBox="0 0 512 512"
   version="1.1"
   id="svg3650"
   sodipodi:docname="bat-ac.svg"
   inkscape:version="1.2.2 (b0a8486, 2022-12-01)"
   xmlns:inkscape="http://www.inkscape.org/namespaces/inkscape"
   xmlns:sodipodi="http://sodipodi.sourceforge.net/DTD/sodipodi-0.dtd"
   xmlns="http://www.w3.org/2000/svg"
   xmlns:svg="http://www.w3.org/2000/svg">
  <defs
     id="defs3654" />
  <sodipodi:namedview
     id="namedview3652"
     pagecolor="#ffffff"
     bordercolor="#000000"
     borderopacity="0.25"
     inkscape:showpageshadow="2"
     inkscape:pageopacity="0.0"
     inkscape:pagecheckerboard="0"
     inkscape:deskcolor="#d1d1d1"
     showgrid="false"
     inkscape:zoom="0.7221328"
     inkscape:cx="-24.926163"
     inkscape:cy="360.04458"
     inkscape:window-width="1912"
     inkscape:window-height="1012"
     inkscape:window-x="0"
     inkscape:window-y="30"
     inkscape:window-maximized="1"
     inkscape:current-layer="svg3650" />
  <title
     id="title3636">ionicons-v5-d</title>
  <path
     style="fill:#242933;fill-opacity:1;stroke:#242933;stroke-width:0;stroke-dasharray:none;stroke-opacity:1;paint-order:stroke markers fill"
     d="m 144.39697,248.18671 96.82931,-127.60593 17.81153,-24.167287 37.94363,0.104447 -4.82159,23.75216 -26.68423,95.58537 37.77339,-0.0165 c 0,0 14.95424,0.31434 21.79548,15.15324 6.84125,14.8389 -4.0582,27.68749 -4.0582,27.68749 l -116.01683,154.84754 -43.36834,0.0597 c 0,0 7.35565,-22.27484 12.92947,-40.59594 5.57381,-18.32111 22.15587,-78.22653 22.15587,-78.22653 l -37.18938,0.26066 c 0,0 -16.25982,-0.78267 -22.55705,-15.49669 -6.29722,-14.714 2.86123,-25.83257 7.45694,-31.34166 z"
     id="path3660"
     sodipodi:nodetypes="cccccccscccsccssc" />
  <path
     d="m 274.64251,280.06906 26.21163,-34.36467 c 0.36936,-0.5606 0.62285,-1.18941 0.7456,-1.84943 0.04,-0.21107 0.0658,-0.42456 0.0775,-0.63907 0.0283,-0.41796 0.002,-0.83783 -0.0775,-1.24909 -0.11294,-0.60065 -0.3362,-1.17519 -0.65844,-1.6945 -0.21095,-0.33799 -0.46482,-0.64721 -0.75526,-0.91988 -0.14382,-0.13606 -0.29936,-0.25921 -0.46479,-0.36795 -0.32843,-0.23225 -0.69104,-0.41194 -1.0748,-0.53257 -0.41021,-0.13001 -0.83815,-0.19535 -1.26847,-0.19366 h -59.66613 l 11.73569,-41.83989 3.12759,-11.13534 6.01309,-21.45734 0.49384,-1.78166 7.54299,-26.87979 v 0 c 0.0299,-0.17596 0.0463,-0.35403 0.0486,-0.53255 v -0.15493 c 0,-0.0485 0,-0.25175 -0.0486,-0.36794 -0.0483,-0.11621 0,-0.0871 0,-0.13556 -0.0388,-0.15082 -0.094,-0.29693 -0.16462,-0.43573 v 0 c -0.076,-0.13099 -0.1601,-0.2571 -0.25176,-0.37764 l -0.0871,-0.0968 c -0.0761,-0.0792 -0.15683,-0.15357 -0.24207,-0.2227 l -0.0968,-0.0775 c -0.12006,-0.0866 -0.24626,-0.16423 -0.37763,-0.23239 v 0 c -0.12704,-0.0594 -0.26016,-0.10489 -0.39702,-0.13556 h -0.12586 -0.31954 -0.12587 c -0.14491,-0.0143 -0.29084,-0.0143 -0.43574,0 v 0 c -0.14079,0.0322 -0.27729,0.0811 -0.40669,0.14524 l -0.12587,0.0677 -0.29048,0.20334 -0.10652,0.0968 c -0.13091,0.11866 -0.24786,0.25185 -0.34858,0.397 v 0 l -17.42924,22.88074 -12.72336,16.67398 -9.53767,12.42317 -61.68986,80.90078 c -0.16245,0.24645 -0.30491,0.50548 -0.42606,0.77463 -0.15484,0.33696 -0.26862,0.69132 -0.33891,1.05543 -0.0832,0.41081 -0.10928,0.83116 -0.0775,1.2491 0.0656,1.42963 0.77841,2.75169 1.93659,3.59236 0.16752,0.11142 0.3422,0.21167 0.52288,0.30018 0.5705,0.27593 1.19634,0.41832 1.83008,0.41635 H 224.456 l -28.87445,103.04559 c -0.0139,0.18049 -0.0139,0.36177 0,0.54225 v 0.14525 c 0.007,0.12405 0.0285,0.24711 0.0582,0.36794 -0.005,0.045 -0.005,0.0906 0,0.13558 0.0388,0.15082 0.094,0.29693 0.16461,0.43573 v 0 c 0.0761,0.12786 0.16011,0.25076 0.25175,0.36793 l 0.0871,0.0968 0.24207,0.23239 c 0.0364,0.0204 0.069,0.0466 0.0968,0.0775 0.11795,0.0869 0.2445,0.16155 0.37764,0.22272 v 0 c 0.12868,0.0553 0.26139,0.10058 0.39699,0.13556 h 0.12588 c 0.1063,0.009 0.21324,0.009 0.31954,0 h 0.12589 c 0.14678,-0.005 0.29273,-0.0245 0.43572,-0.0582 v 0 c 0.13751,-0.0373 0.27061,-0.0891 0.397,-0.15493 l 0.12587,-0.0677 0.29049,-0.20334 0.10651,-0.0871 c 0.13093,-0.11865 0.24786,-0.25184 0.3486,-0.397 v 0 l 22.58055,-29.48448 16.97416,-22.2707 z"
     id="path3644"
     style="fill:#ffffff;stroke-width:0.968289"
     sodipodi:nodetypes="ccccccccccccccccscsscssccccssccccssccccscccccccccccccccccssccccssccccssccccscccc" />
</svg>
