<?xml version="1.0" encoding="UTF-8" standalone="no"?>
<svg
   width="96"
   height="96"
   version="1.1"
   id="svg1024"
   sodipodi:docname="titlebutton-close-normal.svg"
   viewBox="0 0 16 16"
   inkscape:version="1.2.2 (b0a8486, 2022-12-01)"
   xmlns:inkscape="http://www.inkscape.org/namespaces/inkscape"
   xmlns:sodipodi="http://sodipodi.sourceforge.net/DTD/sodipodi-0.dtd"
   xmlns="http://www.w3.org/2000/svg"
   xmlns:svg="http://www.w3.org/2000/svg">
  <defs
     id="defs1028" />
  <sodipodi:namedview
     id="namedview1026"
     pagecolor="#ffffff"
     bordercolor="#000000"
     borderopacity="0.25"
     inkscape:showpageshadow="2"
     inkscape:pageopacity="0.0"
     inkscape:pagecheckerboard="0"
     inkscape:deskcolor="#d1d1d1"
     showgrid="false"
     inkscape:zoom="4.8613592"
     inkscape:cx="0"
     inkscape:cy="4.7311872"
     inkscape:window-width="1912"
     inkscape:window-height="1012"
     inkscape:window-x="0"
     inkscape:window-y="30"
     inkscape:window-maximized="1"
     inkscape:current-layer="svg1024" />
  <rect
     y="0"
     width="16"
     height="16"
     ry="1.6931001e-05"
     opacity="0"
     stroke-width="0.47432"
     style="paint-order:markers stroke fill"
     id="rect1020"
     x="0" />
  <path
     d="m 8,14.999999 c 3.8659,0 6.9999,-3.134 6.9999,-6.9999996 0,-3.866 -3.134,-7.00000001 -6.9999,-7.00000001 -3.866,0 -7.0001,3.13400001 -7.0001,7.00000001 0,3.8659996 3.134,6.9999996 7.0001,6.9999996"
     fill="#e9524a"
     fill-rule="evenodd"
     id="path1022" />
  <path
     d="m 8,14.999999 c 3.8659,0 6.9999,-3.134 6.9999,-6.9999996 0,-3.866 -3.134,-7.00000001 -6.9999,-7.00000001 -3.866,0 -7.0001,3.13400001 -7.0001,7.00000001 0,3.8659996 3.134,6.9999996 7.0001,6.9999996"
     fill="#e9524a"
     fill-rule="evenodd"
     id="path3724"
     style="fill:#bf616a;fill-opacity:1;opacity:1" />
</svg>
