<?xml version="1.0" encoding="UTF-8" standalone="no"?>
<svg
   t="1731597612981"
   class="icon"
   viewBox="0 0 1152 768"
   version="1.1"
   p-id="139177"
   width="144"
   height="96"
   id="svg1"
   sodipodi:docname="pinyin.svg"
   inkscape:version="1.4 (e7c3feb, 2024-10-09)"
   xmlns:inkscape="http://www.inkscape.org/namespaces/inkscape"
   xmlns:sodipodi="http://sodipodi.sourceforge.net/DTD/sodipodi-0.dtd"
   xmlns="http://www.w3.org/2000/svg"
   xmlns:svg="http://www.w3.org/2000/svg">
  <defs
     id="defs1" />
  <sodipodi:namedview
     id="namedview1"
     pagecolor="#ffffff"
     bordercolor="#000000"
     borderopacity="0.25"
     inkscape:showpageshadow="2"
     inkscape:pageopacity="0.0"
     inkscape:pagecheckerboard="0"
     inkscape:deskcolor="#d1d1d1"
     showgrid="false"
     inkscape:zoom="7.15625"
     inkscape:cx="71.965066"
     inkscape:cy="47.930131"
     inkscape:window-width="1916"
     inkscape:window-height="1163"
     inkscape:window-x="0"
     inkscape:window-y="33"
     inkscape:window-maximized="1"
     inkscape:current-layer="svg1" />
  <path
     d="M 1056,768 H 96 C 42.98,768 0,725.02 0,672 V 96 C 0,42.98 42.98,0 96,0 h 960 c 53.02,0 96,42.98 96,96 v 576 c 0,53.02 -42.98,96 -96,96 z M 256,232 v -80 c 0,-13.254 -10.746,-24 -24,-24 h -80 c -13.254,0 -24,10.746 -24,24 v 80 c 0,13.254 10.746,24 24,24 h 80 c 13.254,0 24,-10.746 24,-24 z m 192,0 v -80 c 0,-13.254 -10.746,-24 -24,-24 h -80 c -13.254,0 -24,10.746 -24,24 v 80 c 0,13.254 10.746,24 24,24 h 80 c 13.254,0 24,-10.746 24,-24 z m 192,0 v -80 c 0,-13.254 -10.746,-24 -24,-24 h -80 c -13.254,0 -24,10.746 -24,24 v 80 c 0,13.254 10.746,24 24,24 h 80 c 13.254,0 24,-10.746 24,-24 z m 192,0 v -80 c 0,-13.254 -10.746,-24 -24,-24 h -80 c -13.254,0 -24,10.746 -24,24 v 80 c 0,13.254 10.746,24 24,24 h 80 c 13.254,0 24,-10.746 24,-24 z m 192,0 v -80 c 0,-13.254 -10.746,-24 -24,-24 h -80 c -13.254,0 -24,10.746 -24,24 v 80 c 0,13.254 10.746,24 24,24 h 80 c 13.254,0 24,-10.746 24,-24 z M 352,424 v -80 c 0,-13.254 -10.746,-24 -24,-24 h -80 c -13.254,0 -24,10.746 -24,24 v 80 c 0,13.254 10.746,24 24,24 h 80 c 13.254,0 24,-10.746 24,-24 z m 192,0 v -80 c 0,-13.254 -10.746,-24 -24,-24 h -80 c -13.254,0 -24,10.746 -24,24 v 80 c 0,13.254 10.746,24 24,24 h 80 c 13.254,0 24,-10.746 24,-24 z m 192,0 v -80 c 0,-13.254 -10.746,-24 -24,-24 h -80 c -13.254,0 -24,10.746 -24,24 v 80 c 0,13.254 10.746,24 24,24 h 80 c 13.254,0 24,-10.746 24,-24 z m 192,0 v -80 c 0,-13.254 -10.746,-24 -24,-24 h -80 c -13.254,0 -24,10.746 -24,24 v 80 c 0,13.254 10.746,24 24,24 h 80 c 13.254,0 24,-10.746 24,-24 z M 256,616 v -80 c 0,-13.254 -10.746,-24 -24,-24 h -80 c -13.254,0 -24,10.746 -24,24 v 80 c 0,13.254 10.746,24 24,24 h 80 c 13.254,0 24,-10.746 24,-24 z m 576,0 v -80 c 0,-13.254 -10.746,-24 -24,-24 H 344 c -13.254,0 -24,10.746 -24,24 v 80 c 0,13.254 10.746,24 24,24 h 464 c 13.254,0 24,-10.746 24,-24 z m 192,0 v -80 c 0,-13.254 -10.746,-24 -24,-24 h -80 c -13.254,0 -24,10.746 -24,24 v 80 c 0,13.254 10.746,24 24,24 h 80 c 13.254,0 24,-10.746 24,-24 z"
     p-id="139178"
     fill="#e0def4"
     id="path1"
     style="fill:#191724;fill-opacity:1" />
</svg>
