<?xml version="1.0" encoding="UTF-8" standalone="no"?>
<!-- Uploaded to: SVG Repo, www.svgrepo.com, Generator: SVG Repo Mixer Tools -->

<svg
   width="733.33331"
   height="400"
   viewBox="0 0 21.999999 12"
   version="1.1"
   id="svg1028"
   sodipodi:docname="switch-off.svg"
   inkscape:version="1.2.2 (b0a8486, 2022-12-01)"
   xmlns:inkscape="http://www.inkscape.org/namespaces/inkscape"
   xmlns:sodipodi="http://sodipodi.sourceforge.net/DTD/sodipodi-0.dtd"
   xmlns="http://www.w3.org/2000/svg"
   xmlns:svg="http://www.w3.org/2000/svg"
   xmlns:rdf="http://www.w3.org/1999/02/22-rdf-syntax-ns#"
   xmlns:cc="http://creativecommons.org/ns#"
   xmlns:dc="http://purl.org/dc/elements/1.1/">
  <sodipodi:namedview
     id="namedview1030"
     pagecolor="#ffffff"
     bordercolor="#000000"
     borderopacity="0.25"
     inkscape:showpageshadow="2"
     inkscape:pageopacity="0.0"
     inkscape:pagecheckerboard="0"
     inkscape:deskcolor="#d1d1d1"
     showgrid="false"
     inkscape:zoom="1.0225"
     inkscape:cx="215.64792"
     inkscape:cy="263.08068"
     inkscape:window-width="1912"
     inkscape:window-height="1012"
     inkscape:window-x="0"
     inkscape:window-y="30"
     inkscape:window-maximized="1"
     inkscape:current-layer="svg1028" />
  <title
     id="title1019">/svg/ic-switch-off</title>
  <desc
     id="desc1021">Created with Sketch.</desc>
  <defs
     id="defs1023">
    <clipPath
       clipPathUnits="userSpaceOnUse"
       id="clipPath1326">
      <path
         id="path1328"
         style="fill:#ff0000;fill-opacity:1;fill-rule:nonzero;stroke:none;stroke-width:0.03"
         d="m 8.5961523,8.7877148 c -0.018399,9.171e-4 -0.036801,0.00186 -0.055195,0.00293 -0.1330056,0.00627 -0.2660532,0.011767 -0.3991995,0.013887 -0.094271,0.00331 -0.1884084,0.00832 -0.2824803,0.015352 -0.1191729,0.00711 -0.2381892,0.016708 -0.357246,0.025488 -0.1733634,0.012909 -0.3468825,0.023713 -0.5207814,0.025723 -0.2622879,0.00449 -0.5245973,0.00468 -0.786914,0.00627 -0.076319,7.557e-4 -0.1526184,0.00194 -0.2289258,0.00334 C 5.856871,8.9694526 5.7148279,9.0699681 5.534746,9.2010351 5.4477379,9.2476038 5.3614057,9.2955231 5.2737109,9.3407811 5.1352429,9.4122477 4.9838179,9.4582593 4.8425194,9.5233008 4.6362931,9.6060999 4.4312539,9.6918975 4.230625,9.7876173 4.1878789,9.8432064 4.1481406,9.9009591 4.115371,9.9632226 4.049182,10.08011 3.9842044,10.19772 3.9210156,10.31625 c -0.032809,0.06378 -0.059922,0.129971 -0.083965,0.197519 -0.039736,0.124808 -0.080417,0.249553 -0.1096875,0.377344 -0.027005,0.127793 -0.052778,0.25641 -0.068203,0.386133 -0.012199,0.132293 -0.019919,0.265252 -0.015469,0.398145 0.00266,0.140705 0.00538,0.281508 0.01541,0.421933 0.0063,0.07872 0.01153,0.157628 0.022149,0.235899 0.020992,0.136412 0.06597,0.268318 0.088945,0.404472 0.024696,0.119071 0.051998,0.237597 0.079101,0.356133 5.883e-4,9.36e-4 0.00117,0.0019 0.00176,0.0028 0.099453,0.157957 0.2027655,0.313445 0.3024609,0.471269 0.054372,0.0917 0.1158561,0.178065 0.1764258,0.265547 0.080429,0.111693 0.1559259,0.22659 0.2264061,0.344824 0.078911,0.130947 0.1458654,0.268247 0.2075976,0.40793 0.076544,0.176052 0.1263381,0.361459 0.1610157,0.549726 -2.7e-4,-0.0015 -4.86e-4,-0.0029 -7.62e-4,-0.0044 -0.01388,-0.07345 0.00502,0.0101 0.012539,0.04553 3.72e-4,0.0011 7.62e-4,0.0022 0.00111,0.0033 0.1517898,0.02265 0.3041973,0.04129 0.4568553,0.05742 0.6897867,0.07245 1.3818254,-0.03456 2.0673635,-0.103711 0.502803,-0.05248 1.0065273,-0.09308 1.5107226,-0.126621 0.053428,-0.09699 0.1066212,-0.194113 0.1617186,-0.290156 0.06577,-0.110239 0.1247601,-0.224334 0.1836915,-0.33832 0.1022523,-0.192221 0.2090406,-0.381928 0.320742,-0.568828 0.078639,-0.146497 0.1544118,-0.294534 0.2183205,-0.448184 0.070628,-0.162401 0.1395111,-0.325579 0.1998628,-0.492129 0.0549,-0.147999 0.106788,-0.297142 0.159726,-0.44584 0.04978,-0.142616 0.09956,-0.285211 0.14672,-0.42873 0.0056,-0.01644 0.01115,-0.03288 0.0167,-0.04934 -0.01015,-0.192935 -0.02257,-0.385727 -0.03809,-0.57832 -0.01768,-0.210918 -0.03712,-0.421817 -0.0617,-0.632051 -0.0305,-0.0456 -0.06049,-0.09257 -0.07934,-0.121406 -0.06099,-0.09523 -0.138288,-0.21621 -0.199101,-0.31002 C 9.8797401,10.115443 9.7586895,9.9249156 9.6131049,9.752931 9.5513649,9.6814497 9.523299,9.6472164 9.4592961,9.5796105 9.3644631,9.4794384 9.2611605,9.3878853 9.1602336,9.2940246 8.9946549,9.1425246 8.8280946,8.9920876 8.6593743,8.8440833 8.6383347,8.825275 8.6172387,8.8065127 8.5961517,8.7877161 Z M 4.3225,9.6901173 c -0.021266,0.015891 -0.033811,0.029117 -0.04541,0.04289 0.019998,-0.01556 0.037339,-0.030808 0.04541,-0.04289 z" />
    </clipPath>
    <clipPath
       clipPathUnits="userSpaceOnUse"
       id="clipPath1374">
      <path
         id="path1376"
         style="fill:#ff0000;fill-opacity:1;fill-rule:nonzero;stroke:none;stroke-width:0.03"
         d="M 1,6 V 18 H 23.000019 V 6 Z m 7.0508204,2.5576758 c 0.041469,-1.32e-4 0.0863,9.57e-4 0.1376952,0.00375 0.2825691,0.015355 0.5565543,0.084952 0.8237694,0.1744336 0.064625,0.024012 0.1299819,0.046203 0.1938867,0.07207 0.2970375,0.1202323 0.5761476,0.2813608 0.8285153,0.478828 0.281757,0.2321565 0.542127,0.4891092 0.753985,0.7869726 0.293472,0.22334 0.566717,0.499677 0.758262,0.815684 0.07296,0.120377 0.121109,0.254126 0.18164,0.381211 0.03542,0.139285 0.08346,0.275989 0.106231,0.417891 0.04832,0.301118 0.02514,0.620067 -0.05332,0.924023 0.04859,0.230575 0.0602,0.468963 0.03064,0.713145 -0.03956,0.326827 -0.1165,0.458714 -0.238184,0.743144 -0.073,0.110756 -0.13676,0.228176 -0.218965,0.332285 -0.243824,0.308801 -0.580972,0.53219 -0.938144,0.687598 -0.06213,0.02703 -0.126405,0.04888 -0.18961,0.0733 -0.199772,0.07002 -0.4049857,0.125712 -0.6157612,0.149648 -0.1386105,0.01574 -0.1818876,0.01148 -0.321504,0.01096 -0.089966,-0.0036 -0.1792983,-0.01343 -0.2684178,-0.02508 -0.034174,0.01578 -0.068516,0.03119 -0.103125,0.04611 -0.2231142,0.0929 -0.4513227,0.17131 -0.6874806,0.224356 -0.2007417,0.04316 -0.4036428,0.07434 -0.6091992,0.08156 -0.1544451,0.0075 -0.3089643,0.01568 -0.4636524,0.01113 -0.112377,-0.0018 -0.224739,-0.0049 -0.3368553,-0.01318 C 6.6754944,15.636015 6.5296687,15.620472 6.3874024,15.58541 6.2548642,15.55497 6.1225207,15.523054 5.9930077,15.481289 5.8426123,15.431929 5.6943433,15.376397 5.5482226,15.315469 5.3715877,15.23632 5.2006996,15.145579 5.0383984,15.039785 4.8297904,14.898281 4.6309657,14.741718 4.4773048,14.539453 4.3996693,14.434983 4.3280266,14.326949 4.2651367,14.21291 4.1964826,14.097239 4.1305297,13.979836 4.0727149,13.858301 l -0.00422,-0.0087 C 3.9458535,13.649362 3.8671263,13.425696 3.8040625,13.200176 3.7844409,13.160608 3.7657047,13.120513 3.7479297,13.079941 3.6322161,12.793747 3.5464414,12.502595 3.5330664,12.191953 3.5248564,11.962208 3.530757,11.732097 3.5677539,11.504648 3.6118598,11.247925 3.6723806,10.99359 3.7764062,10.753711 3.8719841,10.542331 3.9794815,10.336324 4.1192968,10.150254 4.2396187,9.9916131 4.3693489,9.8402607 4.5157423,9.7048242 4.6287538,9.5988966 4.7443711,9.4950804 4.8682423,9.4020702 4.95352,9.3041703 5.0470807,9.2124633 5.1534766,9.1276758 5.260336,9.0426369 5.2994395,9.0061098 5.4152149,8.9350195 c 0.1927302,-0.118344 0.4046772,-0.199225 0.627246,-0.2394726 0.053485,-0.00726 0.1067319,-0.01633 0.1604298,-0.021797 0.077733,-0.00791 0.1556961,-0.0108 0.2336718,-0.010723 0.1299585,1.29e-4 0.2600159,0.00846 0.3895898,0.015586 0.090887,0.00626 0.1817949,0.013262 0.2725194,0.021855 0.1913382,-0.052713 0.386265,-0.092251 0.5833008,-0.1175976 0.1502706,-0.012967 0.2444403,-0.024797 0.3688479,-0.025194 z" />
    </clipPath>
  </defs>
  <g
     id="Page-1"
     stroke="none"
     stroke-width="1"
     fill="none"
     fill-rule="evenodd"
     transform="translate(-1,-6)"
     style="fill:#4c566a;fill-opacity:1;stroke-width:0.9999496;stroke-dasharray:none">
    <g
       id="ic-switch-off"
       fill-rule="nonzero"
       fill="#4a4a4a"
       style="fill:#4c566a;fill-opacity:1;stroke-width:0.9999496;stroke-dasharray:none">
      <path
         d="m 3,12 c 0,2.204644 1.7885254,4 3.9947834,4 H 17.005217 C 19.208284,16 21,14.209139 21,12 21,9.7953562 19.211475,8 17.005217,8 H 6.9947834 C 4.7917156,8 3,9.790861 3,12 Z M 1,12 C 1,8.6877314 3.6857068,6 6.9947834,6 H 17.005217 C 20.315427,6 23,8.6901647 23,12 c 0,3.312269 -2.685707,6 -5.994783,6 H 6.9947834 C 3.6845725,18 1,15.309835 1,12 Z m 6,1 c 0.5522847,0 1,-0.447715 1,-1 0,-0.552285 -0.4477153,-1 -1,-1 -0.5522848,0 -1,0.447715 -1,1 0,0.552285 0.4477152,1 1,1 z m 0,2 C 5.3431457,15 4,13.656854 4,12 4,10.343146 5.3431457,9 7,9 c 1.6568543,0 3,1.343146 3,3 0,1.656854 -1.3431457,3 -3,3 z"
         id="Rectangle-75"
         style="fill:#4c566a;fill-opacity:1;stroke-width:0.9999496;stroke-dasharray:none"
         clip-path="url(#clipPath1374)" />
      <path
         d="m 3,12 c 0,2.204644 1.7885254,4 3.9947834,4 H 17.005217 C 19.208284,16 21,14.209139 21,12 21,9.7953562 19.211475,8 17.005217,8 H 6.9947834 C 4.7917156,8 3,9.790861 3,12 Z M 1,12 C 1,8.6877314 3.6857068,6 6.9947834,6 H 17.005217 C 20.315427,6 23,8.6901647 23,12 c 0,3.312269 -2.685707,6 -5.994783,6 H 6.9947834 C 3.6845725,18 1,15.309835 1,12 Z m 6,1 c 0.5522847,0 1,-0.447715 1,-1 0,-0.552285 -0.4477153,-1 -1,-1 -0.5522848,0 -1,0.447715 -1,1 0,0.552285 0.4477152,1 1,1 z m 0,2 C 5.3431457,15 4,13.656854 4,12 4,10.343146 5.3431457,9 7,9 c 1.6568543,0 3,1.343146 3,3 0,1.656854 -1.3431457,3 -3,3 z"
         id="path1114"
         style="fill:#4c566a;fill-opacity:1;stroke-width:0.9999496;stroke-dasharray:none"
         clip-path="url(#clipPath1326)" />
    </g>
  </g>
  <metadata
     id="metadata1032">
    <rdf:RDF>
      <cc:Work
         rdf:about="">
        <dc:title>/svg/ic-switch-off</dc:title>
      </cc:Work>
    </rdf:RDF>
  </metadata>
</svg>
