<?xml version="1.0" encoding="UTF-8" standalone="no"?>
<svg
   t="1731141510658"
   class="icon"
   viewBox="0 0 1024 1024"
   version="1.1"
   p-id="14805"
   width="256"
   height="256"
   id="svg1"
   sodipodi:docname="clock.svg"
   inkscape:version="1.4 (e7c3feb, 2024-10-09)"
   xmlns:inkscape="http://www.inkscape.org/namespaces/inkscape"
   xmlns:sodipodi="http://sodipodi.sourceforge.net/DTD/sodipodi-0.dtd"
   xmlns="http://www.w3.org/2000/svg"
   xmlns:svg="http://www.w3.org/2000/svg">
  <defs
     id="defs1" />
  <sodipodi:namedview
     id="namedview1"
     pagecolor="#ffffff"
     bordercolor="#000000"
     borderopacity="0.25"
     inkscape:showpageshadow="2"
     inkscape:pageopacity="0.0"
     inkscape:pagecheckerboard="0"
     inkscape:deskcolor="#d1d1d1"
     showgrid="false"
     inkscape:zoom="3.6523438"
     inkscape:cx="128.1369"
     inkscape:cy="128"
     inkscape:window-width="1916"
     inkscape:window-height="1163"
     inkscape:window-x="0"
     inkscape:window-y="33"
     inkscape:window-maximized="1"
     inkscape:current-layer="svg1" />
  <path
     d="M512 64C265 64 64 265 64 512s201 448 448 448 448-201 448-448S759 64 512 64z m185.8 612.9c-6.5 12-16.5 20.4-28.1 23.5-3.3 0.9-6.7 1.3-10.1 1.3-7.8 0-15.6-2.3-22.9-6.7l-149.4-96.1c-5.2-3.1-11.4-6.8-15.6-11.8-20.6-13-30.6-26.3-30.6-40.7V281.1c0-27.1 21-49.1 46.9-49.1 25.8 0 46.9 22 46.9 49.1v241.6l142.6 87.6c23.3 14.3 32.4 44.2 20.3 66.6z"
     p-id="14806"
     fill="#c8d3f5"
     id="path1"
     style="fill:#e0def4;fill-opacity:1" />
</svg>
