<?xml version="1.0" encoding="UTF-8" standalone="no"?>
<!-- Uploaded to: SVG Repo, www.svgrepo.com, Generator: SVG Repo Mixer Tools -->

<svg
   fill="#000000"
   width="800px"
   height="800px"
   viewBox="0 0 20 20"
   version="1.1"
   id="svg2154"
   sodipodi:docname="brightness-1.svg"
   inkscape:version="1.2.2 (b0a8486, 2022-12-01)"
   xmlns:inkscape="http://www.inkscape.org/namespaces/inkscape"
   xmlns:sodipodi="http://sodipodi.sourceforge.net/DTD/sodipodi-0.dtd"
   xmlns="http://www.w3.org/2000/svg"
   xmlns:svg="http://www.w3.org/2000/svg">
  <defs
     id="defs2158" />
  <sodipodi:namedview
     id="namedview2156"
     pagecolor="#ffffff"
     bordercolor="#000000"
     borderopacity="0.25"
     inkscape:showpageshadow="2"
     inkscape:pageopacity="0.0"
     inkscape:pagecheckerboard="0"
     inkscape:deskcolor="#d1d1d1"
     showgrid="false"
     inkscape:zoom="1.0225"
     inkscape:cx="399.511"
     inkscape:cy="400"
     inkscape:window-width="1912"
     inkscape:window-height="1012"
     inkscape:window-x="0"
     inkscape:window-y="30"
     inkscape:window-maximized="1"
     inkscape:current-layer="svg2154" />
  <path
     d="M10 13a3 3 0 1 1 0-6 3 3 0 0 1 0 6zM9 4a1 1 0 1 1 2 0 1 1 0 1 1-2 0zm4.54 1.05a1 1 0 1 1 1.41 1.41 1 1 0 1 1-1.41-1.41zM16 9a1 1 0 1 1 0 2 1 1 0 1 1 0-2zm-1.05 4.54a1 1 0 1 1-1.41 1.41 1 1 0 1 1 1.41-1.41zM11 16a1 1 0 1 1-2 0 1 1 0 1 1 2 0zm-4.54-1.05a1 1 0 1 1-1.41-1.41 1 1 0 1 1 1.41 1.41zM4 11a1 1 0 1 1 0-2 1 1 0 1 1 0 2zm1.05-4.54a1 1 0 1 1 1.41-1.41 1 1 0 1 1-1.41 1.41z"
     id="path2152"
     style="fill:#4c566a;fill-opacity:1" />
</svg>
