<?xml version="1.0" encoding="UTF-8" standalone="no"?>
<svg
   t="1731500990747"
   class="icon"
   viewBox="0 0 832 832"
   version="1.1"
   p-id="56508"
   width="208"
   height="208"
   id="svg1"
   sodipodi:docname="caps-off.svg"
   inkscape:version="1.4 (e7c3feb, 2024-10-09)"
   xmlns:inkscape="http://www.inkscape.org/namespaces/inkscape"
   xmlns:sodipodi="http://sodipodi.sourceforge.net/DTD/sodipodi-0.dtd"
   xmlns="http://www.w3.org/2000/svg"
   xmlns:svg="http://www.w3.org/2000/svg">
  <defs
     id="defs1" />
  <sodipodi:namedview
     id="namedview1"
     pagecolor="#ffffff"
     bordercolor="#000000"
     borderopacity="0.25"
     inkscape:showpageshadow="2"
     inkscape:pageopacity="0.0"
     inkscape:pagecheckerboard="0"
     inkscape:deskcolor="#d1d1d1"
     showgrid="false"
     inkscape:zoom="3.7304688"
     inkscape:cx="104.00838"
     inkscape:cy="103.87435"
     inkscape:window-width="1920"
     inkscape:window-height="1167"
     inkscape:window-x="0"
     inkscape:window-y="33"
     inkscape:window-maximized="1"
     inkscape:current-layer="svg1" />
  <path
     d="M 96,0 A 96,96 0 0 0 0,96 v 640 a 96,96 0 0 0 96,96 h 640 a 96,96 0 0 0 96,-96 V 96 A 96,96 0 0 0 736,0 Z m 332.48,111.616 222.72,278.4 A 16,16 0 0 1 638.72,416 H 193.28 A 16,16 0 0 1 180.8,390.016 l 222.72,-278.4 a 16,16 0 0 1 24.96,0 z M 288,416 h 256 v 144 a 16,16 0 0 1 -16,16 H 304 a 16,16 0 0 1 -16,-16 z m 16,256 h 224 a 16,16 0 0 1 16,16 v 32 a 16,16 0 0 1 -16,16 H 304 a 16,16 0 0 1 -16,-16 v -32 a 16,16 0 0 1 16,-16 z"
     fill="#c8d3f5"
     p-id="56509"
     id="path1"
     style="fill:#e0def4;fill-opacity:1" />
</svg>
