<?xml version="1.0" standalone="no"?><!DOCTYPE svg PUBLIC "-//W3C//DTD SVG 1.1//EN" "http://www.w3.org/Graphics/SVG/1.1/DTD/svg11.dtd"><svg t="1729361529564" class="icon" viewBox="0 0 1024 1024" version="1.1" xmlns="http://www.w3.org/2000/svg" p-id="26441" xmlns:xlink="http://www.w3.org/1999/xlink" width="200" height="200"><path d="M193 63.191h640c35.346 0 64 28.654 64 64v768c0 35.346-28.654 64-64 64H193c-35.346 0-64-28.654-64-64v-768c0-35.346 28.654-64 64-64z" fill="#DBDAD8" p-id="26442"></path><path d="M192.875 62.294h640c35.346 0 64 27.694 64 61.857v742.286c0 34.163-28.654 61.857-64 61.857h-640c-35.346 0-64-27.694-64-61.857V124.152c0-34.163 28.654-61.858 64-61.858z" fill="#F3F2F0" p-id="26443"></path><path d="M672 292.2v121.539l-144.882-31.031v318.063c0 18.099-10.08 33.831-30.237 47.193C476.725 761.349 452.787 768 425.072 768c-20.995 0-38.429-6.244-52.284-18.743C358.93 736.782 352 720.623 352 700.771c0-17.242 6.93-32.108 20.788-44.608 13.855-12.474 31.29-20.041 52.284-22.629h36.536c9.242 0 17.429-3.876 24.566-11.634 7.14-7.757 10.708-16.352 10.708-25.856V256L672 292.2z" fill="#707172" p-id="26444"></path></svg>