<?xml version="1.0" encoding="UTF-8" standalone="no"?>
<svg
   t="1729408973613"
   class="icon"
   viewBox="0 0 1099 1024"
   version="1.1"
   p-id="10691"
   width="214.6484375"
   height="200"
   id="svg2"
   sodipodi:docname="lyric-press.svg"
   inkscape:version="1.4 (e7c3feb100, 2024-10-09)"
   xmlns:inkscape="http://www.inkscape.org/namespaces/inkscape"
   xmlns:sodipodi="http://sodipodi.sourceforge.net/DTD/sodipodi-0.dtd"
   xmlns="http://www.w3.org/2000/svg"
   xmlns:svg="http://www.w3.org/2000/svg">
  <defs
     id="defs2">
    <filter
       id="mask-powermask-path-effect5_inverse"
       inkscape:label="filtermask-powermask-path-effect5"
       style="color-interpolation-filters:sRGB"
       height="100"
       width="100"
       x="-50"
       y="-50">
      <feColorMatrix
         id="mask-powermask-path-effect5_primitive1"
         values="1"
         type="saturate"
         result="fbSourceGraphic" />
      <feColorMatrix
         id="mask-powermask-path-effect5_primitive2"
         values="-1 0 0 0 1 0 -1 0 0 1 0 0 -1 0 1 0 0 0 1 0 "
         in="fbSourceGraphic" />
    </filter>
  </defs>
  <sodipodi:namedview
     id="namedview2"
     pagecolor="#505050"
     bordercolor="#eeeeee"
     borderopacity="1"
     inkscape:showpageshadow="0"
     inkscape:pageopacity="0"
     inkscape:pagecheckerboard="0"
     inkscape:deskcolor="#505050"
     inkscape:zoom="2.08"
     inkscape:cx="95.913462"
     inkscape:cy="69.471154"
     inkscape:window-width="1678"
     inkscape:window-height="1091"
     inkscape:window-x="123"
     inkscape:window-y="33"
     inkscape:window-maximized="0"
     inkscape:current-layer="svg2" />
  <rect
     style="fill:#000000;stroke-width:4.35031"
     id="rect2"
     width="921.59998"
     height="921.59998"
     x="88.615387"
     y="57.009228"
     ry="128" />
  <path
     d="M400.384 462.848c0 25.6 20.992 46.592 46.592 46.592s46.592-20.992 46.592-46.592-20.992-46.592-46.592-46.592-46.592 20.992-46.592 46.592zM606.208 462.848c0 25.6 20.992 46.592 46.592 46.592s46.592-20.992 46.592-46.592-20.992-46.592-46.592-46.592-46.592 20.992-46.592 46.592z"
     p-id="10692"
     fill="#ffffff"
     id="path1" />
  <path
     d="M549.888 864.768c-9.216 0-18.944-4.608-28.16-13.824l-93.696-102.912h-158.72c-60.928 0-112.128-51.2-112.128-112.128V271.36c0-60.928 51.2-112.128 112.128-112.128h561.152c60.928 0 112.128 51.2 112.128 112.128v364.544c0 60.928-51.2 112.128-112.128 112.128h-163.84s-88.064 97.792-93.696 102.912c-5.12 5.12-13.824 13.824-23.04 13.824zM227.328 271.36v364.544c0 23.04 18.944 41.984 41.984 41.984h182.272c9.216 0 18.944 4.608 28.16 13.824l70.144 83.968 74.752-83.968c4.608-9.216 13.824-13.824 28.16-13.824h177.664c23.04 0 41.984-18.944 41.984-41.984V271.36c0-23.04-18.944-41.984-41.984-41.984H269.312c-23.04-0.512-41.984 18.432-41.984 41.984z"
     p-id="10693"
     fill="#ffffff"
     id="path2"
     style="fill:#f9f9f9" />
</svg>
