<?xml version="1.0" standalone="no"?><!DOCTYPE svg PUBLIC "-//W3C//DTD SVG 1.1//EN" "http://www.w3.org/Graphics/SVG/1.1/DTD/svg11.dtd"><svg t="1729410032855" class="icon" viewBox="0 0 1024 1024" version="1.1" xmlns="http://www.w3.org/2000/svg" p-id="13758" xmlns:xlink="http://www.w3.org/1999/xlink" width="200" height="200"><path d="M864 1024h-192c-17.6 0-32-14.4-32-32V32c0-17.6 14.4-32 32-32h192c17.6 0 32 14.4 32 32v960c0 17.6-14.4 32-32 32zM352 1024H160c-17.6 0-32-14.4-32-32V32c0-17.6 14.4-32 32-32h192c17.6 0 32 14.4 32 32v960c0 17.6-14.4 32-32 32z" p-id="13759" fill="#ffffff"></path></svg>