<?xml version="1.0" encoding="UTF-8" standalone="no"?>
<!-- Uploaded to: SVG Repo, www.svgrepo.com, Generator: SVG Repo Mixer Tools -->

<svg
   fill="#000000"
   width="650"
   height="800"
   viewBox="-64 0 416 512"
   version="1.1"
   id="svg1601"
   sodipodi:docname="bat-ac.svg"
   inkscape:version="1.2.2 (b0a8486, 2022-12-01)"
   xmlns:inkscape="http://www.inkscape.org/namespaces/inkscape"
   xmlns:sodipodi="http://sodipodi.sourceforge.net/DTD/sodipodi-0.dtd"
   xmlns="http://www.w3.org/2000/svg"
   xmlns:svg="http://www.w3.org/2000/svg">
  <defs
     id="defs1605" />
  <sodipodi:namedview
     id="namedview1603"
     pagecolor="#ffffff"
     bordercolor="#000000"
     borderopacity="0.25"
     inkscape:showpageshadow="2"
     inkscape:pageopacity="0.0"
     inkscape:pagecheckerboard="0"
     inkscape:deskcolor="#d1d1d1"
     showgrid="false"
     inkscape:zoom="2.2375"
     inkscape:cx="400.22346"
     inkscape:cy="400"
     inkscape:window-width="3836"
     inkscape:window-height="2066"
     inkscape:window-x="0"
     inkscape:window-y="52"
     inkscape:window-maximized="1"
     inkscape:current-layer="svg1601" />
  <path
     d="m 241.50769,154.14462 a 14.550771,14.550771 0 0 0 -29.10154,0 v 43.6523 h 29.10154 z m 21.82614,58.20308 H 103.27538 A 7.2753841,7.2753841 0 0 0 96,219.62308 v 14.55076 a 7.2753841,7.2753841 0 0 0 7.27538,7.27539 h 7.27539 V 256 a 72.785671,72.785671 0 0 0 58.20307,71.29876 v 45.10739 h 29.10154 V 327.29876 A 72.785671,72.785671 0 0 0 256.05845,256 v -14.55077 h 7.27538 a 7.2753841,7.2753841 0 0 0 7.27539,-7.27539 v -14.55076 a 7.2753841,7.2753841 0 0 0 -7.27539,-7.27538 z M 154.20307,154.14462 a 14.550769,14.550769 0 0 0 -29.10153,0 v 43.6523 h 29.10153 z"
     id="path1599"
     style="fill:#ffffff;fill-opacity:0.5;stroke-width:0.454712" />
</svg>
