<?xml version="1.0" encoding="UTF-8" standalone="no"?>
<svg
   t="1675531262522"
   class="icon"
   viewBox="0 0 1152 1024"
   version="1.1"
   p-id="2340"
   width="225"
   height="200"
   id="svg3569"
   sodipodi:docname="vol-40.svg"
   inkscape:version="1.2.2 (b0a8486, 2022-12-01)"
   xmlns:inkscape="http://www.inkscape.org/namespaces/inkscape"
   xmlns:sodipodi="http://sodipodi.sourceforge.net/DTD/sodipodi-0.dtd"
   xmlns="http://www.w3.org/2000/svg"
   xmlns:svg="http://www.w3.org/2000/svg">
  <defs
     id="defs3573" />
  <sodipodi:namedview
     id="namedview3571"
     pagecolor="#ffffff"
     bordercolor="#000000"
     borderopacity="0.25"
     inkscape:showpageshadow="2"
     inkscape:pageopacity="0.0"
     inkscape:pagecheckerboard="0"
     inkscape:deskcolor="#d1d1d1"
     showgrid="false"
     inkscape:zoom="8.85"
     inkscape:cx="112.59887"
     inkscape:cy="101.58192"
     inkscape:window-width="3836"
     inkscape:window-height="2046"
     inkscape:window-x="0"
     inkscape:window-y="60"
     inkscape:window-maximized="1"
     inkscape:current-layer="svg3569" />
  <path
     id="path3567"
     style="display:inline;fill:#ffffff;fill-opacity:0.9;stroke-width:0.543784"
     d="m 517.91,303.37 c -7.35415,-0.85066 -15.14836,1.36835 -21.27,7.49 l -96.76,96.74 h -111 c -14.42115,0 -26.1,11.67885 -26.1,26.1 v 156.61 c 0,14.41027 11.67885,26.1 26.1,26.1 h 111 l 96.76,96.74 c 16.34614,16.34614 44.56,4.86745 44.56,-18.45 V 329.32 c 0,-14.587 -11.03309,-24.53223 -23.29,-25.95 z m 102.85,121.96 c -10.10928,-1.03693 -20.36336,3.88 -25.6,13.35 -6.94955,12.62666 -2.34667,28.4987 10.28,35.47 14.0405,7.71086 22.76,22.23166 22.76,37.86 0,15.63922 -8.72037,30.13915 -22.75,37.85 -12.62666,6.97131 -17.22956,22.84334 -10.28,35.47 6.99305,12.68104 22.89771,17.18605 35.47,10.28 30.70203,-16.91168 49.78,-48.93834 49.78,-83.61 0,-34.67166 -19.07709,-66.6992 -49.79,-83.6 -3.14851,-1.72108 -6.50024,-2.72436 -9.87,-3.07 z" />
  <path
     id="path4065"
     style="display:inline;fill:#ffffff;fill-opacity:0.2;stroke-width:0.543784"
     d="m 740.69,251.41 c -10.08991,-1.84751 -20.7611,2.33258 -26.74,11.46 -7.98274,12.14813 -4.58814,28.46813 7.56,36.44 72.07311,47.29831 115.08,126.81391 115.08,212.71 0,85.89609 -43.00689,165.40168 -115.08,212.7 -12.14814,7.96099 -15.54274,24.30275 -7.56,36.44 7.65648,11.64786 23.84597,15.83639 36.44,7.56 86.91841,-57.0538 138.83,-153.03217 138.83,-256.71 0,-103.67783 -51.91159,-199.64621 -138.83,-256.7 -3.03703,-1.99297 -6.3367,-3.28416 -9.7,-3.9 z m -58.84,86.94 c -10.03485,-1.68539 -20.55685,2.64918 -26.34,11.85 -7.71085,12.26777 -4.10989,28.50389 8.06,36.28 43.23082,27.61334 69.04,74.53395 69.04,125.53 0,50.99605 -25.80918,97.90666 -69.04,125.52 -12.16989,7.76523 -15.77085,24.00135 -8.06,36.28 7.08007,11.2672 22.96919,16.47252 36.02,8.12 58.41326,-37.30357 93.28,-100.81595 93.28,-169.92 0,-69.09317 -34.86674,-132.62643 -93.28,-169.93 -3.04247,-1.94131 -6.33505,-3.1682 -9.68,-3.73 z" />
</svg>
