<?xml version="1.0" encoding="UTF-8" standalone="no"?>
<svg
   t="1675531262522"
   class="icon"
   viewBox="0 0 1152 1024"
   version="1.1"
   p-id="2340"
   width="225"
   height="200"
   id="svg3569"
   sodipodi:docname="vol-bar100.svg"
   inkscape:version="1.2.2 (b0a8486, 2022-12-01)"
   xmlns:inkscape="http://www.inkscape.org/namespaces/inkscape"
   xmlns:sodipodi="http://sodipodi.sourceforge.net/DTD/sodipodi-0.dtd"
   xmlns="http://www.w3.org/2000/svg"
   xmlns:svg="http://www.w3.org/2000/svg">
  <defs
     id="defs3573" />
  <sodipodi:namedview
     id="namedview3571"
     pagecolor="#ffffff"
     bordercolor="#000000"
     borderopacity="0.25"
     inkscape:showpageshadow="2"
     inkscape:pageopacity="0.0"
     inkscape:pagecheckerboard="0"
     inkscape:deskcolor="#d1d1d1"
     showgrid="false"
     inkscape:zoom="8.85"
     inkscape:cx="112.71186"
     inkscape:cy="101.69492"
     inkscape:window-width="3836"
     inkscape:window-height="2046"
     inkscape:window-x="0"
     inkscape:window-y="60"
     inkscape:window-maximized="1"
     inkscape:current-layer="svg3569" />
  <path
     d="m 496.64011,310.86022 -96.761,96.73924 H 288.88184 c -14.42116,0 -26.10165,11.68049 -26.10165,26.10165 v 156.60991 c 0,14.41028 11.68049,26.10165 26.10165,26.10165 h 110.99727 l 96.761,96.73924 c 16.34616,16.34616 44.55769,4.86143 44.55769,-18.45604 V 329.31626 c 0,-23.33923 -28.23329,-34.78045 -44.55769,-18.45604 z m 253.75154,-55.55301 c -12.14814,-7.97188 -28.47255,-4.6113 -36.44443,7.5586 -7.98275,12.14814 -4.58954,28.47255 7.55861,36.44443 72.07318,47.29836 115.08652,126.81052 115.08652,212.7067 0,85.89618 -43.01334,165.40833 -115.08652,212.7067 -12.14815,7.961 -15.54136,24.29629 -7.55861,36.43355 7.65649,11.64787 23.85039,15.83501 36.44443,7.55861 86.9185,-57.05386 138.82816,-153.03181 138.82816,-256.70974 0,-103.67793 -51.90966,-199.645 -138.82816,-256.69885 z m 34.42156,256.69885 c 0,-69.09324 -34.86746,-132.61813 -93.28078,-169.92174 -12.16989,-7.76524 -28.30941,-4.15451 -36.02028,8.11326 -7.71086,12.26778 -4.11101,28.50518 8.05889,36.2813 43.23086,27.61337 69.03886,74.53108 69.03886,125.52718 0,50.9961 -25.808,97.91382 -69.03886,125.52719 -12.1699,7.76524 -15.76975,24.00264 -8.05889,36.2813 7.08008,11.26721 22.96946,16.46579 36.02028,8.11326 58.41332,-37.30361 93.28078,-100.81763 93.28078,-169.92175 z M 630.62858,428.40465 c -12.59405,-6.88431 -28.48343,-2.34915 -35.46562,10.27753 -6.94956,12.62667 -2.34915,28.4943 10.27753,35.46561 14.04051,7.71087 22.76281,22.22991 22.76281,37.85827 0,15.63924 -8.7223,30.14741 -22.75194,37.85827 -12.62667,6.97132 -17.22709,22.83895 -10.27752,35.46562 6.99306,12.68105 22.89332,17.18359 35.46562,10.27753 30.70206,-16.9117 49.77802,-48.9406 49.77802,-83.61229 0,-34.67169 -19.07596,-66.68972 -49.7889,-83.59054 z"
     p-id="2341"
     fill="#ffffff"
     id="path3567"
     style="stroke-width:0.543784;fill:#808080;fill-opacity:0.89999998" />
</svg>
