<?xml version="1.0" encoding="UTF-8" standalone="no"?>
<!-- Uploaded to: SVG Repo, www.svgrepo.com, Generator: SVG Repo Mixer Tools -->

<svg
   fill="#000000"
   width="800"
   height="400"
   viewBox="0 0 56 28"
   version="1.1"
   id="svg28"
   sodipodi:docname="bat-charging-100.svg"
   inkscape:version="1.3 (0e150ed, 2023-07-21)"
   xmlns:inkscape="http://www.inkscape.org/namespaces/inkscape"
   xmlns:sodipodi="http://sodipodi.sourceforge.net/DTD/sodipodi-0.dtd"
   xmlns="http://www.w3.org/2000/svg"
   xmlns:svg="http://www.w3.org/2000/svg">
  <defs
     id="defs32">
    <inkscape:path-effect
       effect="powerclip"
       id="path-effect942"
       is_visible="true"
       lpeversion="1"
       inverse="true"
       flatten="false"
       hide_clip="false"
       message="Use fill-rule evenodd on &lt;b&gt;fill and stroke&lt;/b&gt; dialog if no flatten result after convert clip to paths." />
    <inkscape:path-effect
       effect="powerclip"
       id="path-effect938"
       is_visible="true"
       lpeversion="1"
       inverse="true"
       flatten="false"
       hide_clip="false"
       message="Use fill-rule evenodd on &lt;b&gt;fill and stroke&lt;/b&gt; dialog if no flatten result after convert clip to paths." />
    <clipPath
       clipPathUnits="userSpaceOnUse"
       id="clipPath930">
      <path
         style="display:none;fill:#242933;fill-opacity:1;stroke:#242933;stroke-width:0;stroke-dasharray:none;stroke-opacity:1;paint-order:stroke markers fill"
         d="m 15.363754,27.127 10.941632,-14.419364 2.012689,-2.7308853 4.287599,0.01181 -0.544835,2.6839753 -3.015297,10.801067 4.268362,-0.0019 c 0,0 1.689817,0.03551 2.462871,1.712305 0.773057,1.676784 -0.458573,3.128664 -0.458573,3.128664 l -13.109807,17.497645 -4.900586,0.0066 c 0,0 0.831181,-2.517039 1.46102,-4.587307 0.629835,-2.070272 2.503594,-8.839534 2.503594,-8.839534 l -4.202369,0.02945 c 0,0 -1.837346,-0.08845 -2.548929,-1.751115 -0.711579,-1.662669 0.323317,-2.919058 0.842629,-3.54158 z"
         id="path932"
         sodipodi:nodetypes="cccccccscccsccssc" />
      <path
         id="lpe_path-effect938"
         style="fill:#242933;fill-opacity:1;stroke:#242933;stroke-width:0;stroke-dasharray:none;stroke-opacity:1;paint-order:stroke markers fill"
         class="powerclip"
         d="M 0.2810352,14.281035 H 50.030234 V 41.736738 H 0.2810352 Z M 15.363754,27.127 v -1.69e-4 c -0.519312,0.622522 -1.554208,1.878911 -0.842629,3.54158 0.711583,1.662665 2.548929,1.751115 2.548929,1.751115 l 4.202369,-0.02945 c 0,0 -1.873759,6.769262 -2.503594,8.839534 -0.629839,2.070268 -1.46102,4.587307 -1.46102,4.587307 l 4.900586,-0.0066 13.109807,-17.497645 c 0,0 1.23163,-1.45188 0.458573,-3.128664 -0.773054,-1.676795 -2.462871,-1.712305 -2.462871,-1.712305 l -4.268362,0.0019 3.015297,-10.801067 0.544835,-2.6839753 -4.287599,-0.01181 -2.012689,2.7308853 z" />
    </clipPath>
    <clipPath
       clipPathUnits="userSpaceOnUse"
       id="clipPath934">
      <path
         style="display:none;fill:#242933;fill-opacity:1;stroke:#242933;stroke-width:0;stroke-dasharray:none;stroke-opacity:1;paint-order:stroke markers fill"
         d="m 15.363754,27.127 10.941632,-14.419364 2.012689,-2.7308853 4.287599,0.01181 -0.544835,2.6839753 -3.015297,10.801067 4.268362,-0.0019 c 0,0 1.689817,0.03551 2.462871,1.712305 0.773057,1.676784 -0.458573,3.128664 -0.458573,3.128664 l -13.109807,17.497645 -4.900586,0.0066 c 0,0 0.831181,-2.517039 1.46102,-4.587307 0.629835,-2.070272 2.503594,-8.839534 2.503594,-8.839534 l -4.202369,0.02945 c 0,0 -1.837346,-0.08845 -2.548929,-1.751115 -0.711579,-1.662669 0.323317,-2.919058 0.842629,-3.54158 z"
         id="path936"
         sodipodi:nodetypes="cccccccscccsccssc" />
      <path
         id="lpe_path-effect942"
         style="fill:#242933;fill-opacity:1;stroke:#242933;stroke-width:0;stroke-dasharray:none;stroke-opacity:1;paint-order:stroke markers fill"
         class="powerclip"
         d="M -5,9 H 61 V 47 H -5 Z m 20.363754,18.127 v -1.69e-4 c -0.519312,0.622522 -1.554208,1.878911 -0.842629,3.54158 0.711583,1.662665 2.548929,1.751115 2.548929,1.751115 l 4.202369,-0.02945 c 0,0 -1.873759,6.769262 -2.503594,8.839534 -0.629839,2.070268 -1.46102,4.587307 -1.46102,4.587307 l 4.900586,-0.0066 13.109807,-17.497645 c 0,0 1.23163,-1.45188 0.458573,-3.128664 -0.773054,-1.676795 -2.462871,-1.712305 -2.462871,-1.712305 l -4.268362,0.0019 3.015297,-10.801067 0.544835,-2.6839753 -4.287599,-0.01181 -2.012689,2.7308853 z" />
    </clipPath>
  </defs>
  <sodipodi:namedview
     id="namedview30"
     pagecolor="#ffffff"
     bordercolor="#000000"
     borderopacity="0.25"
     inkscape:showpageshadow="2"
     inkscape:pageopacity="0.0"
     inkscape:pagecheckerboard="0"
     inkscape:deskcolor="#d1d1d1"
     showgrid="false"
     inkscape:zoom="1"
     inkscape:cx="381"
     inkscape:cy="141.5"
     inkscape:window-width="1906"
     inkscape:window-height="1005"
     inkscape:window-x="6"
     inkscape:window-y="37"
     inkscape:window-maximized="0"
     inkscape:current-layer="svg28"
     showguides="true">
    <sodipodi:guide
       position="25.154817,27.999877"
       orientation="0,-1"
       id="guide1452"
       inkscape:locked="false" />
    <sodipodi:guide
       position="21.5075,0"
       orientation="0,-1"
       id="guide1454"
       inkscape:locked="false" />
    <sodipodi:guide
       position="5.280999,19.39906"
       orientation="1,0"
       id="guide1458"
       inkscape:locked="false" />
    <sodipodi:guide
       position="7.3789844,22.719102"
       orientation="0,-1"
       id="guide1460"
       inkscape:locked="false" />
    <sodipodi:guide
       position="5.6330859,5.263398"
       orientation="0,-1"
       id="guide1462"
       inkscape:locked="false" />
    <sodipodi:guide
       position="45.029961,21.610586"
       orientation="1,0"
       id="guide1464"
       inkscape:locked="false" />
    <sodipodi:guide
       position="8.6126714,5.256355"
       orientation="1,0"
       id="guide1575"
       inkscape:locked="false" />
    <sodipodi:guide
       position="5.2940234,19.387539"
       orientation="0,-1"
       id="guide1577"
       inkscape:locked="false" />
    <sodipodi:guide
       position="5.2904687,8.595234"
       orientation="0,-1"
       id="guide1579"
       inkscape:locked="false" />
    <sodipodi:guide
       position="41.698776,22.741763"
       orientation="1,0"
       id="guide1581"
       inkscape:locked="false" />
    <sodipodi:guide
       position="25.155444,22.751194"
       orientation="1,0"
       id="guide1583"
       inkscape:locked="false" />
  </sodipodi:namedview>
  <path
     id="path26"
     style="display:inline;fill:#222f3e;fill-opacity:0.3019608;stroke-width:1.00002;stroke-dasharray:none"
     d="M 9.4100781,14 C 6.4329291,14 3.8809092,14.301321 2.0733398,16.108887 0.26577125,17.916353 0,20.432929 0,23.410078 v 9.144434 c 0,3.030249 0.26577125,5.564509 2.0733398,7.354375 C 3.8809092,41.716453 6.4329127,42 9.4632617,42 H 40.848145 c 3.030449,0 5.582302,-0.283547 7.389785,-2.091113 1.807766,-1.807566 2.055566,-4.324126 2.055566,-7.354375 v -9.09125 c 0,-3.030349 -0.2478,-5.564609 -2.055566,-7.354375 C 46.412764,14.301321 43.878594,14 40.848145,14 Z M 9.020293,16.853184 H 41.34416 c 1.807766,0 3.73941,0.265896 4.802793,1.329179 1.080783,1.080983 1.293496,2.95948 1.293496,4.784746 v 10.083555 c 0,1.825266 -0.230513,3.7038 -1.293496,4.784883 -1.063383,1.080983 -2.995027,1.311269 -4.802793,1.311269 H 8.9671094 C 7.14184,39.146816 5.2278728,38.89873 4.1645898,37.835547 3.0835085,36.754464 2.8531836,34.87593 2.8531836,33.050664 V 23.020156 c 0,-1.860666 0.2303515,-3.77451 1.2936328,-4.837793 1.0810813,-1.080983 3.0127072,-1.329179 4.8734766,-1.329179 z m 43.701328,6.4683 v 9.162071 C 54.121408,32.394953 56,30.604982 56,27.893633 56,25.199984 54.121404,23.410082 52.721621,23.321484 Z"
     clip-path="url(#clipPath934)"
     inkscape:path-effect="#path-effect942"
     inkscape:original-d="M 9.4100781,14 C 6.4329291,14 3.8809092,14.301321 2.0733398,16.108887 0.26577125,17.916353 0,20.432929 0,23.410078 v 9.144434 c 0,3.030249 0.26577125,5.564509 2.0733398,7.354375 C 3.8809092,41.716453 6.4329127,42 9.4632617,42 H 40.848145 c 3.030449,0 5.582302,-0.283547 7.389785,-2.091113 1.807766,-1.807566 2.055566,-4.324126 2.055566,-7.354375 v -9.09125 c 0,-3.030349 -0.2478,-5.564609 -2.055566,-7.354375 C 46.412764,14.301321 43.878594,14 40.848145,14 Z M 9.020293,16.853184 H 41.34416 c 1.807766,0 3.73941,0.265896 4.802793,1.329179 1.080783,1.080983 1.293496,2.95948 1.293496,4.784746 v 10.083555 c 0,1.825266 -0.230513,3.7038 -1.293496,4.784883 -1.063383,1.080983 -2.995027,1.311269 -4.802793,1.311269 H 8.9671094 C 7.14184,39.146816 5.2278728,38.89873 4.1645898,37.835547 3.0835085,36.754464 2.8531836,34.87593 2.8531836,33.050664 V 23.020156 c 0,-1.860666 0.2303515,-3.77451 1.2936328,-4.837793 1.0810813,-1.080983 3.0127072,-1.329179 4.8734766,-1.329179 z m 43.701328,6.4683 v 9.162071 C 54.121408,32.394953 56,30.604982 56,27.893633 56,25.199984 54.121404,23.410082 52.721621,23.321484 Z"
     transform="translate(0,-14)" />
  <path
     id="path869"
     style="display:inline;fill:#a3be8c;fill-opacity:1;stroke-width:1.00002;stroke-dasharray:none"
     d="m 8.6125977,19.281035 c -1.3112922,0 -2.0379427,0.159424 -2.6050391,0.726524 -0.5670964,0.567094 -0.7265234,1.293787 -0.7265234,2.605175 v 10.792305 c 0,1.293694 0.159427,2.037945 0.7265234,2.605039 0.5670964,0.5494 1.2937469,0.72666 2.6050391,0.72666 H 41.698809 c 1.311288,0 2.037871,-0.17726 2.604765,-0.72666 0.5673,-0.567094 0.72666,-1.311345 0.72666,-2.605039 V 22.612734 c 0,-1.311388 -0.17716,-2.038081 -0.72666,-2.605175 -0.566894,-0.5671 -1.293477,-0.726524 -2.604765,-0.726524 z"
     clip-path="url(#clipPath930)"
     inkscape:path-effect="#path-effect938"
     inkscape:original-d="m 8.6125977,19.281035 c -1.3112922,0 -2.0379427,0.159424 -2.6050391,0.726524 -0.5670964,0.567094 -0.7265234,1.293787 -0.7265234,2.605175 v 10.792305 c 0,1.293694 0.159427,2.037945 0.7265234,2.605039 0.5670964,0.5494 1.2937469,0.72666 2.6050391,0.72666 H 41.698809 c 1.311288,0 2.037871,-0.17726 2.604765,-0.72666 0.5673,-0.567094 0.72666,-1.311345 0.72666,-2.605039 V 22.612734 c 0,-1.311388 -0.17716,-2.038081 -0.72666,-2.605175 -0.566894,-0.5671 -1.293477,-0.726524 -2.604765,-0.726524 z"
     transform="translate(0,-14)" />
  <path
     d="m 30.081395,16.729679 2.961893,-3.883178 c 0.04174,-0.06335 0.07038,-0.134403 0.08425,-0.208984 0.0045,-0.02386 0.0074,-0.04799 0.0088,-0.07222 0.0032,-0.04723 2.27e-4,-0.09468 -0.0088,-0.141147 -0.01277,-0.06788 -0.03799,-0.132795 -0.0744,-0.191476 -0.02383,-0.0382 -0.05253,-0.07314 -0.08534,-0.103942 -0.01624,-0.01537 -0.03383,-0.02929 -0.05253,-0.04158 -0.03711,-0.02625 -0.07808,-0.04655 -0.121456,-0.06018 -0.04636,-0.01468 -0.09471,-0.02207 -0.143335,-0.02189 h -6.742215 l 1.326125,-4.727873 0.353415,-1.258285 0.679474,-2.424661 0.05579,-0.201326 0.852352,-3.037394 v 0 c 0.0034,-0.01989 0.0052,-0.04 0.0055,-0.06018 v -0.0175 c 0,-0.0055 0,-0.02846 -0.0055,-0.04157 -0.0055,-0.01313 0,-0.0098 0,-0.01531 -0.0044,-0.01705 -0.01068,-0.03356 -0.01859,-0.04924 v 0 c -0.0086,-0.0148 -0.0181,-0.02905 -0.02846,-0.04267 l -0.0098,-0.01093 c -0.0086,-0.0091 -0.01771,-0.01735 -0.02735,-0.02516 l -0.01093,-0.0088 c -0.01357,-0.0098 -0.02782,-0.01856 -0.04267,-0.02626 v 0 c -0.01435,-0.0066 -0.0294,-0.01181 -0.04487,-0.01532 h -0.01421 -0.03611 -0.01422 c -0.01637,-0.0017 -0.03287,-0.0017 -0.04924,0 v 0 c -0.01591,0.0037 -0.03133,0.0092 -0.04596,0.01642 l -0.01422,0.0077 -0.03283,0.02298 -0.01206,0.01093 c -0.0148,0.01341 -0.028,0.02847 -0.0394,0.04487 v 0 l -1.969505,2.585517 -1.43773,1.884146 -1.077749,1.403807 -6.970903,9.141723 c -0.01835,0.02786 -0.03445,0.05712 -0.04814,0.08753 -0.01751,0.03807 -0.03035,0.07811 -0.0383,0.119257 -0.0095,0.04643 -0.01231,0.09393 -0.0088,0.141148 0.0074,0.161547 0.08796,0.310937 0.218834,0.405933 0.01892,0.01259 0.03867,0.02392 0.05909,0.03392 0.06446,0.03118 0.135187,0.04727 0.206799,0.04705 h 6.742226 l -3.262789,11.644071 c -0.0015,0.0204 -0.0015,0.04088 0,0.06128 v 0.0164 c 7.91e-4,0.01402 0.0032,0.02793 0.0066,0.04157 -5.66e-4,0.005 -5.66e-4,0.01017 0,0.01532 0.0044,0.01705 0.01068,0.03356 0.01859,0.04924 v 0 c 0.0086,0.01445 0.0181,0.02835 0.02846,0.04157 l 0.0098,0.01093 0.02735,0.02626 c 0.0041,0.0023 0.0078,0.0052 0.01093,0.0088 0.01333,0.0098 0.02763,0.01825 0.04267,0.02516 v 0 c 0.01454,0.0061 0.02953,0.01131 0.04487,0.01532 h 0.01422 c 0.01206,9.86e-4 0.0241,9.86e-4 0.0361,0 h 0.01422 c 0.01659,-5.66e-4 0.03308,-0.0028 0.04924,-0.0066 v 0 c 0.01554,-0.0042 0.03058,-0.01006 0.04485,-0.0175 l 0.01422,-0.0077 0.03283,-0.02298 0.01206,-0.0098 c 0.0148,-0.01341 0.028,-0.02846 0.03939,-0.04487 v 0 l 2.551596,-3.331721 1.918066,-2.516571 z"
     id="path3644"
     style="fill:#222f3e;fill-opacity:1;stroke-width:0.109416"
     sodipodi:nodetypes="ccccccccccccccccscsscssccccssccccssccccscccccccccccccccccssccccssccccssccccscccc" />
</svg>
