<?xml version="1.0" encoding="UTF-8" standalone="no"?>
<!-- Uploaded to: SVG Repo, www.svgrepo.com, Generator: SVG Repo Mixer Tools -->

<svg
   fill="#000000"
   width="800"
   height="400"
   viewBox="0 0 56 28"
   version="1.1"
   id="svg28"
   sodipodi:docname="bat-10.svg"
   inkscape:version="1.2.2 (b0a8486, 2022-12-01)"
   xmlns:inkscape="http://www.inkscape.org/namespaces/inkscape"
   xmlns:sodipodi="http://sodipodi.sourceforge.net/DTD/sodipodi-0.dtd"
   xmlns="http://www.w3.org/2000/svg"
   xmlns:svg="http://www.w3.org/2000/svg">
  <defs
     id="defs32" />
  <sodipodi:namedview
     id="namedview30"
     pagecolor="#ffffff"
     bordercolor="#000000"
     borderopacity="0.25"
     inkscape:showpageshadow="2"
     inkscape:pageopacity="0.0"
     inkscape:pagecheckerboard="0"
     inkscape:deskcolor="#d1d1d1"
     showgrid="false"
     inkscape:zoom="1"
     inkscape:cx="365"
     inkscape:cy="225.5"
     inkscape:window-width="1912"
     inkscape:window-height="1012"
     inkscape:window-x="0"
     inkscape:window-y="30"
     inkscape:window-maximized="1"
     inkscape:current-layer="svg28"
     showguides="true">
    <sodipodi:guide
       position="25.154817,27.999877"
       orientation="0,-1"
       id="guide1452"
       inkscape:locked="false" />
    <sodipodi:guide
       position="21.5075,0"
       orientation="0,-1"
       id="guide1454"
       inkscape:locked="false" />
    <sodipodi:guide
       position="5.280999,19.39906"
       orientation="1,0"
       id="guide1458"
       inkscape:locked="false" />
    <sodipodi:guide
       position="7.3789844,22.719102"
       orientation="0,-1"
       id="guide1460"
       inkscape:locked="false" />
    <sodipodi:guide
       position="5.6330859,5.263398"
       orientation="0,-1"
       id="guide1462"
       inkscape:locked="false" />
    <sodipodi:guide
       position="45.029961,21.610586"
       orientation="1,0"
       id="guide1464"
       inkscape:locked="false" />
    <sodipodi:guide
       position="8.6126714,5.256355"
       orientation="1,0"
       id="guide1575"
       inkscape:locked="false" />
    <sodipodi:guide
       position="5.2940234,19.387539"
       orientation="0,-1"
       id="guide1577"
       inkscape:locked="false" />
    <sodipodi:guide
       position="5.2904687,8.595234"
       orientation="0,-1"
       id="guide1579"
       inkscape:locked="false" />
    <sodipodi:guide
       position="41.698776,22.741763"
       orientation="1,0"
       id="guide1581"
       inkscape:locked="false" />
    <sodipodi:guide
       position="25.155444,22.751194"
       orientation="1,0"
       id="guide1583"
       inkscape:locked="false" />
  </sodipodi:namedview>
  <path
     id="path26"
     style="display:inline;fill:#4c566a;fill-opacity:0.30000001;stroke-width:1.00002;stroke-dasharray:none"
     d="M 9.4100781,0 C 6.4329291,0 3.8809092,0.301321 2.0733398,2.108887 0.26577125,3.916353 0,6.432929 0,9.410078 v 9.144434 c 0,3.030249 0.26577125,5.564509 2.0733398,7.354375 C 3.8809092,27.716453 6.4329127,28 9.4632617,28 H 40.848145 c 3.030449,0 5.582302,-0.283547 7.389785,-2.091113 1.807766,-1.807566 2.055566,-4.324126 2.055566,-7.354375 v -9.09125 c 0,-3.030349 -0.2478,-5.564609 -2.055566,-7.354375 C 46.412764,0.301321 43.878594,0 40.848145,0 Z M 9.020293,2.853184 H 41.34416 c 1.807766,0 3.73941,0.265896 4.802793,1.329179 1.080783,1.080983 1.293496,2.95948 1.293496,4.784746 v 10.083555 c 0,1.825266 -0.230513,3.7038 -1.293496,4.784883 -1.063383,1.080983 -2.995027,1.311269 -4.802793,1.311269 H 8.9671094 C 7.14184,25.146816 5.2278728,24.89873 4.1645898,23.835547 3.0835085,22.754464 2.8531836,20.87593 2.8531836,19.050664 V 9.020156 c 0,-1.860666 0.2303515,-3.77451 1.2936328,-4.837793 C 5.2278977,3.10138 7.1595236,2.853184 9.020293,2.853184 Z m 43.701328,6.4683 v 9.162071 C 54.121408,18.394953 56,16.604982 56,13.893633 56,11.199984 54.121404,9.410082 52.721621,9.321484 Z" />
  <rect
     style="fill:#bf616a;fill-opacity:1;stroke-width:0.0306155"
     id="rect2960"
     width="3.9749219"
     height="17.45569"
     x="5.2810102"
     y="5.2810097"
     rx="2.4567187"
     ry="2.5165906" />
</svg>
