<?xml version="1.0" encoding="UTF-8" standalone="no"?>
<!-- Created with Inkscape (http://www.inkscape.org/) -->

<svg
   width="129.08052mm"
   height="129.08099mm"
   viewBox="0 0 129.08052 129.08099"
   version="1.1"
   id="svg5"
   inkscape:version="1.4 (e7c3feb, 2024-10-09)"
   sodipodi:docname="floating.svg"
   xmlns:inkscape="http://www.inkscape.org/namespaces/inkscape"
   xmlns:sodipodi="http://sodipodi.sourceforge.net/DTD/sodipodi-0.dtd"
   xmlns="http://www.w3.org/2000/svg"
   xmlns:svg="http://www.w3.org/2000/svg">
  <sodipodi:namedview
     id="namedview7"
     pagecolor="#ffffff"
     bordercolor="#000000"
     borderopacity="0.25"
     inkscape:showpageshadow="2"
     inkscape:pageopacity="0.0"
     inkscape:pagecheckerboard="0"
     inkscape:deskcolor="#d1d1d1"
     inkscape:document-units="mm"
     showgrid="false"
     inkscape:zoom="0.914906"
     inkscape:cx="155.2072"
     inkscape:cy="360.14629"
     inkscape:window-width="1916"
     inkscape:window-height="1163"
     inkscape:window-x="0"
     inkscape:window-y="33"
     inkscape:window-maximized="1"
     inkscape:current-layer="layer1" />
  <defs
     id="defs2">
    <inkscape:path-effect
       effect="powerclip"
       id="path-effect1548"
       is_visible="true"
       lpeversion="1"
       inverse="true"
       flatten="false"
       hide_clip="false"
       message="" />
    <clipPath
       clipPathUnits="userSpaceOnUse"
       id="clipPath1544">
      <rect
         style="display:none;fill:#808080;stroke:#666666;stroke-width:0"
         id="rect1546"
         width="100"
         height="100"
         x="94.700058"
         y="101.51878"
         rx="21.427614"
         ry="0"
         d="m 116.12767,101.51878 h 57.14477 c 11.8709,0 21.42762,9.55672 21.42762,21.42762 v 57.14477 c 0,11.8709 -9.55672,21.42761 -21.42762,21.42761 h -57.14477 c -11.8709,0 -21.427612,-9.55671 -21.427612,-21.42761 V 122.9464 c 0,-11.8709 9.556712,-21.42762 21.427612,-21.42762 z" />
      <path
         id="lpe_path-effect1548"
         style="fill:#808080;stroke:#666666;stroke-width:0"
         class="powerclip"
         d="M 61.451057,69.813217 H 146.70311 V 157.97382 H 61.451057 Z m 54.676613,31.705563 c -11.8709,0 -21.427612,9.55672 -21.427612,21.42762 v 57.14477 c 0,11.8709 9.556712,21.42761 21.427612,21.42761 h 57.14477 c 11.8709,0 21.42762,-9.55671 21.42762,-21.42761 V 122.9464 c 0,-11.8709 -9.55672,-21.42762 -21.42762,-21.42762 z" />
    </clipPath>
  </defs>
  <g
     inkscape:label="Layer 1"
     inkscape:groupmode="layer"
     id="layer1"
     transform="translate(-65.600563,-63.519733)">
    <path
       style="fill:#e0def4;fill-opacity:1;stroke:#666666;stroke-width:0"
       id="rect788"
       width="75.252052"
       height="78.160606"
       x="66.451057"
       y="74.813217"
       rx="14.517455"
       ry="14.517455"
       clip-path="url(#clipPath1544)"
       inkscape:path-effect="#path-effect1548"
       d="m 80.968513,74.813217 h 46.217137 c 8.04267,0 14.51746,6.474785 14.51746,14.517455 v 49.125698 c 0,8.04267 -6.47479,14.51745 -14.51746,14.51745 H 80.968513 c -8.042671,0 -14.517456,-6.47478 -14.517456,-14.51745 V 89.330672 c 0,-8.04267 6.474785,-14.517455 14.517456,-14.517455 z"
       sodipodi:type="rect"
       transform="rotate(180,130.56607,133.46394)" />
    <rect
       style="fill:#e0def4;fill-opacity:1;stroke:#666666;stroke-width:0"
       id="rect1650"
       width="88.458633"
       height="88.458633"
       x="65.600563"
       y="64.277733"
       rx="14.773067"
       ry="14.773067" />
  </g>
</svg>
