<?xml version="1.0" encoding="UTF-8" standalone="no"?>
<svg
   t="1675531262522"
   class="icon"
   viewBox="0 0 626.44223 522.06594"
   version="1.1"
   p-id="2340"
   width="122.352"
   height="101.966"
   id="svg3569"
   sodipodi:docname="vol-0.svg"
   inkscape:version="1.2.2 (b0a8486, 2022-12-01)"
   xmlns:inkscape="http://www.inkscape.org/namespaces/inkscape"
   xmlns:sodipodi="http://sodipodi.sourceforge.net/DTD/sodipodi-0.dtd"
   xmlns="http://www.w3.org/2000/svg"
   xmlns:svg="http://www.w3.org/2000/svg">
  <defs
     id="defs3573">
    <clipPath
       clipPathUnits="userSpaceOnUse"
       id="clipPath1585">
      <path
         style="fill:#b3b3b3;fill-opacity:1;stroke:#666666;stroke-width:0"
         d="m 250.29694,409.06391 65.46975,-4.40852 6.01572,2.91613 219.59835,219.41329 25.13301,101.12522 -79.9493,24.34734 -265.19041,-50.50486 -17.35628,-205.89972 z"
         id="path1587" />
    </clipPath>
    <clipPath
       clipPathUnits="userSpaceOnUse"
       id="clipPath1593">
      <path
         style="fill:#b3b3b3;fill-opacity:1;stroke:#666666;stroke-width:0"
         d="m 454.516,337.46691 -3.43719,19.04501 90.35295,90.60277 91.00861,4.79675 41.23643,-228.28762 -213.16432,15.15226 z"
         id="path1595" />
    </clipPath>
  </defs>
  <sodipodi:namedview
     id="namedview3571"
     pagecolor="#ffffff"
     bordercolor="#000000"
     borderopacity="0.25"
     inkscape:showpageshadow="2"
     inkscape:pageopacity="0.0"
     inkscape:pagecheckerboard="0"
     inkscape:deskcolor="#d1d1d1"
     showgrid="false"
     inkscape:zoom="5.6568542"
     inkscape:cx="38.890873"
     inkscape:cy="53.828504"
     inkscape:window-width="1912"
     inkscape:window-height="1012"
     inkscape:window-x="0"
     inkscape:window-y="30"
     inkscape:window-maximized="1"
     inkscape:current-layer="svg3569"
     showguides="true">
    <sodipodi:guide
       position="231.3208,764.15658"
       orientation="1,0"
       id="guide1619"
       inkscape:locked="false" />
  </sodipodi:namedview>
  <path
     id="path3567"
     style="display:none;fill:#808080;fill-opacity:0.9;stroke-width:0.543784"
     d="m 173.21,44.394363 c -7.35415,-0.85066 -15.14836,1.36835 -21.27,7.49 L 55.18,148.62436 h -111 c -14.42115,0 -26.1,11.67885 -26.1,26.1 v 156.61 c 0,14.41027 11.67885,26.1 26.1,26.1 h 111 l 96.76,96.74 c 16.34614,16.34614 44.56,4.86745 44.56,-18.45 V 70.344363 c 0,-14.587 -11.03309,-24.53223 -23.29,-25.95 z" />
  <rect
     style="fill:#4c566a;fill-opacity:1;stroke:#666666;stroke-width:0"
     id="rect1082"
     width="54.846806"
     height="629.74744"
     x="9.0837994"
     y="91.868607"
     rx="27.423403"
     ry="25.863537"
     transform="rotate(-45.018425)" />
  <path
     id="path1511"
     style="fill:#4c566a;fill-opacity:1;stroke-width:0.543784"
     d="m 517.91,303.37 c -7.35415,-0.85066 -15.14836,1.36835 -21.27,7.49 l -96.76,96.74 h -111 c -14.42115,0 -26.1,11.67885 -26.1,26.1 v 156.61 c 0,14.41027 11.67885,26.1 26.1,26.1 h 111 l 96.76,96.74 c 16.34614,16.34614 44.56,4.86745 44.56,-18.45 V 329.32 c 0,-14.587 -11.03309,-24.53223 -23.29,-25.95 z"
     clip-path="url(#clipPath1585)"
     transform="translate(-180.86,-228.25564)" />
  <path
     id="path1589"
     style="fill:#4c566a;fill-opacity:1;stroke-width:0.543784"
     d="m 517.91,303.37 c -7.35415,-0.85066 -15.14836,1.36835 -21.27,7.49 l -96.76,96.74 h -111 c -14.42115,0 -26.1,11.67885 -26.1,26.1 v 156.61 c 0,14.41027 11.67885,26.1 26.1,26.1 h 111 l 96.76,96.74 c 16.34614,16.34614 44.56,4.86745 44.56,-18.45 V 329.32 c 0,-14.587 -11.03309,-24.53223 -23.29,-25.95 z"
     clip-path="url(#clipPath1593)"
     transform="translate(-180.86,-228.25564)" />
</svg>
