<?xml version="1.0" encoding="UTF-8" standalone="no"?>
<svg
   t="1675531262522"
   class="icon"
   viewBox="0 0 626.43961 522.05754"
   version="1.1"
   p-id="2340"
   width="122.35149"
   height="101.96436"
   id="svg3569"
   sodipodi:docname="vol-100.svg"
   inkscape:version="1.3 (0e150ed, 2023-07-21)"
   xmlns:inkscape="http://www.inkscape.org/namespaces/inkscape"
   xmlns:sodipodi="http://sodipodi.sourceforge.net/DTD/sodipodi-0.dtd"
   xmlns="http://www.w3.org/2000/svg"
   xmlns:svg="http://www.w3.org/2000/svg">
  <defs
     id="defs3573" />
  <sodipodi:namedview
     id="namedview3571"
     pagecolor="#ffffff"
     bordercolor="#000000"
     borderopacity="0.25"
     inkscape:showpageshadow="2"
     inkscape:pageopacity="0.0"
     inkscape:pagecheckerboard="0"
     inkscape:deskcolor="#d1d1d1"
     showgrid="false"
     inkscape:zoom="1.5644738"
     inkscape:cx="-15.340621"
     inkscape:cy="38.031957"
     inkscape:window-width="1918"
     inkscape:window-height="1017"
     inkscape:window-x="0"
     inkscape:window-y="31"
     inkscape:window-maximized="1"
     inkscape:current-layer="svg3569" />
  <path
     d="m 233.85992,59.875701 -96.761,96.739239 H 26.10165 C 11.68049,156.61494 0,168.29543 0,182.71659 V 339.3265 c 0,14.41028 11.68049,26.10165 26.10165,26.10165 h 110.99727 l 96.761,96.73924 c 16.34616,16.34616 44.55769,4.86143 44.55769,-18.45604 V 78.331741 c 0,-23.33923 -28.23329,-34.78045 -44.55769,-18.45604 z M 487.61146,4.3226906 c -12.14814,-7.97188 -28.47255,-4.61129998 -36.44443,7.5586004 -7.98275,12.14814 -4.58954,28.47255 7.55861,36.44443 72.07318,47.29836 115.08652,126.810519 115.08652,212.706699 0,85.89618 -43.01334,165.40833 -115.08652,212.7067 -12.14815,7.961 -15.54136,24.29629 -7.55861,36.43355 7.65649,11.64787 23.85039,15.83501 36.44443,7.55861 86.9185,-57.05386 138.82816,-153.03181 138.82816,-256.70974 0,-103.67793 -51.90966,-199.644999 -138.82816,-256.6988494 z M 522.03302,261.02154 c 0,-69.09324 -34.86746,-132.61813 -93.28078,-169.921739 -12.16989,-7.76524 -28.30941,-4.15451 -36.02028,8.11326 -7.71086,12.267779 -4.11101,28.505179 8.05889,36.281299 43.23086,27.61337 69.03886,74.53108 69.03886,125.52718 0,50.9961 -25.808,97.91382 -69.03886,125.52719 -12.1699,7.76524 -15.76975,24.00264 -8.05889,36.2813 7.08008,11.26721 22.96946,16.46579 36.02028,8.11326 58.41332,-37.30361 93.28078,-100.81763 93.28078,-169.92175 z M 367.84839,177.42013 c -12.59405,-6.88431 -28.48343,-2.34915 -35.46562,10.27753 -6.94956,12.62667 -2.34915,28.4943 10.27753,35.46561 14.04051,7.71087 22.76281,22.22991 22.76281,37.85827 0,15.63924 -8.7223,30.14741 -22.75194,37.85827 -12.62667,6.97132 -17.22709,22.83895 -10.27752,35.46562 6.99306,12.68105 22.89332,17.18359 35.46562,10.27753 30.70206,-16.9117 49.77802,-48.9406 49.77802,-83.61229 0,-34.67169 -19.07596,-66.68972 -49.7889,-83.59054 z"
     p-id="2341"
     fill="#ffffff"
     id="path3567"
     style="fill:#222f3e;fill-opacity:1;stroke-width:0.543784" />
</svg>
